<svg width="144" height="160" viewBox="0 0 144 160" fill="none" xmlns="http://www.w3.org/2000/svg">
<path d="M105.491 4.0105H38.4861C35.7863 4.0105 33.7713 6.45592 34.2408 9.09698C34.6516 11.4642 35.7668 14.0856 38.4861 15.729C38.4861 15.729 38.1926 72.8541 57.2278 87.2136C57.2278 87.2136 54.2933 90.4416 56.3475 94.5303C58.4016 98.6386 66.0118 100.399 67.479 104.195C67.479 104.195 64.838 124.051 63.6642 126.399C62.4904 128.747 69.0637 135.516 69.1419 135.594H74.7957C74.6197 135.594 81.4473 128.747 80.2735 126.399C79.0997 124.051 76.4586 104.195 76.4586 104.195C77.9259 100.38 85.536 98.6386 87.5902 94.5303C89.6443 90.422 86.7098 87.2136 86.7098 87.2136C105.745 72.8541 105.452 15.729 105.452 15.729C108.21 14.0661 109.325 11.3663 109.716 8.9796C110.147 6.37767 108.073 4.03006 105.452 4.03006L105.491 4.0105Z" fill="url(#paint0_linear_2_1175)"/>
<path d="M125.211 9.27307C107.623 9.27307 105.256 25.0216 105.256 25.0216L104.434 36.3292C105.041 39.9485 110.264 40.9071 112.025 37.6987C113.786 34.4707 109.971 33.2969 109.971 33.2969C109.971 23.3392 117.581 15.7094 125.798 16.2963C134.053 16.8832 139.609 22.7914 137.223 35.9184C135.462 45.5827 107.154 71.8172 96.0416 85.9029C96.0416 85.9029 92.4615 90.0894 88.0206 89.5221C88.0206 89.5221 88.9792 93.9434 86.7294 95.8411C86.7294 95.8411 91.1899 95.0585 92.3833 97.4257C93.9874 102.16 99.1326 104.214 99.1326 94.2369C99.1326 82.3032 133.995 60.2553 142.485 38.579C145.693 30.382 145.42 9.27307 125.211 9.27307Z" fill="url(#paint1_linear_2_1175)"/>
<path d="M18.8053 9.27307C36.3928 9.27307 38.7599 25.0216 38.7599 25.0216L39.5816 36.3292C38.9751 39.9485 33.7517 40.9071 31.991 37.6987C30.2303 34.4707 34.0452 33.2969 34.0452 33.2969C34.0452 23.3392 26.435 15.7094 18.2184 16.2963C9.96264 16.8832 4.40663 22.7914 6.79337 35.9184C8.55407 45.5827 36.8623 71.8172 47.9547 85.9029C47.9547 85.9029 51.5348 90.0894 55.9757 89.5221C55.9757 89.5221 55.0171 93.9434 57.2669 95.8411C57.2669 95.8411 52.8065 95.0585 51.6131 97.4257C50.0089 102.16 44.8637 104.214 44.8637 94.2369C44.8637 82.3032 10.0018 60.2553 1.51125 38.579C-1.69715 30.382 -1.4037 9.27307 18.8053 9.27307Z" fill="url(#paint2_linear_2_1175)"/>
<path d="M99.6413 154.923C91.8159 154.923 75.6761 135.594 75.6761 135.594H68.066C68.066 135.594 52.2392 154.923 44.3356 154.923C37.821 154.923 32.9105 158.15 34.9647 159.911H109.032C111.086 158.15 106.156 154.923 99.6608 154.923H99.6413Z" fill="url(#paint3_linear_2_1175)"/>
<path style="mix-blend-mode:multiply" opacity="0.43" d="M57.2277 87.2136C57.2277 87.2136 56.5625 88.407 55.78 90.1286C55.5061 91.3415 55.5061 92.8674 56.3473 94.5303C58.4015 98.6386 66.0116 100.399 67.4789 104.195H76.4976C77.9649 100.38 85.575 98.6386 87.6292 94.5303C89.6833 90.422 86.7488 87.2136 86.7488 87.2136H57.2277Z" fill="url(#paint4_linear_2_1175)"/>
<path style="mix-blend-mode:multiply" opacity="0.49" d="M69.1614 135.594H74.8152C74.6391 135.594 81.4668 128.747 80.293 126.399H63.6641C62.4903 128.747 69.0636 135.516 69.1418 135.594H69.1614Z" fill="url(#paint5_linear_2_1175)"/>
<path style="mix-blend-mode:multiply" opacity="0.43" d="M80.8407 95.5476H62.6077C60.2014 95.5476 58.0103 94.9412 56.0735 93.9043C56.1517 94.0999 56.2496 94.3151 56.3474 94.5303C58.4015 98.6386 66.0117 100.399 67.4789 104.195H76.4977C77.9649 100.38 85.5751 98.6386 87.6292 94.5303C87.8249 94.1586 87.9618 93.8065 88.0792 93.4543C85.9077 94.7847 83.384 95.5672 80.8407 95.5672V95.5476Z" fill="url(#paint6_linear_2_1175)"/>
<path style="mix-blend-mode:multiply" opacity="0.58" d="M86.7489 87.2136H78.3366C78.3366 87.2136 81.2711 90.4416 79.217 94.5303C77.1628 98.6386 74.3653 100.399 72.898 104.195H76.4977C77.9649 100.38 85.5751 98.6386 87.6292 94.5303C89.6834 90.422 86.7489 87.2136 86.7489 87.2136Z" fill="url(#paint7_linear_2_1175)"/>
<g style="mix-blend-mode:screen" opacity="0.47">
<path d="M58.0886 88.1135H68.5159C70.6288 88.1135 72.9372 87.8396 75.0501 88.0353C78.3367 88.3483 75.3827 90.9111 73.6024 91.5567C70.1788 92.8283 66.3835 93.65 62.7643 93.9434C60.8666 94.0999 56.9148 94.1978 56.4453 91.6154C56.1714 90.1677 57.13 89.033 58.1082 88.094L58.0886 88.1135Z" fill="white"/>
</g>
<path style="mix-blend-mode:multiply" opacity="0.43" d="M78.3367 87.2136H86.7489L87.4728 86.6463C105.784 71.4259 105.51 15.729 105.51 15.729H91.8354C91.8354 15.729 96.0611 58.8467 78.3562 87.2136H78.3367Z" fill="url(#paint8_linear_2_1175)"/>
<path style="mix-blend-mode:multiply" opacity="0.17" d="M75.6957 39.2246C75.8717 63.3659 67.7529 87.2136 67.7529 87.2136L87.4533 86.6463L87.6294 86.4898C105.765 71.0347 105.471 15.729 105.471 15.729H63.9576C63.9576 15.729 75.5 15.0834 75.6761 39.2246H75.6957Z" fill="url(#paint9_linear_2_1175)"/>
<path style="mix-blend-mode:multiply" opacity="0.43" d="M94.7896 9.27305C94.2613 13.3031 91.8159 15.7094 91.8159 15.7094H105.491C108.249 14.0465 109.364 11.3468 109.756 8.96004C110.186 6.3581 108.112 4.0105 105.491 4.0105H91.8159C91.8159 4.0105 95.3178 5.26256 94.7896 9.29261V9.27305Z" fill="url(#paint10_linear_2_1175)"/>
<path style="mix-blend-mode:multiply" opacity="0.39" d="M85.3599 86.6463C103.671 71.4259 103.397 15.729 103.397 15.729H91.8158C91.8158 15.729 96.0415 58.8467 78.3367 87.2136H84.6361L85.3599 86.6463Z" fill="url(#paint11_linear_2_1175)"/>
<path style="mix-blend-mode:multiply" opacity="0.39" d="M107.662 8.96004C108.093 6.3581 106.019 4.0105 103.397 4.0105H91.8159C91.8159 4.0105 95.3178 5.26256 94.7896 9.29261C94.2613 13.3227 91.8159 15.729 91.8159 15.729H103.397C106.156 14.0661 107.271 11.3663 107.662 8.9796V8.96004Z" fill="url(#paint12_linear_2_1175)"/>
<g style="mix-blend-mode:screen" opacity="0.47">
<path d="M58.7928 83.0857C56.3474 83.0857 54.4302 79.7795 53.276 78.0579C49.7546 72.815 47.1331 65.4982 45.3724 59.5118C43.4356 52.9581 42.7117 45.7979 41.9879 39.029C41.1467 31.3014 40.5989 23.4956 40.638 15.729H53.6281C53.6281 15.729 47.7787 38.0508 55.9366 71.7977C56.7191 75.0452 59.6732 79.623 59.1645 83.0466C59.0276 83.0662 58.9102 83.0662 58.7733 83.0857H58.7928Z" fill="#FFF097"/>
</g>
<g style="mix-blend-mode:screen" opacity="0.47">
<path d="M36.3732 8.96004C35.9428 6.3581 37.997 4.0105 40.638 4.0105H52.2195C52.2195 4.0105 48.7177 5.26256 49.2459 9.29261C49.7741 13.3227 52.2195 15.729 52.2195 15.729H40.638C37.8796 14.0661 36.7645 11.3663 36.3732 8.9796V8.96004Z" fill="#FFF097"/>
</g>
<g style="mix-blend-mode:screen" opacity="0.47">
<path d="M62.686 85.179C56.5627 75.4365 52.0435 64.5983 49.9111 53.2711C47.5635 40.9071 47.6418 28.2104 49.0308 15.7094H40.6576C40.6576 15.7094 40.3642 71.3868 58.6951 86.6267L59.4189 87.194H64.0163C63.5664 86.5289 63.136 85.8442 62.7056 85.1594L62.686 85.179Z" fill="#FFF097"/>
</g>
<g style="mix-blend-mode:screen" opacity="0.47">
<path d="M45.3137 9.84039C44.6877 7.62973 45.0398 5.65382 46.0375 4.0105H40.6576C38.0165 4.0105 35.9624 6.3581 36.3928 8.96004C36.7841 11.3468 37.8992 14.0661 40.6576 15.7094H49.3829C47.4852 14.203 46.018 12.2467 45.3137 9.82083V9.84039Z" fill="#FFF097"/>
</g>
<path style="mix-blend-mode:multiply" opacity="0.43" d="M80.3126 126.399C79.1388 124.051 76.4978 104.195 76.4978 104.195H73.7002C73.7002 104.195 74.3067 117.322 75.7935 126.399C75.7935 126.399 75.7935 131.094 72.0569 135.594H74.8153C74.6393 135.594 81.4669 128.747 80.2931 126.399H80.3126Z" fill="url(#paint13_linear_2_1175)"/>
<path style="mix-blend-mode:multiply" opacity="0.59" d="M79.2562 126.399C78.0824 124.051 75.4414 104.195 75.4414 104.195H73.7002C73.7002 104.195 74.3067 117.322 75.7935 126.399C75.7935 126.399 75.7935 131.094 72.0569 135.594H73.7589C73.6024 135.594 80.4104 128.747 79.2366 126.399H79.2562Z" fill="url(#paint14_linear_2_1175)"/>
<g style="mix-blend-mode:screen" opacity="0.47">
<path d="M64.5055 126.399C65.6793 124.051 68.3203 104.195 68.3203 104.195H70.0615C70.0615 104.195 69.455 117.322 67.9682 126.399C67.9682 126.399 67.9682 131.094 71.7048 135.594H70.0028C70.1593 135.594 63.3512 128.747 64.525 126.399H64.5055Z" fill="#FFF097"/>
</g>
<g style="mix-blend-mode:screen" opacity="0.47">
<path d="M39.4642 4.77347C36.9796 6.00596 36.5492 8.68615 37.5274 9.70344C39.8946 12.1684 47.5439 10.9555 50.7523 10.799C59.7905 10.3882 68.9853 10.2903 77.8476 8.25575C78.767 8.04056 84.8317 6.80806 83.5796 4.9691C83.5796 4.79303 39.4837 4.75391 39.4837 4.75391L39.4642 4.77347Z" fill="white"/>
</g>
<path style="mix-blend-mode:multiply" opacity="0.85" d="M108.973 5.84946C108.973 5.84946 109.11 12.5988 101.715 13.4596C96.0806 14.1248 54.8019 15.7094 54.8019 15.7094H105.491C108.249 14.0465 109.364 11.3468 109.755 8.96004C109.951 7.8058 109.638 6.71025 109.032 5.8299C108.992 5.8299 108.953 5.8299 108.953 5.8299L108.973 5.84946Z" fill="url(#paint15_linear_2_1175)"/>
<path style="mix-blend-mode:screen" opacity="0.43" d="M99.6413 154.923C99.2892 154.923 98.8979 154.883 98.5066 154.805H45.4507C45.0594 154.883 44.6877 154.923 44.316 154.923C37.8014 154.923 32.891 158.15 34.9452 159.911H109.012C111.066 158.15 106.136 154.923 99.6413 154.923Z" fill="url(#paint16_linear_2_1175)"/>
<path style="mix-blend-mode:multiply" opacity="0.59" d="M72.0765 135.594C72.0765 135.594 75.3044 150.247 82.8755 154.805H93.3419C93.3419 154.805 84.2253 150.853 74.385 135.594H72.0765Z" fill="url(#paint17_linear_2_1175)"/>
<g style="mix-blend-mode:screen" opacity="0.47">
<path d="M69.9832 135.594C69.9832 135.594 61.6884 149.073 49.8329 154.805H60.3385C60.3385 154.805 70.3354 141.365 71.6657 135.594H69.9637H69.9832Z" fill="#FFF097"/>
</g>
<g style="mix-blend-mode:screen" opacity="0.47">
<path d="M42.9269 159.892C42.9269 159.892 41.9487 155.588 49.3828 154.786H59.4384C59.4384 154.786 57.1104 156.898 56.6604 159.911H42.9269V159.892Z" fill="white"/>
</g>
<g style="mix-blend-mode:screen" opacity="0.47">
<path d="M44.3356 156.194C44.6877 156.194 45.079 156.155 45.4703 156.077H98.5262C98.9175 156.155 99.2892 156.194 99.6609 156.194C104.473 156.194 108.425 157.955 109.306 159.598C110.519 157.798 105.804 154.923 99.6609 154.923C99.3087 154.923 98.9175 154.883 98.5262 154.805H45.4703C45.079 154.883 44.7073 154.923 44.3356 154.923C38.1927 154.923 33.4779 157.798 34.6908 159.598C35.5908 157.974 39.523 156.194 44.3356 156.194Z" fill="white"/>
</g>
<g style="mix-blend-mode:multiply">
<path opacity="0.65" d="M143.209 22.7914C144.011 25.9802 143.346 30.4602 142.622 33.5903C140.666 41.983 135.227 49.5541 129.339 55.6774C125.739 59.414 122.041 63.0724 118.344 66.7112C111.047 73.9301 103.769 81.2468 97.5285 89.4438C96.8438 90.3633 95.8069 91.811 94.4962 91.5762C93.6158 91.4197 91.9529 88.9547 93.0093 88.3287C91.6399 89.1308 89.8988 89.7373 88.0207 89.5025C88.0207 89.5025 88.9793 93.9239 86.7295 95.8215C86.7295 95.8215 91.1899 95.039 92.3833 97.4061C93.9875 102.14 99.1327 104.195 99.1327 94.2173C99.1327 82.2836 133.995 60.2357 142.485 38.5594C143.933 34.8815 144.657 28.6017 143.209 22.7914Z" fill="url(#paint18_linear_2_1175)"/>
<path d="M112.006 37.6987C113.766 34.4707 109.951 33.2969 109.951 33.2969C109.951 23.3391 117.562 15.7094 125.778 16.2963C132.136 16.7463 136.871 20.3459 137.653 27.9365C137.653 25.9019 137.34 23.8673 136.675 21.8914C135.345 17.9788 132.88 15.0834 128.654 14.2813C122.941 13.1857 116.877 15.2399 112.827 19.3482C110.48 21.7154 108.719 24.063 107.682 27.2714C107.076 29.169 106.802 31.3014 106.313 33.1404C108.523 33.473 109.364 36.6227 106.704 36.7987C105.784 36.8574 105.08 36.5053 104.454 35.9575V36.3292C105.041 39.9484 110.264 40.9071 112.025 37.6987H112.006Z" fill="url(#paint19_linear_2_1175)"/>
</g>
<g style="mix-blend-mode:screen" opacity="0.47">
<path d="M126.482 55.7361C127.891 54.9927 129.534 53.2711 130.062 52.7625C134.307 48.6933 137.633 43.6264 139.727 38.1291C141.644 33.0621 142.505 26.0976 140.685 20.8937C139.374 17.2158 136.909 14.0074 133.427 12.1489C129.064 9.80127 123.489 9.42957 118.794 10.9555C115.39 12.0511 108.445 16.3941 109.012 20.6981C110.068 20.4242 110.851 18.7809 111.692 18.0375C113.59 16.3354 116.094 14.8878 118.442 13.9292C122.354 12.3445 128.751 12.0315 132.41 14.4378C135.696 16.5898 137.535 20.1307 138.279 23.9065C139.296 29.0125 139.218 34.1773 137.144 38.9507C135.579 42.5504 132.762 46.1696 130.375 49.2606C129.417 50.4931 128.438 51.7256 127.362 52.8407C126.502 53.7211 125.034 54.621 124.761 55.8731C125.191 56.2252 125.817 56.1078 126.502 55.7361H126.482Z" fill="white"/>
</g>
<path style="mix-blend-mode:multiply" opacity="0.65" d="M55.9758 89.5221C51.5545 90.0894 47.9548 85.9029 47.9548 85.9029C36.8428 71.8368 8.53459 45.6023 6.79344 35.9184C4.40671 22.7914 9.96271 16.8832 18.2185 16.2963C26.4155 15.7094 34.0452 23.3196 34.0452 33.2969C34.0452 33.2969 30.2304 34.4707 31.9911 37.6987C33.7518 40.9266 38.9752 39.9485 39.5817 36.3292L38.76 25.0216C38.76 25.0216 37.5471 17.0593 30.5434 12.4619C31.3846 13.8313 32.2063 15.3377 31.4824 16.2963C30.6217 17.431 28.3132 16.4333 27.2568 16.042C22.092 14.1639 18.1011 12.7162 12.9559 15.6312C8.96498 17.9005 6.22611 21.9501 5.22837 26.4106C3.09596 36.0162 8.14332 43.2155 13.9341 50.1214C22.3072 60.0987 30.5825 69.9783 39.6795 79.31C42.4771 82.1858 45.529 84.866 47.5049 88.407C49.2656 91.5762 51.3393 96.9562 45.705 96.9562C45.4507 96.9562 45.2355 96.9562 45.0203 96.9562C45.9007 103.745 50.1655 101.671 51.6132 97.4257C52.8065 95.0585 57.267 95.8411 57.267 95.8411C55.0172 93.9434 55.9758 89.5221 55.9758 89.5221Z" fill="url(#paint20_linear_2_1175)"/>
<g style="mix-blend-mode:screen" opacity="0.47">
<path d="M5.18917 22.5566C8.08455 16.355 12.8385 12.6379 19.6856 12.4032C21.3485 12.3445 25.4177 13.2835 26.2589 11.3663C26.3959 11.0533 26.435 10.7403 26.3959 10.4273C24.2439 9.70344 21.7398 9.25348 18.8053 9.25348C-1.4037 9.27304 -1.69715 30.3819 1.51125 38.579C4.40663 45.974 10.3735 53.4081 16.9663 60.4704C17.1424 60.4313 17.2793 60.3139 17.2989 60.0792C17.8076 56.0491 12.8385 51.706 10.6278 48.7911C5.20873 41.6309 1.08086 31.3405 5.1696 22.5566H5.18917Z" fill="white"/>
</g>
<path style="mix-blend-mode:multiply" opacity="0.58" d="M86.7489 87.2136H83.5796C83.9513 88.6222 84.147 90.0503 83.9318 91.5371C83.5992 93.7478 82.3667 95.4889 80.8799 97.1127C78.6496 99.5581 76.2433 101.73 74.1305 104.214H76.4977C77.9649 100.399 85.5751 98.6582 87.6292 94.5499C89.6834 90.4416 86.7489 87.2332 86.7489 87.2332V87.2136Z" fill="url(#paint21_linear_2_1175)"/>
<path opacity="0.22" d="M42.8487 15.729H68.0268C68.0268 15.729 69.7875 22.3023 70.0223 42.3352C70.257 62.3681 68.3007 84.103 61.3948 83.0857C54.4889 82.0684 42.8292 65.7526 42.8487 15.729Z" fill="#FFF097"/>
<path style="mix-blend-mode:multiply" d="M65.6401 101.847C66.4813 102.551 67.1465 103.334 67.4986 104.195H76.5173C77.9259 100.536 85.0274 98.756 87.3946 94.9803C80.4691 100.38 68.7311 102.395 65.6596 101.827L65.6401 101.847Z" fill="url(#paint22_linear_2_1175)"/>
<path d="M49.3634 11.6207C47.9157 10.7207 47.2114 0 47.2114 0C47.2114 0 46.781 10.7207 45.3334 11.6207C43.514 12.7553 34.9061 12.9901 34.9061 12.9901C34.9061 12.9901 45.4312 13.7726 45.9594 14.7117C46.8202 16.2376 47.231 27.2714 47.231 27.2714C47.231 27.2714 48.2092 15.9246 49.07 14.3987C49.5982 13.4596 60.2407 13.0292 60.2407 13.0292C60.2407 13.0292 51.1828 12.7553 49.383 11.6207H49.3634Z" fill="white"/>
<defs>
<linearGradient id="paint0_linear_2_1175" x1="52.4739" y1="69.8022" x2="97.2936" y2="69.8022" gradientUnits="userSpaceOnUse">
<stop stop-color="#FFC206"/>
<stop offset="1" stop-color="#EB7C00"/>
</linearGradient>
<linearGradient id="paint1_linear_2_1175" x1="114.92" y1="10.5838" x2="115.703" y2="102.884" gradientUnits="userSpaceOnUse">
<stop stop-color="#FFC206"/>
<stop offset="1" stop-color="#EB7C00"/>
</linearGradient>
<linearGradient id="paint2_linear_2_1175" x1="29.0956" y1="10.5838" x2="28.2935" y2="102.884" gradientUnits="userSpaceOnUse">
<stop stop-color="#FFC206"/>
<stop offset="1" stop-color="#EB7C00"/>
</linearGradient>
<linearGradient id="paint3_linear_2_1175" x1="61.8448" y1="147.919" x2="89.7031" y2="148.662" gradientUnits="userSpaceOnUse">
<stop stop-color="#FFC206"/>
<stop offset="1" stop-color="#EB7C00"/>
</linearGradient>
<linearGradient id="paint4_linear_2_1175" x1="71.9589" y1="87.3114" x2="72.0959" y2="104.547" gradientUnits="userSpaceOnUse">
<stop stop-color="#FFC200"/>
<stop offset="1" stop-color="#EB7C00"/>
</linearGradient>
<linearGradient id="paint5_linear_2_1175" x1="71.9785" y1="126.458" x2="72.0568" y2="135.79" gradientUnits="userSpaceOnUse">
<stop stop-color="#FFC200"/>
<stop offset="1" stop-color="#EB7C00"/>
</linearGradient>
<linearGradient id="paint6_linear_2_1175" x1="72.0177" y1="87.3114" x2="72.1546" y2="104.547" gradientUnits="userSpaceOnUse">
<stop stop-color="#FFC200"/>
<stop offset="1" stop-color="#EB7C00"/>
</linearGradient>
<linearGradient id="paint7_linear_2_1175" x1="80.5473" y1="87.4093" x2="80.6842" y2="104.469" gradientUnits="userSpaceOnUse">
<stop stop-color="#FDC56C"/>
<stop offset="1" stop-color="#F6DB61"/>
</linearGradient>
<linearGradient id="paint8_linear_2_1175" x1="91.6202" y1="16.668" x2="92.2462" y2="88.4657" gradientUnits="userSpaceOnUse">
<stop stop-color="#FFC200"/>
<stop offset="1" stop-color="#EB7C00"/>
</linearGradient>
<linearGradient id="paint9_linear_2_1175" x1="74.0328" y1="51.4713" x2="98.624" y2="51.4713" gradientUnits="userSpaceOnUse">
<stop stop-color="#F19500"/>
<stop offset="1" stop-color="#F6DB61"/>
</linearGradient>
<linearGradient id="paint10_linear_2_1175" x1="100.756" y1="4.08875" x2="100.854" y2="15.9833" gradientUnits="userSpaceOnUse">
<stop stop-color="#FFC200"/>
<stop offset="1" stop-color="#EB7C00"/>
</linearGradient>
<linearGradient id="paint11_linear_2_1175" x1="91.5615" y1="23.4565" x2="90.4268" y2="70.5065" gradientUnits="userSpaceOnUse">
<stop stop-color="#FFCF3C"/>
<stop offset="1" stop-color="#C78F00"/>
</linearGradient>
<linearGradient id="paint12_linear_2_1175" x1="99.876" y1="3.61923" x2="98.7414" y2="31.771" gradientUnits="userSpaceOnUse">
<stop stop-color="#FFCF3C"/>
<stop offset="1" stop-color="#C78F00"/>
</linearGradient>
<linearGradient id="paint13_linear_2_1175" x1="74.0915" y1="119.904" x2="79.0606" y2="119.904" gradientUnits="userSpaceOnUse">
<stop stop-color="#FFC200"/>
<stop offset="1" stop-color="#EB7C00"/>
</linearGradient>
<linearGradient id="paint14_linear_2_1175" x1="75.324" y1="108.381" x2="75.7739" y2="134.264" gradientUnits="userSpaceOnUse">
<stop stop-color="#FDC56C"/>
<stop offset="1" stop-color="#F6DB61"/>
</linearGradient>
<linearGradient id="paint15_linear_2_1175" x1="68.1245" y1="10.7794" x2="100.717" y2="10.7794" gradientUnits="userSpaceOnUse">
<stop stop-color="#FDC56C"/>
<stop offset="1" stop-color="#F6DB61"/>
</linearGradient>
<linearGradient id="paint16_linear_2_1175" x1="71.9591" y1="154.649" x2="71.9982" y2="160.322" gradientUnits="userSpaceOnUse">
<stop stop-color="#FFC200"/>
<stop offset="1" stop-color="#EB7C00"/>
</linearGradient>
<linearGradient id="paint17_linear_2_1175" x1="82.6211" y1="135.75" x2="82.7777" y2="155.236" gradientUnits="userSpaceOnUse">
<stop stop-color="#FDC56C"/>
<stop offset="1" stop-color="#F6DB61"/>
</linearGradient>
<linearGradient id="paint18_linear_2_1175" x1="115.038" y1="24.0825" x2="115.703" y2="102.649" gradientUnits="userSpaceOnUse">
<stop stop-color="#FDC56C"/>
<stop offset="1" stop-color="#F6DB61"/>
</linearGradient>
<linearGradient id="paint19_linear_2_1175" x1="120.887" y1="14.3791" x2="121.102" y2="40.0071" gradientUnits="userSpaceOnUse">
<stop stop-color="#FFC345"/>
<stop offset="1" stop-color="#F6DB61"/>
</linearGradient>
<linearGradient id="paint20_linear_2_1175" x1="30.5825" y1="13.6553" x2="31.3455" y2="103.138" gradientUnits="userSpaceOnUse">
<stop stop-color="#FDC56C"/>
<stop offset="1" stop-color="#F6DB61"/>
</linearGradient>
<linearGradient id="paint21_linear_2_1175" x1="81.1538" y1="87.4093" x2="81.3103" y2="104.469" gradientUnits="userSpaceOnUse">
<stop stop-color="#FDC56C"/>
<stop offset="1" stop-color="#F6DB61"/>
</linearGradient>
<linearGradient id="paint22_linear_2_1175" x1="76.3999" y1="87.2723" x2="76.5564" y2="104.508" gradientUnits="userSpaceOnUse">
<stop stop-color="#FFC345"/>
<stop offset="1" stop-color="#F6DB61"/>
</linearGradient>
</defs>
</svg>
