<svg width="311" height="456" viewBox="0 0 311 456" fill="none" xmlns="http://www.w3.org/2000/svg">
<path d="M306.47 8.39661C295.729 -2.78449 15.1812 -2.78449 4.44002 8.39661C-4.14842 17.3325 1.18852 418.729 7.89333 443.875C12.1988 460.041 298.712 460.041 303.017 443.875C309.722 418.707 315.036 17.3101 306.47 8.39661Z" fill="url(#paint0_linear_2_1222)"/>
<g style="mix-blend-mode:screen" opacity="0.13">
<path d="M293.98 20.5436C284.136 9.99113 26.7968 9.99113 16.9526 20.5436C9.08177 28.9855 13.9702 408.155 20.1144 431.909C24.0611 447.176 286.872 447.176 290.818 431.909C296.962 408.155 301.851 28.9855 293.98 20.5436Z" fill="url(#paint1_linear_2_1222)"/>
</g>
<g style="mix-blend-mode:screen" opacity="0.47">
<path d="M293.98 20.5436C291.177 17.535 268.372 15.4021 236.933 14.0999C237.494 23.8216 235.453 33.678 232.336 42.8833C227.851 56.1524 221.326 68.6806 214.374 80.7823C200.987 104.043 186.726 126.809 171.746 149.081C154.525 174.699 136.271 199.621 118.915 225.149C110.663 237.295 102.276 249.374 93.1049 260.892C84.3819 271.871 74.9414 282.828 63.7517 291.36C54.5354 298.387 43.9737 302.541 32.515 303.91C26.5501 304.629 20.5405 304.584 14.5308 304.157C15.8763 369.941 17.9169 423.445 20.092 431.909C21.3478 436.781 49.064 440.104 86.3328 441.878C84.1128 403.687 90.0328 365.294 100.864 328.697C112.121 290.641 128.513 254.201 147.035 219.176C161.498 191.83 177.397 165.224 192.937 138.484C207.109 114.056 222.245 89.6508 241.53 68.8827C256.083 53.1888 274.628 38.4603 296.088 34.8904C295.527 26.5158 294.832 21.4417 294.003 20.5436H293.98Z" fill="url(#paint2_linear_2_1222)"/>
</g>
<g style="mix-blend-mode:screen" opacity="0.17">
<path d="M30.9677 383.368C26.6398 359.367 24.3974 335.006 24.3974 310.623C24.3974 285.23 26.6847 259.77 31.5283 234.825C36.058 211.543 42.8301 188.574 53.1003 167.155C71.2863 129.166 100.034 95.9598 136.002 73.8671C153.986 62.8207 173.832 54.6032 194.417 49.9108C218.074 44.5223 242.382 42.5914 266.174 48.3391C277.14 50.9885 287.679 55.2544 297.187 61.0694C296.536 37.3601 295.505 22.1601 293.98 20.5436C284.136 9.99113 26.7968 9.99113 16.9526 20.5436C9.08177 28.9855 13.9702 408.155 20.1144 431.909C20.9217 435.03 32.4925 437.5 50.4543 439.341C39.5337 422.861 34.421 402.564 30.9677 383.345V383.368Z" fill="url(#paint3_linear_2_1222)"/>
</g>
<g style="mix-blend-mode:screen" opacity="0.47">
<path d="M262.99 397.513C258.057 405.483 252.563 413.094 246.845 420.526C241.732 427.194 236.26 433.571 230.049 439.228C228.3 440.822 226.506 442.372 224.645 443.831C262.183 442.08 290.168 438.757 291.446 433.84C293.576 425.578 295.55 374.522 296.918 311.005C290.146 341.405 279.427 370.952 262.99 397.49V397.513Z" fill="url(#paint4_linear_2_1222)"/>
</g>
<g style="mix-blend-mode:screen" opacity="0.47">
<path d="M19.4417 111.744C29.0168 91.3796 40.4082 72.0709 55.4772 55.2544C68.6626 40.5483 84.3147 27.9976 101.424 18.1412C104.541 16.345 107.703 14.6387 110.91 13.0222C61.6439 13.9427 20.7423 16.4573 16.9302 20.5436C14.2842 23.3725 13.0957 67.805 12.8939 126.539C14.9569 121.555 17.1544 116.616 19.4417 111.744Z" fill="url(#paint5_linear_2_1222)"/>
</g>
<path d="M241.53 15.5592C248.93 15.8287 268.103 16.6145 273.552 16.4124C225.631 11.7199 106.761 11.3832 49.0864 15.447C61.7111 16.592 154.838 12.3486 241.53 15.5817V15.5592Z" fill="white"/>
<path d="M12.849 198.633C12.849 198.633 13.8357 322.388 18.3205 416.664C18.3205 416.664 15.5847 217.739 12.849 198.633Z" fill="white"/>
<g style="mix-blend-mode:multiply" opacity="0.67">
<path d="M308.13 16.345C306.291 17.8269 296.895 16.3675 298.061 35.564C304.407 140.078 298.353 414.082 293.083 434.424C289.585 447.962 79.0898 448.77 29.3756 438.33C24.3974 437.275 20.4508 436.848 16.7956 440.373C15.0914 442.035 13.6338 444.213 12.849 447.087C51.3512 459.974 299.003 458.919 303.017 443.898C309.228 420.571 314.251 74.0467 308.13 16.3675V16.345Z" fill="url(#paint6_linear_2_1222)"/>
</g>
<g style="mix-blend-mode:screen" opacity="0.47">
<path d="M5.22483 349.847C6.30119 336.825 6.81695 323.758 7.3327 310.713C7.87088 297.264 8.65572 283.838 9.17148 270.412C9.66481 257.277 9.95632 244.143 10.3824 231.009C9.61996 154.537 9.53026 75.4387 11.9296 36.6192C12.0866 22.1826 2.73576 21.1498 2.37697 20.7905C-1.61452 70.9034 -0.0896803 259.118 3.34121 367.292C4.12605 361.5 4.7315 355.685 5.20241 349.847H5.22483Z" fill="url(#paint7_linear_2_1222)"/>
</g>
<g style="mix-blend-mode:screen" opacity="0.47">
<path d="M23.5677 4.33323C24.7338 7.07237 34.0174 13.0446 41.3725 13.0446C128.894 6.53352 271.713 13.4487 271.713 13.4487C271.713 13.4487 289.854 13.0446 293.061 5.00679C244.49 -1.43693 80.2783 -1.66145 23.5677 4.33323Z" fill="url(#paint8_linear_2_1222)"/>
</g>
<g style="mix-blend-mode:multiply" opacity="0.67">
<path d="M296.783 412.129C298.061 418.146 304.923 422.367 305.192 422.636C310.439 347.736 313.646 68.0295 308.152 16.3226C306.134 16.3226 297.411 21.2396 298.084 35.5415C301.021 97.7335 301.156 167.537 300.416 233.388C300.035 267.381 299.407 301.351 298.442 335.32C298.039 349.42 297.59 363.52 297.03 377.62C296.559 389.34 295.572 406.246 296.806 412.129H296.783Z" fill="url(#paint9_linear_2_1222)"/>
</g>
<g style="mix-blend-mode:multiply" opacity="0.88">
<path d="M275.435 441.878C266.533 440.71 167.598 446.75 107.524 444.617C81.7134 443.696 54.7597 443.629 29.3756 438.285C24.3974 437.23 20.4508 436.804 16.7956 440.329C15.0914 441.99 13.6338 444.168 12.849 447.042C46.7767 458.402 239.265 458.537 287.118 449.534C285.369 445.29 281.221 442.641 275.413 441.878H275.435Z" fill="url(#paint10_linear_2_1222)"/>
</g>
<path d="M31.775 3.56987C31.775 3.56987 72.1384 0.830726 76.825 5.20887C81.5116 9.587 37.1119 16.3451 37.1119 16.3451C37.1119 16.3451 81.9377 13.3365 102.859 13.4487C102.859 13.4487 74.2462 13.3365 76.3765 10.5524C78.5068 7.76839 140.666 0.0449066 140.666 0.0449066C140.666 0.0449066 65.4784 0.651111 31.775 3.56987Z" fill="white"/>
<g style="mix-blend-mode:screen" opacity="0.47">
<path d="M34.8919 3.97401C39.2422 4.80473 43.6373 5.38849 48.01 6.06205C59.2669 7.79085 70.7929 7.97047 82.1619 7.97047C125.328 7.92556 168.405 6.53354 211.527 4.06382C224.533 3.3229 237.539 2.55953 250.567 1.84107C185.896 -1.07769 82.2965 -0.516389 32.5822 3.50252C33.3671 3.68213 34.1519 3.81685 34.8919 3.97401Z" fill="url(#paint11_linear_2_1222)"/>
</g>
<g style="mix-blend-mode:screen" opacity="0.47">
<path d="M9.50783 102.089C9.79934 97.7784 10.0684 93.4677 10.2703 89.1344C10.3599 83.4541 10.4496 77.9758 10.5618 72.7669C10.5393 70.3646 10.4721 67.9622 10.3599 65.5598C9.79934 52.9643 7.8933 39.7849 1.83879 28.6263C0.448491 53.795 -0.0896878 99.7542 8.65292e-06 152.225C1.92848 135.43 4.70907 118.389 9.50783 102.112V102.089Z" fill="url(#paint12_linear_2_1222)"/>
</g>
<g style="mix-blend-mode:screen" opacity="0.47">
<path d="M8.61086 262.015C7.15329 266.146 5.31451 271.153 1.45757 273.667C1.36787 273.735 1.27817 273.78 1.18848 273.825C1.25575 277.484 1.32302 281.121 1.39029 284.736C3.76725 278.944 6.8842 273.443 10.8533 269.918C10.786 265.158 10.7411 260.376 10.6739 255.549C10.046 257.726 9.37328 259.882 8.63328 262.015H8.61086Z" fill="url(#paint13_linear_2_1222)"/>
</g>
<g style="mix-blend-mode:screen" opacity="0.47">
<path d="M3.90182 383.435C4.57454 402.048 5.33696 417.45 6.09938 428.227C6.09938 428.227 13.0509 427.957 12.849 408.671C12.7593 399.601 12.5575 386.219 12.2884 369.784C10.5842 374.679 7.98301 380.112 3.87939 383.435H3.90182Z" fill="url(#paint14_linear_2_1222)"/>
</g>
<g style="mix-blend-mode:multiply" opacity="0.88">
<path d="M300.55 223.959C300.304 257.951 299.362 301.373 298.398 335.343C297.994 349.443 297.546 363.543 296.985 377.643C296.514 389.362 295.527 406.269 296.761 412.151C298.039 418.168 304.901 422.389 305.17 422.659C308.758 371.446 311.381 224.497 310.933 120.118C310.933 120.118 300.909 174.407 300.55 223.936V223.959Z" fill="url(#paint15_linear_2_1222)"/>
</g>
<g style="mix-blend-mode:multiply" opacity="0.88">
<path d="M188.183 449.399C153.381 449.916 114.811 449.511 80.368 454.406C151.542 457.617 254.02 455.775 287.141 449.534C287.096 449.444 287.074 449.377 287.029 449.287C252.854 447.356 222.402 448.883 188.183 449.377V449.399Z" fill="url(#paint16_linear_2_1222)"/>
</g>
<g style="mix-blend-mode:screen" opacity="0.47">
<path d="M284.405 234.152C271.354 261.521 255.343 287.341 238.525 312.554C231.394 323.264 224.107 333.884 217.065 344.638C210.607 354.517 204.172 364.418 197.422 374.118C183.9 393.539 169.078 412.623 150.533 427.531C142.909 433.66 134.769 438.914 126.18 443.113C201.077 444.415 288.531 440.665 290.796 431.909C294.047 419.313 296.962 306.717 297.792 202.495C293.846 213.249 289.316 223.801 284.383 234.152H284.405Z" fill="url(#paint17_linear_2_1222)"/>
</g>
<g style="mix-blend-mode:screen" opacity="0.47">
<path d="M26.2362 156.154C49.6918 117.604 84.3147 88.8425 118.354 60.1264C135.285 45.847 152.641 31.8594 171.881 20.7905C176.904 17.8942 182.039 15.2449 187.264 12.8201C111.605 11.8322 22.6484 14.4142 16.9302 20.5436C13.4993 24.2032 12.4902 97.9131 12.9611 182.041C16.7508 173.127 21.1908 164.461 26.2586 156.154H26.2362Z" fill="url(#paint18_linear_2_1222)"/>
</g>
<path d="M292.523 416.237C292.523 416.237 294.675 257.637 296.918 211.947C296.918 211.947 298.061 314.081 292.523 416.237Z" fill="white"/>
<g style="mix-blend-mode:multiply" opacity="0.48">
<path d="M156.946 430.562C126.607 430.562 97.4552 429.731 74.8293 428.249C48.6603 426.521 38.0986 424.343 34.1295 423.198L33.5016 423.018L33.4344 422.367C31.5507 405.954 28.9271 347.961 27.7162 238.575L18.926 229.661L28.0974 220.389L34.7574 227.124L30.6538 231.278L27.8732 228.471L26.4605 229.908L30.295 233.793L36.641 227.371L27.8732 218.525V218.121C27.8732 211.251 27.8059 49.4617 29.7568 32.3309L29.8465 31.6124L30.5417 31.4777C35.6992 30.4674 47.0906 29.008 72.0263 27.818C95.3698 26.7179 125.53 26.1117 156.969 26.1117C188.407 26.1117 218.568 26.7179 241.911 27.818C266.847 29.008 278.238 30.4674 283.396 31.4777L284.091 31.6124L284.181 32.3309C286.513 52.8744 287.298 122.341 286.244 218.166V218.548L277.902 227.349L284.27 233.77L288.105 229.886L286.692 228.449L283.912 231.256L279.808 227.102L286.468 220.366L295.617 229.617L286.244 239.518C285.055 347.894 282.409 405.73 280.481 422.344L280.414 422.996L279.786 423.175C275.817 424.32 265.255 426.498 239.086 428.227C216.46 429.731 187.309 430.539 156.969 430.539L156.946 430.562ZM35.2731 421.491C39.601 422.659 50.2525 424.657 74.9638 426.296C97.5449 427.8 126.674 428.609 156.969 428.609C187.264 428.609 216.393 427.778 238.974 426.296C263.685 424.657 274.314 422.659 278.664 421.491C280.57 404.069 283.172 346.3 284.338 239.136V238.755L292.949 229.684L286.49 223.173L282.566 227.147L283.934 228.539L286.715 225.732L290.863 229.931L284.293 236.577L275.234 227.416L284.338 217.784C285.369 123.329 284.629 54.5808 282.364 33.2963C277.723 32.4431 266.645 30.9837 241.844 29.8162C218.523 28.7161 188.385 28.1099 156.991 28.1099C125.597 28.1099 95.437 28.7161 72.1384 29.8162C47.3597 30.9837 36.2822 32.4431 31.6404 33.2963C29.8241 53.2786 29.8465 208.646 29.8465 217.739L39.3992 227.416L30.3174 236.599L23.7471 229.953L27.8956 225.755L30.6762 228.561L32.0441 227.169L28.1199 223.195L21.6841 229.706L29.6671 237.812V238.216C30.7883 339.542 33.2774 402.991 35.318 421.559L35.2731 421.491Z" fill="url(#paint19_linear_2_1222)"/>
</g>
<g style="mix-blend-mode:multiply" opacity="0.48">
<path d="M284.27 236.532L290.841 229.886L286.692 225.71L285.975 226.428L289.406 229.864L283.53 235.791L284.27 236.532Z" fill="url(#paint20_linear_2_1222)"/>
<path d="M283.912 231.278L285.997 229.167L285.302 228.471L283.217 230.56L283.912 231.278Z" fill="url(#paint21_linear_2_1222)"/>
<path d="M28.5683 226.428L27.8507 225.71L23.7023 229.886L30.2725 236.532L31.0125 235.791L25.1598 229.864L28.5683 226.428Z" fill="url(#paint22_linear_2_1222)"/>
<path d="M27.8731 218.503L36.641 227.349L31.0125 233.052L31.6628 233.703L37.9416 227.349L29.2634 218.593V218.188C29.2634 211.385 29.1962 51.3477 31.1246 34.3965L31.2143 33.7004L31.5731 33.6331C31.5731 33.4984 31.5955 33.3637 31.618 33.229C36.2598 32.3758 47.3373 30.9164 72.1159 29.7489C95.437 28.6487 125.575 28.0425 156.969 28.0425C188.363 28.0425 218.523 28.6487 241.822 29.7489C266.6 30.9164 277.7 32.3982 282.342 33.229C282.342 33.3637 282.364 33.4984 282.387 33.6331L282.746 33.7004L282.835 34.3965C285.145 54.7155 285.907 123.441 284.876 218.233V218.615L276.624 227.326L282.925 233.68L283.575 233.029L277.924 227.326L286.244 218.525V218.144C287.298 122.318 286.513 52.852 284.181 32.3084L284.091 31.59L283.396 31.4552C278.238 30.4449 266.847 28.9855 241.911 27.7956C218.568 26.6954 188.407 26.0892 156.969 26.0892C125.53 26.0892 95.3697 26.6954 72.0262 27.7956C47.0906 28.9855 35.6992 30.4449 30.5416 31.4552L29.8465 31.59L29.7568 32.3084C27.8059 49.4393 27.8731 211.228 27.8731 218.099V218.503Z" fill="url(#paint23_linear_2_1222)"/>
<path d="M281.176 227.124L282.544 228.516L283.239 227.82L282.544 227.124L285.728 223.891L285.055 223.218L281.176 227.124Z" fill="url(#paint24_linear_2_1222)"/>
<path d="M29.2635 228.471L28.5459 229.167L30.6313 231.278L31.3265 230.56L29.2635 228.471Z" fill="url(#paint25_linear_2_1222)"/>
<path d="M286.468 220.389L285.728 221.13L294.137 229.617L284.853 239.406C283.687 346.614 281.064 403.822 279.158 420.256L279.09 420.908L278.687 421.02C278.687 421.177 278.664 421.334 278.642 421.491C274.314 422.659 263.663 424.657 238.951 426.296C216.37 427.8 187.241 428.609 156.946 428.609C126.651 428.609 97.5224 427.778 74.9414 426.296C50.23 424.657 39.601 422.659 35.2507 421.491C35.2507 421.357 35.2283 421.177 35.2058 421.02L34.8246 420.908L34.7573 420.256C32.8961 404.024 30.295 346.659 29.1065 238.44L20.4059 229.617L28.815 221.107L28.075 220.366L18.9035 229.639L27.6938 238.552C28.9047 347.939 31.5283 405.932 33.4119 422.344L33.4792 422.996L34.107 423.175C38.0761 424.32 48.6379 426.498 74.8068 428.227C97.4327 429.731 126.584 430.539 156.924 430.539C187.264 430.539 216.415 429.709 239.041 428.227C265.21 426.498 275.772 424.32 279.741 423.175L280.369 422.996L280.436 422.344C282.342 405.73 285.01 347.894 286.199 239.518L295.572 229.617L286.423 220.366L286.468 220.389Z" fill="url(#paint26_linear_2_1222)"/>
<path d="M32.0216 227.124L31.3264 227.82L31.9992 228.516L33.367 227.124L29.4877 223.218L28.8149 223.891L32.0216 227.124Z" fill="url(#paint27_linear_2_1222)"/>
</g>
<path d="M15.8314 24.6972C16.1678 22.4071 16.549 20.9702 16.9527 20.5436C17.872 19.5557 21.0338 18.6352 25.9671 17.8269C25.9671 17.8269 11.4587 9.22777 10.5842 6.1743C7.33271 6.84786 5.22484 7.58878 4.46242 8.3746C3.83455 9.0257 3.27395 11.7873 2.80304 16.3226C2.80304 16.3226 11.5036 13.8304 15.8314 24.6972Z" fill="white"/>
<path d="M17.7151 24.0461C16.0781 23.0133 15.2933 10.9117 15.2933 10.9117C15.2933 10.9117 14.7999 23.0357 13.163 24.0461C11.1224 25.3258 1.39032 26.6056 1.39032 26.6056C1.39032 26.6056 13.2527 26.4934 13.8581 27.571C14.8224 29.2998 15.2933 41.7607 15.2933 41.7607C15.2933 41.7607 16.392 28.9406 17.3563 27.2118C17.9617 26.1566 29.5998 26.2464 29.5998 26.2464C29.5998 26.2464 19.7557 25.3483 17.7151 24.0685V24.0461Z" fill="white"/>
<path d="M17.4684 26.2913C17.132 24.8319 23.3211 17.782 23.3211 17.782C23.3211 17.782 16.4369 24.1359 14.9793 23.7991C13.163 23.3725 7.15331 18.7474 7.15331 18.7474C7.15331 18.7474 13.7012 25.1911 13.4545 26.1117C13.0509 27.5935 6.48059 34.6659 6.48059 34.6659C6.48059 34.6659 14.0824 28.2446 15.5624 27.8405C16.4817 27.5935 22.7829 34.0148 22.7829 34.0148C22.7829 34.0148 17.8945 28.1324 17.4684 26.3137V26.2913Z" fill="white"/>
<path d="M20.5853 363.655C19.509 362.061 23.7247 350.655 23.7247 350.655C23.7247 350.655 18.3429 361.522 16.4369 361.791C14.0375 362.128 5.04541 358.401 5.04541 358.401C5.04541 358.401 15.5175 364.059 15.652 365.271C15.8314 367.247 11.1896 378.81 11.1896 378.81C11.1896 378.81 17.4011 367.539 18.9932 366.372C19.9799 365.653 31.1471 370.099 31.1471 370.099C31.1471 370.099 21.9532 365.631 20.5853 363.632V363.655Z" fill="white"/>
<defs>
<linearGradient id="paint0_linear_2_1222" x1="104.048" y1="-5.52363" x2="213.826" y2="470.556" gradientUnits="userSpaceOnUse">
<stop stop-color="#FFC206"/>
<stop offset="1" stop-color="#EB7C00"/>
</linearGradient>
<linearGradient id="paint1_linear_2_1222" x1="198.521" y1="401.24" x2="113.783" y2="43.4693" gradientUnits="userSpaceOnUse">
<stop stop-color="#F19500"/>
<stop offset="0.18" stop-color="#F29B0A"/>
<stop offset="0.51" stop-color="#F6AB27"/>
<stop offset="0.93" stop-color="#FDC556"/>
<stop offset="1" stop-color="#FFCA5F"/>
</linearGradient>
<linearGradient id="paint2_linear_2_1222" x1="217.11" y1="39.3583" x2="49.5994" y2="391.244" gradientUnits="userSpaceOnUse">
<stop stop-color="#FFDB6D"/>
<stop offset="1" stop-color="white"/>
</linearGradient>
<linearGradient id="paint3_linear_2_1222" x1="81.1529" y1="-145.444" x2="196.755" y2="418.202" gradientUnits="userSpaceOnUse">
<stop stop-color="#FFC345"/>
<stop offset="1" stop-color="#F6DB61"/>
</linearGradient>
<linearGradient id="paint4_linear_2_1222" x1="315.888" y1="334.512" x2="252.354" y2="445.38" gradientUnits="userSpaceOnUse">
<stop stop-color="#FFDB6D"/>
<stop offset="1" stop-color="white"/>
</linearGradient>
<linearGradient id="paint5_linear_2_1222" x1="85.9292" y1="-11.922" x2="16.0137" y2="79.0593" gradientUnits="userSpaceOnUse">
<stop stop-color="#FFDB6D"/>
<stop offset="1" stop-color="white"/>
</linearGradient>
<linearGradient id="paint6_linear_2_1222" x1="96.9843" y1="-78.7392" x2="202.292" y2="434.754" gradientUnits="userSpaceOnUse">
<stop stop-color="#FFC345"/>
<stop offset="1" stop-color="#F6DB61"/>
</linearGradient>
<linearGradient id="paint7_linear_2_1222" x1="-57.0469" y1="-115.785" x2="46.3278" y2="388.279" gradientUnits="userSpaceOnUse">
<stop stop-color="#FFC345"/>
<stop offset="1" stop-color="#F6DB61"/>
</linearGradient>
<linearGradient id="paint8_linear_2_1222" x1="124.97" y1="-158.444" x2="232.368" y2="365.309" gradientUnits="userSpaceOnUse">
<stop stop-color="#FFC345"/>
<stop offset="1" stop-color="#F6DB61"/>
</linearGradient>
<linearGradient id="paint9_linear_2_1222" x1="236.933" y1="-106.041" x2="341.14" y2="402.132" gradientUnits="userSpaceOnUse">
<stop stop-color="#FFC345"/>
<stop offset="1" stop-color="#F6DB61"/>
</linearGradient>
<linearGradient id="paint10_linear_2_1222" x1="44.5119" y1="-67.2885" x2="149.685" y2="445.508" gradientUnits="userSpaceOnUse">
<stop stop-color="#FFC345"/>
<stop offset="1" stop-color="#F6DB61"/>
</linearGradient>
<linearGradient id="paint11_linear_2_1222" x1="109.273" y1="-155.233" x2="216.671" y2="368.542" gradientUnits="userSpaceOnUse">
<stop stop-color="#FFC345"/>
<stop offset="1" stop-color="#F6DB61"/>
</linearGradient>
<linearGradient id="paint12_linear_2_1222" x1="-40.61" y1="-119.153" x2="62.7647" y2="384.911" gradientUnits="userSpaceOnUse">
<stop stop-color="#FFC345"/>
<stop offset="1" stop-color="#F6DB61"/>
</linearGradient>
<linearGradient id="paint13_linear_2_1222" x1="-72.2953" y1="-112.642" x2="31.0794" y2="391.4" gradientUnits="userSpaceOnUse">
<stop stop-color="#FFC345"/>
<stop offset="1" stop-color="#F6DB61"/>
</linearGradient>
<linearGradient id="paint14_linear_2_1222" x1="-94.54" y1="-108.106" x2="8.83468" y2="395.98" gradientUnits="userSpaceOnUse">
<stop stop-color="#FFC345"/>
<stop offset="1" stop-color="#F6DB61"/>
</linearGradient>
<linearGradient id="paint15_linear_2_1222" x1="228.098" y1="-104.222" x2="332.304" y2="403.95" gradientUnits="userSpaceOnUse">
<stop stop-color="#FFC345"/>
<stop offset="1" stop-color="#F6DB61"/>
</linearGradient>
<linearGradient id="paint16_linear_2_1222" x1="76.1971" y1="-73.7999" x2="181.348" y2="438.997" gradientUnits="userSpaceOnUse">
<stop stop-color="#FFC345"/>
<stop offset="1" stop-color="#F6DB61"/>
</linearGradient>
<linearGradient id="paint17_linear_2_1222" x1="114.789" y1="-152.337" x2="230.392" y2="411.309" gradientUnits="userSpaceOnUse">
<stop stop-color="#FFDB6D"/>
<stop offset="1" stop-color="white"/>
</linearGradient>
<linearGradient id="paint18_linear_2_1222" x1="51.6652" y1="-139.404" x2="167.268" y2="424.264" gradientUnits="userSpaceOnUse">
<stop stop-color="#FFDB6D"/>
<stop offset="1" stop-color="white"/>
</linearGradient>
<linearGradient id="paint19_linear_2_1222" x1="165.938" y1="457.908" x2="152.046" y2="92.8852" gradientUnits="userSpaceOnUse">
<stop stop-color="#DE9103"/>
<stop offset="1" stop-color="#B55100"/>
</linearGradient>
<linearGradient id="paint20_linear_2_1222" x1="287.746" y1="377.957" x2="286.78" y2="126.023" gradientUnits="userSpaceOnUse">
<stop stop-color="#DE9103"/>
<stop offset="1" stop-color="#B55100"/>
</linearGradient>
<linearGradient id="paint21_linear_2_1222" x1="285.167" y1="377.934" x2="284.223" y2="126.045" gradientUnits="userSpaceOnUse">
<stop stop-color="#DE9103"/>
<stop offset="1" stop-color="#B55100"/>
</linearGradient>
<linearGradient id="paint22_linear_2_1222" x1="27.918" y1="378.922" x2="26.9514" y2="126.988" gradientUnits="userSpaceOnUse">
<stop stop-color="#DE9103"/>
<stop offset="1" stop-color="#B55100"/>
</linearGradient>
<linearGradient id="paint23_linear_2_1222" x1="158.045" y1="378.451" x2="157.101" y2="126.495" gradientUnits="userSpaceOnUse">
<stop stop-color="#DE9103"/>
<stop offset="1" stop-color="#B55100"/>
</linearGradient>
<linearGradient id="paint24_linear_2_1222" x1="284.024" y1="377.957" x2="283.08" y2="126.023" gradientUnits="userSpaceOnUse">
<stop stop-color="#DE9103"/>
<stop offset="1" stop-color="#B55100"/>
</linearGradient>
<linearGradient id="paint25_linear_2_1222" x1="30.4968" y1="378.877" x2="29.5526" y2="126.988" gradientUnits="userSpaceOnUse">
<stop stop-color="#DE9103"/>
<stop offset="1" stop-color="#B55100"/>
</linearGradient>
<linearGradient id="paint26_linear_2_1222" x1="157.821" y1="378.428" x2="156.877" y2="126.495" gradientUnits="userSpaceOnUse">
<stop stop-color="#DE9103"/>
<stop offset="1" stop-color="#B55100"/>
</linearGradient>
<linearGradient id="paint27_linear_2_1222" x1="31.6628" y1="378.9" x2="30.7186" y2="126.966" gradientUnits="userSpaceOnUse">
<stop stop-color="#DE9103"/>
<stop offset="1" stop-color="#B55100"/>
</linearGradient>
</defs>
</svg>
