<svg width="245" height="38" viewBox="0 0 245 38" fill="none" xmlns="http://www.w3.org/2000/svg">
<path d="M225.351 37.4323H18.7909C8.49636 37.4323 0.074707 29.0107 0.074707 18.7286C0.074707 8.43405 8.49636 0.0124016 18.7909 0.0124016H225.351C235.645 0.0124016 244.067 8.43405 244.067 18.7286C244.067 29.0231 235.645 37.4323 225.351 37.4323Z" fill="url(#paint0_linear_2_2106)"/>
<g style="mix-blend-mode:screen" opacity="0.47">
<path d="M225.314 32.0618H19.5351C11.9444 32.0618 5.74292 25.8603 5.74292 18.2697C5.74292 10.679 11.9444 4.47749 19.5351 4.47749H225.314C232.904 4.47749 239.106 10.679 239.106 18.2697C239.106 25.8603 232.904 32.0618 225.314 32.0618Z" fill="url(#paint1_linear_2_2106)"/>
</g>
<g style="mix-blend-mode:screen" opacity="0.47">
<path d="M3.4979 17.5999C4.37851 16.6697 5.02347 15.3673 5.42037 14.5984C6.42501 12.6387 7.194 10.8526 8.89321 9.19064C12.0188 6.1519 16.6203 4.36586 21.3707 4.36586H212.34C217.376 4.36586 223.862 5.12245 225.983 0.223254C224.904 0.0744181 223.8 0 222.684 0H21.4575C14.5738 0.012403 7.98779 2.93952 4.00642 7.70228C2.07155 10.0216 0.781637 12.7255 0.297919 15.541C0.111873 16.6449 -0.644711 18.7286 1.32737 18.7286C2.15837 18.7286 2.87775 18.2448 3.4979 17.5999Z" fill="url(#paint2_linear_2_2106)"/>
</g>
<g style="mix-blend-mode:multiply" opacity="0.67">
<path d="M236.898 26.0215C235.658 27.882 234.008 29.4944 232.185 30.5734C229.431 32.1858 226.132 33.0665 222.783 33.0665H95.702C78.7471 33.0665 61.8542 33.2401 44.9116 33.2401H30.921C28.1303 33.2401 24.8932 32.7936 22.2017 33.699C20.7257 34.1951 19.0761 35.9316 21.0234 36.9858C22.3381 37.6928 24.3226 37.4323 25.7614 37.4323H222.697C228.092 37.4323 233.549 35.6711 237.704 32.1734C240.185 30.0897 242.169 27.113 242.988 23.9626C243.422 22.3254 243.819 19.2495 242.703 17.7983C240.358 14.7596 239.416 18.9518 239.118 20.6386C238.796 22.4991 238.002 24.3595 236.898 26.0091V26.0215Z" fill="url(#paint3_linear_2_2106)"/>
</g>
<g style="mix-blend-mode:screen" opacity="0.47">
<path d="M13.1971 14.1022C19.7831 10.9643 27.2622 9.14103 34.6544 7.93793C47.6527 5.81702 61.0852 5.50694 74.2696 5.01082C78.3254 4.86199 82.3688 4.68834 86.4122 4.46509H22.0033C13.0607 4.46509 5.74292 10.6666 5.74292 18.2573C5.74292 18.4805 5.74292 18.6914 5.76773 18.9146C7.87624 16.9549 10.4933 15.3797 13.1971 14.0898V14.1022Z" fill="url(#paint4_linear_2_2106)"/>
</g>
<g style="mix-blend-mode:screen" opacity="0.47">
<path d="M140.75 21.6805C151.019 13.9038 163.943 8.75654 176.967 5.25888C177.984 4.98602 179.013 4.72555 180.043 4.47749H141.382C140.068 5.95345 138.592 7.33019 137.016 8.6077C126.759 16.9301 113.413 22.3006 100.117 26.1208C92.1175 28.4153 83.9687 30.2014 75.6711 31.5161C74.4928 31.7021 73.3145 31.8882 72.1362 32.0618H133.196C133.296 28.068 137.463 24.1735 140.75 21.6805Z" fill="url(#paint5_linear_2_2106)"/>
</g>
<g style="mix-blend-mode:screen" opacity="0.47">
<path d="M223.689 4.50229C226.145 7.34258 227.124 11.0511 226.74 14.5859C225.897 22.4743 218.48 28.3905 210.641 32.0618H222.858C231.8 32.0618 239.118 25.8603 239.118 18.2696C239.118 10.679 232.247 4.86198 223.689 4.50229Z" fill="url(#paint6_linear_2_2106)"/>
</g>
<path d="M223.949 30.0773H20.9119C14.4251 30.0773 9.11658 24.7688 9.11658 18.2821C9.11658 11.7953 14.4251 6.48678 20.9119 6.48678H223.949C230.436 6.48678 235.745 11.7953 235.745 18.2821C235.745 24.7688 230.436 30.0773 223.949 30.0773Z" fill="url(#paint7_linear_2_2106)"/>
<g style="mix-blend-mode:multiply">
<path d="M18.3195 23.4541C22.3504 21.0479 27.2496 19.6712 31.9504 18.5425C43.4728 15.7642 55.5285 14.5115 67.4354 13.5441C79.6772 12.5643 92.0058 11.8945 104.285 11.51C129.277 10.741 154.368 11.4232 179.249 13.5813C191.639 14.6604 204.042 15.9255 216.259 17.972C222.647 19.0386 228.985 20.341 234.851 22.5611C235.434 21.2836 235.744 19.8944 235.744 18.4433V18.096C235.744 11.696 229.58 6.46197 222.039 6.46197H22.8093C15.2683 6.46197 9.104 11.696 9.104 18.096V18.4433C9.104 22.0278 11.0389 25.2402 14.0528 27.3735C14.983 25.7983 16.5954 24.4836 18.307 23.4541H18.3195Z" fill="url(#paint8_linear_2_2106)"/>
</g>
<path d="M222.858 4.47749H22.0033C13.0607 4.47749 5.74292 10.679 5.74292 18.2697C5.74292 18.3813 5.74292 18.4929 5.74292 18.5921C5.95377 11.1503 13.1723 5.12245 21.9909 5.12245H222.845C231.652 5.12245 238.883 11.1503 239.093 18.5921C239.093 18.4805 239.093 18.3689 239.093 18.2697C239.093 10.679 231.776 4.47749 222.833 4.47749H222.858Z" fill="white"/>
<g style="mix-blend-mode:screen" opacity="0.65">
<path d="M16.2732 1.78603C13.3833 2.4682 10.7538 3.78292 8.53367 6.27593C5.90423 9.22785 4.27944 12.9984 4.92439 16.5952C5.99105 9.40149 12.974 3.80773 21.3584 3.80773H216.21C209.599 2.15813 202.715 1.41394 195.795 1.09147H29.2343C24.7072 1.09147 20.2421 0.843405 16.2732 1.78603Z" fill="url(#paint9_linear_2_2106)"/>
</g>
<defs>
<linearGradient id="paint0_linear_2_2106" x1="119.305" y1="-0.458913" x2="126.139" y2="46.8958" gradientUnits="userSpaceOnUse">
<stop stop-color="#FFC206"/>
<stop offset="1" stop-color="#EB7C00"/>
</linearGradient>
<linearGradient id="paint1_linear_2_2106" x1="126.759" y1="-13.0604" x2="120.843" y2="29.7301" gradientUnits="userSpaceOnUse">
<stop stop-color="#FFC345"/>
<stop offset="1" stop-color="#F6DB61"/>
</linearGradient>
<linearGradient id="paint2_linear_2_2106" x1="111.962" y1="3.89455" x2="123.125" y2="58.381" gradientUnits="userSpaceOnUse">
<stop stop-color="#FFC345"/>
<stop offset="1" stop-color="#F6DB61"/>
</linearGradient>
<linearGradient id="paint3_linear_2_2106" x1="125.618" y1="-2.18294" x2="136.744" y2="52.1423" gradientUnits="userSpaceOnUse">
<stop stop-color="#FFC345"/>
<stop offset="1" stop-color="#F6DB61"/>
</linearGradient>
<linearGradient id="paint4_linear_2_2106" x1="47.5163" y1="18.7038" x2="57.1783" y2="65.8477" gradientUnits="userSpaceOnUse">
<stop stop-color="#FFC345"/>
<stop offset="1" stop-color="#F6DB61"/>
</linearGradient>
<linearGradient id="paint5_linear_2_2106" x1="123.286" y1="4.58912" x2="131.671" y2="45.5067" gradientUnits="userSpaceOnUse">
<stop stop-color="#FFC345"/>
<stop offset="1" stop-color="#F6DB61"/>
</linearGradient>
<linearGradient id="paint6_linear_2_2106" x1="217.339" y1="-12.217" x2="225.835" y2="29.2463" gradientUnits="userSpaceOnUse">
<stop stop-color="#FFC345"/>
<stop offset="1" stop-color="#F6DB61"/>
</linearGradient>
<linearGradient id="paint7_linear_2_2106" x1="130.654" y1="64.012" x2="122.294" y2="17.5379" gradientUnits="userSpaceOnUse">
<stop stop-color="#DE9103"/>
<stop offset="1" stop-color="#B55100"/>
</linearGradient>
<linearGradient id="paint8_linear_2_2106" x1="125.568" y1="38.2633" x2="119.206" y2="-2.26976" gradientUnits="userSpaceOnUse">
<stop stop-color="#FFC345"/>
<stop offset="1" stop-color="#F6DB61"/>
</linearGradient>
<linearGradient id="paint9_linear_2_2106" x1="109.37" y1="4.34106" x2="120.57" y2="59.0136" gradientUnits="userSpaceOnUse">
<stop stop-color="#FFC345"/>
<stop offset="1" stop-color="#F6DB61"/>
</linearGradient>
</defs>
</svg>
