<svg width="157" height="48" viewBox="0 0 157 48" fill="none" xmlns="http://www.w3.org/2000/svg">
<path d="M150.22 0H6.01C2.69077 0 0 2.69077 0 6.01V41.75C0 45.0692 2.69077 47.76 6.01 47.76H150.22C153.539 47.76 156.23 45.0692 156.23 41.75V6.01C156.23 2.69077 153.539 0 150.22 0Z" fill="url(#paint0_linear_2_243)"/>
<g style="mix-blend-mode:screen" opacity="0.47">
<g style="mix-blend-mode:screen" opacity="0.47">
<path d="M7.69 3.01H148.54C150.6 3.01 152.28 4.68 152.28 6.75V41.02C152.28 43.08 150.61 44.76 148.54 44.76H7.69C5.63 44.76 3.95 43.09 3.95 41.02V6.74C3.95 4.68 5.62 3 7.69 3V3.01Z" fill="url(#paint1_linear_2_243)"/>
</g>
</g>
<g style="mix-blend-mode:multiply" opacity="0.67">
<path d="M152.75 9.38999C152.48 10.67 152.22 37.79 153.02 39.4C153.82 41 155.08 42.55 155.65 42.15C155.65 42.15 155.88 7.55999 155.54 6.64999C155.2 5.72999 153 8.23999 152.75 9.39999V9.38999Z" fill="url(#paint2_linear_2_243)"/>
</g>
<g style="mix-blend-mode:screen" opacity="0.84">
<path d="M148.54 3.01001H7.69C5.63 3.01001 3.95 4.68001 3.95 6.75001V7.89001C3.95 5.83001 5.62 4.15001 7.69 4.15001H148.54C150.6 4.15001 152.28 5.82001 152.28 7.89001V6.75001C152.28 4.69001 150.61 3.01001 148.54 3.01001Z" fill="url(#paint3_linear_2_243)"/>
</g>
<g style="mix-blend-mode:screen" opacity="0.41">
<path d="M6.01 0.230011C5.32 1.78001 8.42 2.35001 9.19 2.35001H147.55C147.55 2.35001 151.33 0.940011 150.21 0.230011H6.01Z" fill="url(#paint4_linear_2_243)"/>
</g>
<g style="mix-blend-mode:multiply" opacity="0.67">
<path d="M7.22 47.76C6.02 47.76 6.88 45.61 8.77 45.18C10.66 44.75 146.45 45.18 147.48 45.18C148.51 45.18 151.26 46.64 149.63 47.76H7.22Z" fill="url(#paint5_linear_2_243)"/>
</g>
<g style="mix-blend-mode:screen" opacity="0.41">
<path d="M0.229996 7.10001C0.449996 5.96001 3.12 7.33001 3.34 9.62001C3.56 11.91 3.34 39.74 3.34 39.74C3.34 39.74 1.23 43.53 0.229996 42.21V7.10001Z" fill="url(#paint6_linear_2_243)"/>
</g>
<path d="M8.78 3.01001H144.44C144.44 3.01001 12.14 4.81001 8.78 3.01001Z" fill="white"/>
<path d="M3.95 10.65V39.05C3.95 39.05 5.7 13.89 3.95 10.65Z" fill="white"/>
<g style="mix-blend-mode:screen" opacity="0.47">
<path d="M0.229996 5.14999C1.83 4.68999 3.09 5.08999 3.44 6.06999C3.44 6.06999 3.96 3.03999 6.77 2.68999C6.77 2.68999 4.51 1.49999 4.73 0.299988C4.73 0.299988 0.579996 1.28999 0.229996 5.14999Z" fill="url(#paint7_linear_2_243)"/>
</g>
<g style="mix-blend-mode:screen" opacity="0.6">
<path d="M48.11 2.92L44.73 0H18.73C18.73 0 26.4 1.29 24.4 2.92H48.11Z" fill="url(#paint8_linear_2_243)"/>
</g>
<g style="mix-blend-mode:multiply" opacity="0.67">
<path d="M149.1 45.74C147.01 45.69 144.91 45.64 142.82 45.6C121.55 45.19 89.38 45.24 68.11 45.56C52.95 45.78 37.78 46.14 22.73 47.75H149.61C150.6 47.07 149.97 46.26 149.1 45.74Z" fill="url(#paint9_linear_2_243)"/>
</g>
<g style="mix-blend-mode:multiply" opacity="0.67">
<path d="M155.72 29.2C155.72 26.22 155.74 23.04 155.73 20.03C154.98 22.05 153.96 24.1 152.49 25.66C152.49 28.08 152.52 30.46 152.56 32.55C153.49 31.32 154.55 30.19 155.72 29.19V29.2Z" fill="url(#paint10_linear_2_243)"/>
</g>
<g style="mix-blend-mode:screen" opacity="0.6">
<path d="M61.44 0.310011C60.57 0.280011 59.7 0.250011 58.83 0.230011H39.92C31.16 0.490011 22.41 1.15001 13.72 2.35001H92.81C82.38 1.34001 71.91 0.660011 61.44 0.310011Z" fill="url(#paint11_linear_2_243)"/>
</g>
<path d="M29.28 3C29.28 3 32.71 0.91 25.19 0H37.64C37.64 0 38.32 2.61 33.42 3.19L29.28 3Z" fill="white"/>
<g style="mix-blend-mode:screen" opacity="0.47">
<g style="mix-blend-mode:screen" opacity="0.47">
<path d="M32.6 3.01001H7.69C5.63 3.01001 3.95 4.68001 3.95 6.75001V31.63C9.76 22.62 15.55 15.5 23.31 8.85001C27.97 4.85001 32.42 3.07001 32.6 3.02001V3.01001Z" fill="url(#paint12_linear_2_243)"/>
<path d="M39.53 35.94C50.68 24.78 65.3 8.17001 75.3 3.01001H40.56C40.64 2.84001 40.2 6.18001 37.53 9.51001C28.07 21.32 8.21 37.94 3.95 39.56V41.02C3.95 43.08 5.62 44.76 7.69 44.76H33.55C33.53 42.61 36.77 38.71 39.53 35.95V35.94Z" fill="url(#paint13_linear_2_243)"/>
<path d="M149.24 13.47C143.99 20.05 138.08 26.11 131.74 31.64C126.23 36.45 120.37 40.92 114.13 44.75H148.55C150.61 44.75 152.29 43.08 152.29 41.01V9.51001C151.3 10.85 150.29 12.17 149.25 13.47H149.24Z" fill="url(#paint14_linear_2_243)"/>
<path d="M84.18 28.16L110.98 3.01001H92.12C93.5 4.18001 85.59 11.64 80.62 16.62C71.72 25.54 58.41 41.06 50.53 44.76H69.23C69.95 42.17 78.26 34.08 84.17 28.17L84.18 28.16Z" fill="url(#paint15_linear_2_243)"/>
</g>
</g>
<defs>
<linearGradient id="paint0_linear_2_243" x1="75.58" y1="-2.7" x2="80.72" y2="51.28" gradientUnits="userSpaceOnUse">
<stop stop-color="#FFC206"/>
<stop offset="1" stop-color="#EB7C00"/>
</linearGradient>
<linearGradient id="paint1_linear_2_243" x1="84.77" y1="52.95" x2="73.92" y2="5.54" gradientUnits="userSpaceOnUse">
<stop stop-color="#F19500"/>
<stop offset="0.18" stop-color="#F29B0A"/>
<stop offset="0.51" stop-color="#F6AB27"/>
<stop offset="0.93" stop-color="#FDC556"/>
<stop offset="1" stop-color="#FFCA5F"/>
</linearGradient>
<linearGradient id="paint2_linear_2_243" x1="154.11" y1="6.43999" x2="154.11" y2="48.07" gradientUnits="userSpaceOnUse">
<stop stop-color="#FFC345"/>
<stop offset="1" stop-color="#F6DB61"/>
</linearGradient>
<linearGradient id="paint3_linear_2_243" x1="78.11" y1="3.01001" x2="78.11" y2="8.68001" gradientUnits="userSpaceOnUse">
<stop stop-color="#FFC345"/>
<stop offset="1" stop-color="#F6DB61"/>
</linearGradient>
<linearGradient id="paint4_linear_2_243" x1="78.17" y1="0.230011" x2="78.17" y2="2.70001" gradientUnits="userSpaceOnUse">
<stop stop-color="#FFC345"/>
<stop offset="1" stop-color="#F6DB61"/>
</linearGradient>
<linearGradient id="paint5_linear_2_243" x1="78.39" y1="44.99" x2="78.39" y2="48.21" gradientUnits="userSpaceOnUse">
<stop stop-color="#FFC345"/>
<stop offset="1" stop-color="#F6DB61"/>
</linearGradient>
<linearGradient id="paint6_linear_2_243" x1="1.83" y1="6.69001" x2="1.83" y2="48.36" gradientUnits="userSpaceOnUse">
<stop stop-color="#FFC345"/>
<stop offset="1" stop-color="#F6DB61"/>
</linearGradient>
<linearGradient id="paint7_linear_2_243" x1="3.5" y1="0.299988" x2="3.5" y2="7.00999" gradientUnits="userSpaceOnUse">
<stop stop-color="#FFC345"/>
<stop offset="1" stop-color="#F6DB61"/>
</linearGradient>
<linearGradient id="paint8_linear_2_243" x1="33.42" y1="0" x2="33.42" y2="3.4" gradientUnits="userSpaceOnUse">
<stop stop-color="#FFEB70"/>
<stop offset="1" stop-color="#FFD679"/>
</linearGradient>
<linearGradient id="paint9_linear_2_243" x1="86.43" y1="44.99" x2="86.43" y2="48.21" gradientUnits="userSpaceOnUse">
<stop stop-color="#FFC345"/>
<stop offset="1" stop-color="#F6DB61"/>
</linearGradient>
<linearGradient id="paint10_linear_2_243" x1="154.11" y1="6.44" x2="154.11" y2="48.07" gradientUnits="userSpaceOnUse">
<stop stop-color="#FFC345"/>
<stop offset="1" stop-color="#F6DB61"/>
</linearGradient>
<linearGradient id="paint11_linear_2_243" x1="53.26" y1="0.230011" x2="53.26" y2="2.70001" gradientUnits="userSpaceOnUse">
<stop stop-color="#FFEB70"/>
<stop offset="1" stop-color="#FFD679"/>
</linearGradient>
<linearGradient id="paint12_linear_2_243" x1="29.34" y1="65.64" x2="18.48" y2="18.23" gradientUnits="userSpaceOnUse">
<stop stop-color="#F19500"/>
<stop offset="0.18" stop-color="#F29B0A"/>
<stop offset="0.51" stop-color="#F6AB27"/>
<stop offset="0.93" stop-color="#FDC556"/>
<stop offset="1" stop-color="#FFCA5F"/>
</linearGradient>
<linearGradient id="paint13_linear_2_243" x1="48.56" y1="61.24" x2="37.7" y2="13.82" gradientUnits="userSpaceOnUse">
<stop stop-color="#F19500"/>
<stop offset="0.18" stop-color="#F29B0A"/>
<stop offset="0.51" stop-color="#F6AB27"/>
<stop offset="0.93" stop-color="#FDC556"/>
<stop offset="1" stop-color="#FFCA5F"/>
</linearGradient>
<linearGradient id="paint14_linear_2_243" x1="136.41" y1="41.13" x2="125.55" y2="-6.28999" gradientUnits="userSpaceOnUse">
<stop stop-color="#F19500"/>
<stop offset="0.18" stop-color="#F29B0A"/>
<stop offset="0.51" stop-color="#F6AB27"/>
<stop offset="0.93" stop-color="#FDC556"/>
<stop offset="1" stop-color="#FFCA5F"/>
</linearGradient>
<linearGradient id="paint15_linear_2_243" x1="86.87" y1="50.57" x2="76.02" y2="3.16001" gradientUnits="userSpaceOnUse">
<stop stop-color="#F19500"/>
<stop offset="0.18" stop-color="#F29B0A"/>
<stop offset="0.51" stop-color="#F6AB27"/>
<stop offset="0.93" stop-color="#FDC556"/>
<stop offset="1" stop-color="#FFCA5F"/>
</linearGradient>
</defs>
</svg>
