<svg width="335" height="260" viewBox="0 0 335 260" fill="none" xmlns="http://www.w3.org/2000/svg">
<path d="M15.2691 0H319.642C328.054 0 334.911 7.59482 334.911 16.9657V243.034C334.911 252.405 328.075 260 319.642 260H15.2691C6.83534 259.977 0 252.382 0 243.011V16.9657C0 7.59482 6.83534 0 15.2691 0Z" fill="url(#paint0_linear_2_2496)"/>
<g style="mix-blend-mode:screen" opacity="0.47">
<path d="M25.2171 11.7778H309.651C317.412 11.7778 323.722 18.7884 323.722 27.4114V232.565C323.722 241.188 317.433 248.175 309.672 248.175H25.2171C17.4564 248.175 11.1678 241.188 11.1678 232.565V27.4114C11.1678 18.7884 17.4774 11.7778 25.2381 11.7778H25.2171Z" fill="url(#paint1_linear_2_2496)"/>
</g>
<g style="mix-blend-mode:screen" opacity="0.25">
<path d="M136.623 248.199H309.651C317.391 248.199 323.701 241.165 323.701 232.565V55.3838C319.663 66.2502 199.886 237.589 136.602 248.199H136.623Z" fill="url(#paint2_linear_2_2496)"/>
</g>
<g style="mix-blend-mode:screen" opacity="0.41">
<path d="M108.692 11.7778H25.2171C17.4774 11.7778 11.1678 18.8117 11.1678 27.3881V120.138L108.692 11.7778Z" fill="url(#paint3_linear_2_2496)"/>
</g>
<g style="mix-blend-mode:screen" opacity="0.41">
<path d="M250.11 248.199H309.651C317.391 248.199 323.701 241.165 323.701 232.565V176.036C299.703 200.76 275.075 224.69 250.089 248.175L250.11 248.199Z" fill="url(#paint4_linear_2_2496)"/>
</g>
<g style="mix-blend-mode:screen" opacity="0.47">
<path d="M38.9509 23.1817C43.4938 19.1389 48.289 15.3064 53.2736 11.7778H25.2382C17.4984 11.7778 11.1889 18.8117 11.1889 27.3881V58.1646C17.9401 44.4706 28.1405 32.7862 38.9719 23.1583L38.9509 23.1817Z" fill="url(#paint5_linear_2_2496)"/>
</g>
<g style="mix-blend-mode:screen" opacity="0.25">
<path d="M184.533 11.7778C184.533 11.7778 37.4366 173.746 11.1678 162.973V232.565C11.1678 241.165 17.4984 248.199 25.2171 248.199H89.0907C84.2955 232.331 259.196 32.833 272.888 24.4903C281.679 19.1389 290.975 14.8624 300.608 11.8011H184.512L184.533 11.7778Z" fill="url(#paint6_linear_2_2496)"/>
</g>
<g style="mix-blend-mode:screen" opacity="0.47">
<path d="M8.93852 234.037V25.9392C8.93852 17.2227 15.3532 10.0953 23.1981 10.0953H310.514C312.554 8.78663 314.447 7.17419 315.961 5.09437C317.118 3.52867 317.98 1.82276 318.653 0H15.2691C6.85637 0 0 7.64156 0 16.9657V240.955C3.44922 240.768 6.4778 238.431 8.98059 235.159C8.95955 234.785 8.93852 234.411 8.93852 234.037Z" fill="url(#paint7_linear_2_2496)"/>
</g>
<g style="mix-blend-mode:multiply" opacity="0.46">
<path d="M327.486 29.4213C326.561 32.0152 326.056 34.7727 325.951 37.3666C325.089 60.0342 325.951 82.9589 325.951 105.627V234.014C325.951 242.731 319.536 249.858 311.692 249.858H45.9335C42.7157 249.858 39.4137 250.115 36.2168 249.858C28.0985 249.204 22.3569 251.12 18.487 259.72C18.4449 259.79 18.4239 259.883 18.3818 259.953H319.642C328.033 259.953 334.911 252.312 334.911 242.988V51.528C334.911 40.8719 334.385 29.9587 334.953 19.3494C331.525 21.4058 329.001 25.2149 327.508 29.4213H327.486Z" fill="url(#paint8_linear_2_2496)"/>
</g>
<g style="mix-blend-mode:multiply" opacity="0.87">
<path d="M334.89 240.137V19.3726C327.087 24.1398 325.951 34.9361 325.951 43.9564V157.832C325.951 172.858 326.351 187.908 326.498 202.934C326.582 210.061 325.383 218.497 326.498 225.484C326.919 228.078 328.454 230.859 329.695 233.079C330.431 234.388 334.869 239.015 334.869 240.113L334.89 240.137Z" fill="url(#paint9_linear_2_2496)"/>
</g>
<g style="mix-blend-mode:multiply" opacity="0.87">
<path d="M317.644 258.014C312.68 252.826 307.317 249.578 300.545 249.881C286.18 250.489 271.689 249.881 257.324 249.881H50.3922C39.645 249.881 24.2918 246.843 18.4659 259.743C18.4239 259.813 18.4028 259.907 18.3608 259.977H319.305C318.779 259.299 318.232 258.645 317.623 258.014H317.644Z" fill="url(#paint10_linear_2_2496)"/>
</g>
<g style="mix-blend-mode:screen" opacity="0.47">
<path d="M7.08772 32.2488C5.59446 27.6919 3.32303 23.579 0 20.658V240.955C0 241.352 4.43771 239.576 4.85835 239.132C9.27503 234.341 7.08772 219.853 7.08772 213.637V35.9177C7.08772 34.9362 7.4032 33.2069 7.08772 32.2488Z" fill="url(#paint11_linear_2_2496)"/>
</g>
<g style="mix-blend-mode:screen" opacity="0.47">
<path d="M24.2076 6.58997C26.8787 7.50135 29.9072 7.45461 33.7561 7.45461H303.384C309.757 7.45461 315.919 7.50135 318.632 0H16.9937C19.2862 3.83246 21.5576 5.67859 24.2076 6.58997Z" fill="url(#paint12_linear_2_2496)"/>
</g>
<g opacity="0.41">
<path d="M307.906 240.627H26.9838C21.4735 240.627 16.9727 235.626 16.9727 229.504V28.4864C16.9727 22.3638 21.4735 17.3629 26.9838 17.3629H307.906C313.416 17.3629 317.917 22.3638 317.917 28.4864V229.48C317.917 235.626 313.416 240.604 307.906 240.604V240.627ZM26.9838 20.8448C23.1981 20.8448 20.0854 24.28 20.0854 28.5098V229.504C20.0854 233.734 23.177 237.169 26.9838 237.169H307.906C311.712 237.169 314.804 233.734 314.804 229.504V28.4864C314.804 24.2567 311.712 20.8215 307.906 20.8215H26.9838V20.8448Z" fill="url(#paint13_linear_2_2496)"/>
</g>
<g style="mix-blend-mode:multiply" opacity="0.41">
<path d="M308.474 19.3494H26.416C22.1886 19.3494 18.7604 23.1585 18.7604 27.8322V230.649C18.7604 235.323 22.1886 239.132 26.416 239.132H308.474C312.701 239.132 316.129 235.323 316.129 230.649V27.8322C316.129 23.1585 312.701 19.3494 308.474 19.3494ZM314.804 229.504C314.804 233.734 311.713 237.169 307.906 237.169H26.9838C23.1981 237.169 20.0854 233.734 20.0854 229.504V28.4865C20.0854 24.2568 23.1771 20.8216 26.9838 20.8216H307.906C311.713 20.8216 314.804 24.2568 314.804 28.4865V229.481V229.504Z" fill="url(#paint14_linear_2_2496)"/>
</g>
<path d="M11.6095 234.178V29.0239C11.6095 20.4242 17.9401 13.4136 25.6798 13.4136H310.114C316.15 13.4136 321.324 17.6901 323.301 23.6491C321.766 16.8722 316.213 11.8011 309.672 11.8011H25.2171C17.4774 11.8011 11.1678 18.8351 11.1678 27.4114V232.565C11.1678 234.458 11.4833 236.281 12.0302 237.963C11.7567 236.748 11.6095 235.486 11.6095 234.178Z" fill="white"/>
<path d="M18.7604 16.0777C17.2461 15.0262 16.531 2.64075 16.531 2.64075C16.531 2.64075 16.0894 15.0262 14.5751 16.0777C12.6822 17.3864 3.72266 17.6668 3.72266 17.6668C3.72266 17.6668 14.6592 18.5782 15.2271 19.6531C16.1314 21.4058 16.531 34.1651 16.531 34.1651C16.531 34.1651 17.5406 21.0553 18.4449 19.2793C18.9918 18.2043 30.0755 17.6902 30.0755 17.6902C30.0755 17.6902 20.6533 17.363 18.7604 16.0544V16.0777Z" fill="white"/>
<defs>
<linearGradient id="paint0_linear_2_2496" x1="157.024" y1="-17.2461" x2="180.359" y2="249.683" gradientUnits="userSpaceOnUse">
<stop stop-color="#FFC206"/>
<stop offset="1" stop-color="#EB7C00"/>
</linearGradient>
<linearGradient id="paint1_linear_2_2496" x1="189.391" y1="240.534" x2="139.87" y2="38.5143" gradientUnits="userSpaceOnUse">
<stop stop-color="#F19500"/>
<stop offset="0.18" stop-color="#F29B0A"/>
<stop offset="0.51" stop-color="#F6AB27"/>
<stop offset="0.93" stop-color="#FDC556"/>
<stop offset="1" stop-color="#FFCA5F"/>
</linearGradient>
<linearGradient id="paint2_linear_2_2496" x1="230.172" y1="33.277" x2="230.172" y2="234.715" gradientUnits="userSpaceOnUse">
<stop stop-color="#FFC345"/>
<stop offset="1" stop-color="#F6DB61"/>
</linearGradient>
<linearGradient id="paint3_linear_2_2496" x1="59.9406" y1="33.277" x2="59.9406" y2="234.715" gradientUnits="userSpaceOnUse">
<stop stop-color="#FFC345"/>
<stop offset="1" stop-color="#F6DB61"/>
</linearGradient>
<linearGradient id="paint4_linear_2_2496" x1="286.916" y1="33.277" x2="286.916" y2="234.715" gradientUnits="userSpaceOnUse">
<stop stop-color="#FFC345"/>
<stop offset="1" stop-color="#F6DB61"/>
</linearGradient>
<linearGradient id="paint5_linear_2_2496" x1="32.2207" y1="33.277" x2="32.2207" y2="234.692" gradientUnits="userSpaceOnUse">
<stop stop-color="#FFC345"/>
<stop offset="1" stop-color="#F6DB61"/>
</linearGradient>
<linearGradient id="paint6_linear_2_2496" x1="155.888" y1="33.277" x2="155.888" y2="234.715" gradientUnits="userSpaceOnUse">
<stop stop-color="#FFC345"/>
<stop offset="1" stop-color="#F6DB61"/>
</linearGradient>
<linearGradient id="paint7_linear_2_2496" x1="159.316" y1="23.6257" x2="159.316" y2="245.161" gradientUnits="userSpaceOnUse">
<stop stop-color="#FFC345"/>
<stop offset="1" stop-color="#F6DB61"/>
</linearGradient>
<linearGradient id="paint8_linear_2_2496" x1="176.646" y1="23.6025" x2="176.646" y2="245.161" gradientUnits="userSpaceOnUse">
<stop stop-color="#FFC345"/>
<stop offset="1" stop-color="#F6DB61"/>
</linearGradient>
<linearGradient id="paint9_linear_2_2496" x1="330.431" y1="23.649" x2="330.431" y2="245.161" gradientUnits="userSpaceOnUse">
<stop stop-color="#F19500"/>
<stop offset="1" stop-color="#F8E384"/>
</linearGradient>
<linearGradient id="paint10_linear_2_2496" x1="168.843" y1="16.2647" x2="168.843" y2="244.694" gradientUnits="userSpaceOnUse">
<stop stop-color="#F19500"/>
<stop offset="1" stop-color="#F8E384"/>
</linearGradient>
<linearGradient id="paint11_linear_2_2496" x1="3.80676" y1="23.6492" x2="3.80676" y2="245.208" gradientUnits="userSpaceOnUse">
<stop stop-color="#FFC345"/>
<stop offset="1" stop-color="#F6DB61"/>
</linearGradient>
<linearGradient id="paint12_linear_2_2496" x1="167.813" y1="0" x2="167.813" y2="10.0953" gradientUnits="userSpaceOnUse">
<stop stop-color="#FFC345"/>
<stop offset="1" stop-color="#F6DB61"/>
</linearGradient>
<linearGradient id="paint13_linear_2_2496" x1="170.778" y1="281.079" x2="164.937" y2="65.3455" gradientUnits="userSpaceOnUse">
<stop stop-color="#DE9103"/>
<stop offset="1" stop-color="#B55100"/>
</linearGradient>
<linearGradient id="paint14_linear_2_2496" x1="170.736" y1="279.069" x2="164.973" y2="66.537" gradientUnits="userSpaceOnUse">
<stop stop-color="#DE9103"/>
<stop offset="1" stop-color="#B55100"/>
</linearGradient>
</defs>
</svg>
