<svg width="39" height="39" viewBox="0 0 39 39" fill="none" xmlns="http://www.w3.org/2000/svg">
<path d="M37.785 31.9812C38.875 23.5312 38.875 15.0812 37.785 6.62119C37.405 3.8812 34.715 1.19119 31.975 0.811192C23.525 -0.278809 15.075 -0.278809 6.61501 0.811192C3.87501 1.19119 1.18501 3.8812 0.81501 6.62119C-0.26499 15.0812 -0.26499 23.5312 0.82501 31.9812C1.19501 34.7212 3.88501 37.4112 6.62501 37.7812C15.075 38.8712 23.535 38.8712 31.985 37.7812C34.725 37.4012 37.415 34.7112 37.795 31.9812H37.785Z" fill="url(#paint0_linear_2_3098)"/>
<g style="mix-blend-mode:screen" opacity="0.47">
<path d="M35.615 30.6113C36.345 23.0713 36.345 15.5313 35.615 7.99125C35.365 5.54125 33.055 3.24125 30.615 2.99125C23.075 2.26125 15.535 2.26125 7.99501 2.99125C5.54501 3.24125 3.24501 5.54125 2.99501 7.99125C2.26501 15.5312 2.26501 23.0713 2.99501 30.6113C3.24501 33.0613 5.55501 35.3613 7.99501 35.6113C15.535 36.3413 23.075 36.3413 30.615 35.6113C33.065 35.3613 35.365 33.0613 35.615 30.6113Z" fill="url(#paint1_linear_2_3098)"/>
</g>
<g style="mix-blend-mode:screen" opacity="0.29">
<path d="M24.705 7.94125C14.955 10.3512 4.21501 20.4413 7.56501 31.1713C8.07501 32.9213 8.86501 34.4512 9.84501 35.7812C9.22501 35.7312 8.61501 35.6812 7.99501 35.6212C5.54501 35.3712 3.24501 33.0713 2.99501 30.6213C2.26501 23.0813 2.26501 15.5412 2.99501 8.00125C3.24501 5.55125 5.55501 3.25125 7.99501 3.00125C15.535 2.27125 23.075 2.27125 30.615 3.00125C33.065 3.25125 35.365 5.55125 35.615 8.00125C35.655 8.38125 35.685 8.75125 35.715 9.13125C32.305 7.26125 28.285 7.13125 24.705 7.95125V7.94125Z" fill="url(#paint2_linear_2_3098)"/>
</g>
<g style="mix-blend-mode:screen" opacity="0.47">
<path d="M35.925 26.7112C35.845 28.0112 35.735 29.3112 35.615 30.6112C35.365 33.0612 33.055 35.3612 30.615 35.6112C28.665 35.8012 26.725 35.9412 24.775 36.0312C29.065 34.1213 33.725 30.7212 35.925 26.7112Z" fill="url(#paint3_linear_2_3098)"/>
</g>
<g style="mix-blend-mode:multiply" opacity="0.67">
<path d="M6.78501 37.8012C6.56501 37.2312 7.43501 36.1112 8.62501 35.7712C9.20501 35.6112 14.535 35.9412 19.835 35.8612C25.125 35.8612 30.385 35.4612 30.815 35.6912C31.685 36.1612 32.485 37.2912 31.975 37.7912C23.575 38.8712 15.185 38.8712 6.78501 37.8012Z" fill="url(#paint4_linear_2_3098)"/>
</g>
<g style="mix-blend-mode:screen" opacity="0.41">
<path d="M32.515 0.891251C32.745 1.45125 31.885 2.64125 30.655 2.96125C30.055 3.11125 24.525 2.73125 19.035 2.80125C13.545 2.78125 8.09501 3.21125 7.65501 2.99125C6.75501 2.53125 5.93501 1.34125 6.46501 0.841251C15.145 -0.288749 23.835 -0.278749 32.515 0.891251Z" fill="url(#paint5_linear_2_3098)"/>
</g>
<g style="mix-blend-mode:screen" opacity="0.41">
<path d="M0.83501 32.0912C1.37501 32.8312 2.89501 30.8412 3.14501 29.7012C3.25501 29.1412 2.84501 24.3012 2.82501 19.4212C2.74501 14.5412 3.07501 9.6312 3.14501 8.91121C3.25501 7.44121 1.35501 5.8712 0.90501 6.2012C-0.24499 14.8312 -0.27499 23.4612 0.83501 32.0912Z" fill="url(#paint6_linear_2_3098)"/>
</g>
<path d="M2.99501 30.6112C2.26501 23.0712 2.26501 15.5312 2.99501 7.99121C3.24501 5.54121 5.55501 3.24121 7.99501 2.99121C14.475 2.37121 20.965 2.28122 27.445 2.73122C26.855 2.79122 22.175 2.65122 17.625 2.87122C13.075 3.03122 8.65501 3.55121 8.65501 3.54121C6.19501 3.77121 3.90501 6.06121 3.67501 8.52122C3.68501 8.52122 3.04501 13.6612 2.92501 19.0212C2.71501 24.3812 3.01501 29.9412 3.02501 30.8712C3.01501 30.7912 3.00501 30.7012 2.99501 30.6112Z" fill="white"/>
<g style="mix-blend-mode:screen" opacity="0.6">
<path d="M28.915 16.4312C22.235 16.5212 15.225 18.7112 9.43501 21.9012C6.84501 23.3212 4.40501 25.0512 2.70501 27.1412C2.47501 23.7612 2.39501 20.3712 2.46501 16.9912C2.62501 16.9912 2.78501 16.9912 2.95501 16.9812C8.54501 16.7512 13.865 13.5412 17.935 9.96124C20.405 7.80124 22.575 5.27123 24.085 2.54123C26.255 2.63123 28.435 2.78123 30.605 2.99123C33.055 3.24123 35.355 5.54123 35.605 7.99123C35.915 11.2212 36.095 14.4612 36.135 17.6912C33.925 16.7112 31.345 16.3812 28.905 16.4312H28.915Z" fill="url(#paint7_linear_2_3098)"/>
</g>
<g style="mix-blend-mode:screen" opacity="0.47">
<path d="M3.66501 7.59125C3.66501 7.59125 3.52501 5.67125 1.20501 5.25125C1.18501 5.26125 2.085 2.36125 5.745 1.02125C5.745 1.02125 5.375 2.94125 7.545 3.67125C5.745 4.18125 4.16501 5.78125 3.66501 7.59125Z" fill="url(#paint8_linear_2_3098)"/>
</g>
<g style="mix-blend-mode:screen" opacity="0.47">
<path d="M1.83501 4.00124C2.30501 3.30124 3.08501 2.42124 4.30501 1.69124C4.23501 3.01124 4.72501 3.99124 5.54501 4.74124C5.11501 5.09124 4.74501 5.51124 4.42501 5.96124C3.75501 4.95124 2.92501 4.19124 1.83501 3.99124V4.00124Z" fill="url(#paint9_linear_2_3098)"/>
</g>
<g style="mix-blend-mode:screen" opacity="0.41">
<path d="M2.50501 21.9512C1.25501 16.8712 1.35501 11.7712 1.98501 6.66121C2.59501 7.19121 3.20501 8.08121 3.13501 8.92121C3.00501 9.85121 2.61501 17.6312 2.90501 23.4312C2.75501 22.9412 2.62501 22.4512 2.49501 21.9512H2.50501Z" fill="url(#paint10_linear_2_3098)"/>
</g>
<g style="mix-blend-mode:screen" opacity="0.41">
<path d="M7.64502 2.99121C7.40502 2.87121 7.16502 2.69121 6.95502 2.48121C8.10502 2.04121 9.38502 1.78121 10.475 1.64121C12.685 1.34121 14.905 1.33121 17.095 1.50121C19.515 1.68121 21.925 2.17121 24.345 2.85121C17.725 2.58121 8.24502 3.23121 7.65502 2.99121H7.64502Z" fill="url(#paint11_linear_2_3098)"/>
</g>
<g style="mix-blend-mode:multiply" opacity="0.67">
<path d="M19.495 38.4912C21.315 38.2312 24.395 37.5612 25.925 35.7312C28.595 35.6412 30.565 35.5512 30.825 35.6912C31.695 36.1612 32.495 37.2912 31.985 37.7912C27.555 38.3512 23.125 38.6212 18.685 38.6012C18.955 38.5612 19.225 38.5312 19.485 38.4912H19.495Z" fill="url(#paint12_linear_2_3098)"/>
</g>
<g style="mix-blend-mode:multiply" opacity="0.67">
<path d="M35.605 30.7012C36.285 28.7912 36.835 26.8812 37.205 24.9512C37.825 21.7512 38.135 18.5712 38.065 15.3912C38.035 13.8312 37.855 12.2612 37.525 10.6912C37.295 9.61121 37.085 8.27121 36.505 7.13121C36.985 6.57121 37.505 6.26121 37.785 6.63121C38.885 15.2612 38.855 23.8912 37.685 32.5212C37.325 32.7712 36.065 31.8512 35.605 30.7012Z" fill="url(#paint13_linear_2_3098)"/>
</g>
<path d="M10.765 35.8512C17.155 36.3112 23.545 36.2612 29.935 35.6812C29.985 35.5612 23.805 35.4512 10.765 35.8512Z" fill="white"/>
<g style="mix-blend-mode:screen" opacity="0.41">
<path d="M3.06501 32.3512C3.06501 32.3512 4.77501 35.5712 6.87501 35.7812C6.87501 35.8212 2.16501 36.9612 3.06501 32.3512Z" fill="url(#paint14_linear_2_3098)"/>
</g>
<g style="mix-blend-mode:multiply" opacity="0.67">
<path d="M35.605 30.6912C35.605 30.6912 35.605 30.6412 35.615 30.6112C36.325 23.2312 36.345 15.8512 35.655 8.46121C36.155 7.34121 37.315 6.00121 37.785 6.62121C38.885 15.2512 38.855 23.8812 37.685 32.5112C37.325 32.7612 36.055 31.8412 35.605 30.6812V30.6912Z" fill="url(#paint15_linear_2_3098)"/>
</g>
<path d="M0.555002 9.16124C0.235002 9.13124 0.455002 23.6312 1.755 23.3912C2.265 23.2412 2.725 17.5012 2.765 17.5012C2.745 18.5912 2.745 19.6812 2.765 20.7712C2.735 20.7712 2.645 25.5112 1.905 26.2712C0.985002 27.0012 -0.0849976 16.3712 0.0750024 16.4012C0.145002 13.9912 0.305002 11.5812 0.555002 9.17124V9.16124Z" fill="white"/>
<path d="M17.475 9.20119C14.955 11.5012 11.755 15.4112 9.26501 18.5912C9.04501 18.9012 8.86501 19.1912 9.26501 19.7912C11.745 22.9712 14.955 26.8812 17.475 29.1812C18.885 30.4712 18.555 26.9012 18.895 26.8912C22.055 26.8812 25.705 26.6312 28.865 26.1512C29.605 26.0312 30.395 21.5512 30.395 19.2412C30.395 16.9312 29.605 12.3412 28.865 12.2212C25.705 11.7412 22.065 11.4912 18.895 11.4812C18.555 11.4812 18.895 7.9012 17.475 9.19119V9.20119Z" fill="url(#paint16_linear_2_3098)"/>
<g style="mix-blend-mode:multiply">
<path d="M25.075 24.7912C22.795 24.2212 20.765 23.0712 19.125 21.1712C17.745 19.5712 16.765 17.5312 16.525 15.3612C16.305 13.3112 16.655 10.5812 18.465 9.44119C18.305 8.94119 18.015 8.68119 17.455 9.20119C14.935 11.5012 11.735 15.4112 9.24501 18.5912C9.02501 18.9012 8.84501 19.1912 9.24501 19.7912C11.725 22.9712 14.935 26.8812 17.455 29.1812C18.865 30.4712 18.535 26.9012 18.875 26.8912C22.035 26.8812 25.685 26.6312 28.845 26.1512C29.085 26.1112 29.325 25.6112 29.555 24.8912C29.395 25.4012 26.905 25.1212 26.465 25.0612C25.995 24.9912 25.525 24.9012 25.075 24.7912Z" fill="url(#paint17_linear_2_3098)"/>
</g>
<g style="mix-blend-mode:multiply">
<path d="M18.275 29.3412C18.215 29.3012 18.155 29.2512 18.085 29.1912C15.565 26.8912 12.355 22.9812 9.875 19.8012C9.475 19.2012 9.655 18.9112 9.875 18.6012C12.355 15.4212 15.565 11.5112 18.085 9.21122C18.155 9.15122 18.215 9.10122 18.275 9.06121C18.105 8.87121 17.845 8.86122 17.465 9.21122C14.945 11.5112 11.745 15.4212 9.255 18.6012C9.035 18.9112 8.855 19.2012 9.255 19.8012C11.735 22.9812 14.945 26.8912 17.465 29.1912C17.845 29.5412 18.095 29.5312 18.275 29.3412Z" fill="url(#paint18_linear_2_3098)"/>
</g>
<g style="mix-blend-mode:screen">
<path d="M18.885 11.4912C22.045 11.5112 25.695 11.7512 28.855 12.2312C29.595 12.3512 30.385 16.9312 30.385 19.2512C30.385 21.5712 29.595 26.0412 28.855 26.1612C25.695 26.6412 22.055 26.8912 18.885 26.9012C18.625 26.9012 18.765 28.9712 18.215 29.3912C19.305 29.9712 19.035 26.9012 19.355 26.9012C22.515 26.8912 26.165 26.6412 29.325 26.1612C30.065 26.0412 30.855 21.5612 30.855 19.2512C30.855 16.9412 30.065 12.3512 29.325 12.2312C26.165 11.7512 22.515 11.5012 19.355 11.4912C19.045 11.4912 19.305 8.42124 18.215 9.00124C18.755 9.42124 18.625 11.4912 18.885 11.4912Z" fill="url(#paint19_linear_2_3098)"/>
</g>
<defs>
<linearGradient id="paint0_linear_2_3098" x1="7.05501" y1="27.3212" x2="36.185" y2="8.25119" gradientUnits="userSpaceOnUse">
<stop stop-color="#FFC206"/>
<stop offset="1" stop-color="#EB7C00"/>
</linearGradient>
<linearGradient id="paint1_linear_2_3098" x1="35.005" y1="17.2313" x2="9.01501" y2="20.6613" gradientUnits="userSpaceOnUse">
<stop stop-color="#F19500"/>
<stop offset="0.18" stop-color="#F29B0A"/>
<stop offset="0.51" stop-color="#F6AB27"/>
<stop offset="0.93" stop-color="#FDC556"/>
<stop offset="1" stop-color="#FFCA5F"/>
</linearGradient>
<linearGradient id="paint2_linear_2_3098" x1="5.28501" y1="12.9613" x2="37.615" y2="27.5812" gradientUnits="userSpaceOnUse">
<stop stop-color="#FFC345"/>
<stop offset="1" stop-color="#F6DB61"/>
</linearGradient>
<linearGradient id="paint3_linear_2_3098" x1="3.35501" y1="19.1612" x2="34.485" y2="33.2412" gradientUnits="userSpaceOnUse">
<stop stop-color="#FFC345"/>
<stop offset="1" stop-color="#F6DB61"/>
</linearGradient>
<linearGradient id="paint4_linear_2_3098" x1="11.365" y1="33.3712" x2="30.065" y2="41.8312" gradientUnits="userSpaceOnUse">
<stop stop-color="#FFC345"/>
<stop offset="1" stop-color="#F6DB61"/>
</linearGradient>
<linearGradient id="paint5_linear_2_3098" x1="27.795" y1="5.44125" x2="8.43501" y2="-3.31876" gradientUnits="userSpaceOnUse">
<stop stop-color="#FFC345"/>
<stop offset="1" stop-color="#F6DB61"/>
</linearGradient>
<linearGradient id="paint6_linear_2_3098" x1="5.62501" y1="21.2412" x2="-3.88499" y2="16.9412" gradientUnits="userSpaceOnUse">
<stop stop-color="#FFC345"/>
<stop offset="1" stop-color="#F6DB61"/>
</linearGradient>
<linearGradient id="paint7_linear_2_3098" x1="5.86501" y1="18.3812" x2="29.875" y2="10.2012" gradientUnits="userSpaceOnUse">
<stop stop-color="#FFE431"/>
<stop offset="1" stop-color="#F7AB00"/>
</linearGradient>
<linearGradient id="paint8_linear_2_3098" x1="2.15501" y1="3.15125" x2="7.71501" y2="5.66125" gradientUnits="userSpaceOnUse">
<stop stop-color="#FFC345"/>
<stop offset="1" stop-color="#F6DB61"/>
</linearGradient>
<linearGradient id="paint9_linear_2_3098" x1="2.33501" y1="2.91124" x2="7.69501" y2="5.34124" gradientUnits="userSpaceOnUse">
<stop stop-color="#FFC345"/>
<stop offset="1" stop-color="#F6DB61"/>
</linearGradient>
<linearGradient id="paint10_linear_2_3098" x1="6.97501" y1="17.0912" x2="-2.11499" y2="12.9812" gradientUnits="userSpaceOnUse">
<stop stop-color="#FFC345"/>
<stop offset="1" stop-color="#F6DB61"/>
</linearGradient>
<linearGradient id="paint11_linear_2_3098" x1="26.555" y1="7.7012" x2="7.18503" y2="-1.05881" gradientUnits="userSpaceOnUse">
<stop stop-color="#FFC345"/>
<stop offset="1" stop-color="#F6DB61"/>
</linearGradient>
<linearGradient id="paint12_linear_2_3098" x1="12.785" y1="31.7212" x2="30.925" y2="39.9312" gradientUnits="userSpaceOnUse">
<stop stop-color="#FFC345"/>
<stop offset="1" stop-color="#F6DB61"/>
</linearGradient>
<linearGradient id="paint13_linear_2_3098" x1="32.945" y1="17.4612" x2="42.485" y2="21.7712" gradientUnits="userSpaceOnUse">
<stop stop-color="#FFC345"/>
<stop offset="1" stop-color="#F6DB61"/>
</linearGradient>
<linearGradient id="paint14_linear_2_3098" x1="2.95501" y1="34.1412" x2="7.51501" y2="34.1412" gradientUnits="userSpaceOnUse">
<stop stop-color="#FFC345"/>
<stop offset="1" stop-color="#F6DB61"/>
</linearGradient>
<linearGradient id="paint15_linear_2_3098" x1="32.995" y1="17.4812" x2="42.485" y2="21.7712" gradientUnits="userSpaceOnUse">
<stop stop-color="#FFC345"/>
<stop offset="1" stop-color="#F6DB61"/>
</linearGradient>
<linearGradient id="paint16_linear_2_3098" x1="39.585" y1="19.1912" x2="14.525" y2="19.1912" gradientUnits="userSpaceOnUse">
<stop stop-color="#DE9103"/>
<stop offset="1" stop-color="#B55100"/>
</linearGradient>
<linearGradient id="paint17_linear_2_3098" x1="34.095" y1="16.4812" x2="10.515" y2="20.4612" gradientUnits="userSpaceOnUse">
<stop stop-color="#FFC345"/>
<stop offset="1" stop-color="#F6DB61"/>
</linearGradient>
<linearGradient id="paint18_linear_2_3098" x1="21.925" y1="18.5312" x2="9.905" y2="20.5612" gradientUnits="userSpaceOnUse">
<stop stop-color="#FFC345"/>
<stop offset="1" stop-color="#F6DB61"/>
</linearGradient>
<linearGradient id="paint19_linear_2_3098" x1="33.395" y1="16.6712" x2="17.395" y2="19.3812" gradientUnits="userSpaceOnUse">
<stop stop-color="#FFC345"/>
<stop offset="1" stop-color="#F6DB61"/>
</linearGradient>
</defs>
</svg>
