<svg width="223" height="72" viewBox="0 0 223 72" fill="none" xmlns="http://www.w3.org/2000/svg">
<g style="mix-blend-mode:multiply" opacity="0.61">
<path d="M214.142 6.31875H8.55789C3.8264 6.31875 -0.00811768 10.0009 -0.00811768 14.5362V63.4591C-0.00811768 67.9944 3.8264 71.6989 8.55789 71.6989H214.142C218.874 71.6989 222.708 68.0168 222.708 63.4591V14.5362C222.708 10.0009 218.874 6.31875 214.142 6.31875Z" fill="url(#paint0_linear_2_1616)"/>
</g>
<path d="M10.8003 0.234039H211.9C216.519 0.234039 220.286 4.00597 220.286 8.63108V58.5194C220.286 63.1445 216.519 66.9165 211.9 66.9165H10.8003C6.18095 66.9165 2.4137 63.1445 2.4137 58.5194V8.63108C2.4137 4.00597 6.18095 0.234039 10.8003 0.234039Z" fill="url(#paint1_linear_2_1616)"/>
<g style="mix-blend-mode:screen">
<g style="mix-blend-mode:screen" opacity="0.47">
<path d="M13.1325 4.43279H209.545C212.416 4.43279 214.748 6.76779 214.748 9.64165V57.4868C214.748 60.3607 212.416 62.6957 209.545 62.6957H13.1325C10.2622 62.6957 7.93005 60.3607 7.93005 57.4868V9.64165C7.93005 6.76779 10.2622 4.43279 13.1325 4.43279Z" fill="url(#paint2_linear_2_1616)"/>
</g>
</g>
<g style="mix-blend-mode:multiply" opacity="0.67">
<path d="M215.443 13.3462C215.062 15.1199 214.703 52.9964 215.824 55.2416C216.945 57.4868 218.694 59.6422 219.502 59.0809C219.502 59.0809 219.815 10.7867 219.345 9.50693C218.874 8.22716 215.802 11.7297 215.465 13.3462H215.443Z" fill="url(#paint3_linear_2_1616)"/>
</g>
<g style="mix-blend-mode:screen" opacity="0.84">
<path d="M209.568 4.43279H13.1325C10.2622 4.43279 7.93005 6.76779 7.93005 9.64165V11.2357C7.93005 8.36188 10.2622 6.02687 13.1325 6.02687H209.545C212.416 6.02687 214.748 8.36188 214.748 11.2357V9.64165C214.748 6.76779 212.416 4.43279 209.545 4.43279H209.568Z" fill="url(#paint4_linear_2_1616)"/>
</g>
<g style="mix-blend-mode:screen" opacity="0.47">
<path d="M161.445 4.43279C160.1 5.7799 158.755 7.12701 157.409 8.47413L103.232 62.7181H147.946C154.853 55.8029 161.782 48.9102 168.733 42.0399C181.403 29.4892 194.095 16.9834 206.787 4.43279H161.445Z" fill="url(#paint5_linear_2_1616)"/>
</g>
<g style="mix-blend-mode:screen" opacity="0.41">
<path d="M10.8003 0.548584C9.83608 2.72643 14.1639 3.51225 15.2403 3.51225H208.177C208.177 3.51225 213.447 1.53647 211.9 0.548584H10.8003Z" fill="url(#paint6_linear_2_1616)"/>
</g>
<g style="mix-blend-mode:multiply" opacity="0.67">
<path d="M12.4821 66.8942C10.8003 66.8942 12.0112 63.9081 14.6348 63.3019C17.2585 62.6957 206.63 63.3019 208.065 63.3019C209.5 63.3019 213.335 65.345 211.07 66.8942H12.4821Z" fill="url(#paint7_linear_2_1616)"/>
</g>
<g style="mix-blend-mode:screen" opacity="0.41">
<path d="M2.75006 10.1356C3.064 8.54148 6.76398 10.4499 7.07792 13.6606C7.39185 16.8487 7.07792 55.7131 7.07792 55.7131C7.07792 55.7131 4.14036 61.0118 2.75006 59.1707V10.158V10.1356Z" fill="url(#paint8_linear_2_1616)"/>
</g>
<path d="M14.6573 4.43279H203.827C203.827 4.43279 19.3439 6.94741 14.6573 4.43279Z" fill="white"/>
<path d="M7.93005 15.0975V54.7477C7.93005 54.7477 10.3743 19.6328 7.93005 15.0975Z" fill="white"/>
<g style="mix-blend-mode:screen" opacity="0.47">
<path d="M14.0294 62.4487C9.90338 48.6183 21.1827 37.6617 31.9014 31.0609C42.4408 24.5947 54.4152 20.1267 66.3 16.8487C89.3969 10.4724 113.503 6.9025 137.497 7.37399C151.534 7.64341 180.954 8.38434 194.678 11.5725C201.45 13.1442 208.671 15.5016 214.77 19.2736V9.64165C214.77 6.76779 212.438 4.43279 209.568 4.43279H13.1325C10.2622 4.43279 7.93005 6.76779 7.93005 9.64165V57.4868C7.93005 60.3607 10.2622 62.6957 13.1325 62.6957H14.0967C14.0967 62.6957 14.0294 62.5161 14.007 62.4263L14.0294 62.4487Z" fill="url(#paint9_linear_2_1616)"/>
</g>
<g style="mix-blend-mode:screen" opacity="0.47">
<path d="M2.75009 7.41889C4.9925 6.76778 6.74158 7.32908 7.21248 8.69865C7.21248 8.69865 7.93005 4.45523 11.8543 3.98374C11.8543 3.98374 8.69248 2.3223 9.00641 0.660851C9.00641 0.660851 3.22099 2.03041 2.72766 7.41889H2.75009Z" fill="url(#paint10_linear_2_1616)"/>
</g>
<g style="mix-blend-mode:screen" opacity="0.6">
<path d="M69.5066 4.29806L64.7976 0.2118H28.5378C28.5378 0.2118 39.2341 2.00796 36.4535 4.29806H69.5066Z" fill="url(#paint11_linear_2_1616)"/>
</g>
<g style="mix-blend-mode:multiply" opacity="0.67">
<path d="M210.33 64.0877C207.415 64.0203 204.5 63.953 201.585 63.9081C171.918 63.3243 127.069 63.4141 97.4022 63.8407C76.2787 64.1551 55.1104 64.649 34.1214 66.9167H211.048C212.438 65.9737 211.563 64.8511 210.33 64.1102V64.0877Z" fill="url(#paint12_linear_2_1616)"/>
</g>
<g style="mix-blend-mode:multiply" opacity="0.67">
<path d="M219.569 41.0071C219.569 36.8534 219.569 32.408 219.569 28.2094C218.537 31.0384 217.102 33.8898 215.039 36.0676C215.039 39.4579 215.084 42.7808 215.151 45.6771C216.452 43.9707 217.932 42.3991 219.546 40.9846L219.569 41.0071Z" fill="url(#paint13_linear_2_1616)"/>
</g>
<g style="mix-blend-mode:screen" opacity="0.6">
<path d="M88.0962 0.660851C86.8853 0.615947 85.6744 0.593488 84.4635 0.548584H58.0928C45.8716 0.907816 33.6729 1.82835 21.5639 3.51225H131.846C117.292 2.09777 102.717 1.15479 88.0962 0.660851Z" fill="url(#paint14_linear_2_1616)"/>
</g>
<path d="M43.248 4.41033C43.248 4.41033 48.0243 1.49156 37.5298 0.234253H54.8861C54.8861 0.234253 55.8279 3.87148 49.011 4.67976L43.248 4.41033Z" fill="white"/>
<defs>
<linearGradient id="paint0_linear_2_1616" x1="80.8981" y1="127.964" x2="117.711" y2="20.6712" gradientUnits="userSpaceOnUse">
<stop stop-color="#DE9103"/>
<stop offset="1" stop-color="#B55100"/>
</linearGradient>
<linearGradient id="paint1_linear_2_1616" x1="101.214" y1="-3.04395" x2="123.825" y2="78.3974" gradientUnits="userSpaceOnUse">
<stop stop-color="#FFC206"/>
<stop offset="1" stop-color="#EB7C00"/>
</linearGradient>
<linearGradient id="paint2_linear_2_1616" x1="111.35" y1="4.43279" x2="111.35" y2="72.2602" gradientUnits="userSpaceOnUse">
<stop stop-color="#F19500"/>
<stop offset="0.18" stop-color="#F29B0A"/>
<stop offset="0.51" stop-color="#F6AB27"/>
<stop offset="0.93" stop-color="#FDC556"/>
<stop offset="1" stop-color="#FFCA5F"/>
</linearGradient>
<linearGradient id="paint3_linear_2_1616" x1="217.326" y1="9.21505" x2="217.326" y2="67.3433" gradientUnits="userSpaceOnUse">
<stop stop-color="#FFC345"/>
<stop offset="1" stop-color="#F6DB61"/>
</linearGradient>
<linearGradient id="paint4_linear_2_1616" x1="111.35" y1="4.43279" x2="111.35" y2="12.3359" gradientUnits="userSpaceOnUse">
<stop stop-color="#FFC345"/>
<stop offset="1" stop-color="#F6DB61"/>
</linearGradient>
<linearGradient id="paint5_linear_2_1616" x1="170.168" y1="-0.259681" x2="149.406" y2="45.9721" gradientUnits="userSpaceOnUse">
<stop stop-color="#FFDB6D"/>
<stop offset="1" stop-color="white"/>
</linearGradient>
<linearGradient id="paint6_linear_2_1616" x1="111.417" y1="0.548584" x2="111.417" y2="3.98374" gradientUnits="userSpaceOnUse">
<stop stop-color="#FFC345"/>
<stop offset="1" stop-color="#F6DB61"/>
</linearGradient>
<linearGradient id="paint7_linear_2_1616" x1="111.731" y1="63.0325" x2="111.731" y2="67.5453" gradientUnits="userSpaceOnUse">
<stop stop-color="#FFC345"/>
<stop offset="1" stop-color="#F6DB61"/>
</linearGradient>
<linearGradient id="paint8_linear_2_1616" x1="4.97005" y1="9.57428" x2="4.97005" y2="67.7474" gradientUnits="userSpaceOnUse">
<stop stop-color="#FFC345"/>
<stop offset="1" stop-color="#F6DB61"/>
</linearGradient>
<linearGradient id="paint9_linear_2_1616" x1="111.35" y1="4.43279" x2="111.35" y2="72.2602" gradientUnits="userSpaceOnUse">
<stop stop-color="#FFC345"/>
<stop offset="1" stop-color="#F6DB61"/>
</linearGradient>
<linearGradient id="paint10_linear_2_1616" x1="7.30218" y1="0.660851" x2="7.30218" y2="10.0233" gradientUnits="userSpaceOnUse">
<stop stop-color="#FFC345"/>
<stop offset="1" stop-color="#F6DB61"/>
</linearGradient>
<linearGradient id="paint11_linear_2_1616" x1="-46" y1="0.234255" x2="-43.753" y2="4.96946" gradientUnits="userSpaceOnUse">
<stop stop-color="#FFEB70"/>
<stop offset="1" stop-color="#FFD679"/>
</linearGradient>
<linearGradient id="paint12_linear_2_1616" x1="122.943" y1="63.0325" x2="122.943" y2="67.5453" gradientUnits="userSpaceOnUse">
<stop stop-color="#FFC345"/>
<stop offset="1" stop-color="#F6DB61"/>
</linearGradient>
<linearGradient id="paint13_linear_2_1616" x1="217.326" y1="9.21506" x2="217.326" y2="67.3433" gradientUnits="userSpaceOnUse">
<stop stop-color="#FFC345"/>
<stop offset="1" stop-color="#F6DB61"/>
</linearGradient>
<linearGradient id="paint14_linear_2_1616" x1="76.6824" y1="0.548584" x2="76.6824" y2="3.98374" gradientUnits="userSpaceOnUse">
<stop stop-color="#FFEB70"/>
<stop offset="1" stop-color="#FFD679"/>
</linearGradient>
</defs>
</svg>
