<svg width="39" height="39" viewBox="0 0 39 39" fill="none" xmlns="http://www.w3.org/2000/svg">
<path d="M6.62125 37.7788C15.0713 38.8688 23.5213 38.8688 31.9813 37.7788C34.7213 37.3988 37.4113 34.7088 37.7913 31.9688C38.8813 23.5188 38.8813 15.0688 37.7913 6.60875C37.4113 3.86875 34.7213 1.17875 31.9813 0.808754C23.5213 -0.271246 15.0713 -0.271246 6.62125 0.818754C3.88125 1.18875 1.19125 3.87875 0.821254 6.61875C-0.268746 15.0688 -0.268746 23.5288 0.821254 31.9788C1.20125 34.7188 3.89125 37.4088 6.62125 37.7888V37.7788Z" fill="url(#paint0_linear_2_195)"/>
<g style="mix-blend-mode:screen" opacity="0.47">
<path d="M7.99126 35.6088C15.5313 36.3388 23.0713 36.3388 30.6113 35.6088C33.0613 35.3588 35.3613 33.0488 35.6113 30.6088C36.3413 23.0688 36.3413 15.5288 35.6113 7.98875C35.3613 5.53875 33.0613 3.23875 30.6113 2.98875C23.0713 2.25875 15.5313 2.25875 7.99126 2.98875C5.54126 3.23875 3.24126 5.54875 2.99126 7.98875C2.26126 15.5288 2.26126 23.0688 2.99126 30.6088C3.24126 33.0588 5.54126 35.3588 7.99126 35.6088Z" fill="url(#paint1_linear_2_195)"/>
</g>
<g style="mix-blend-mode:screen" opacity="0.29">
<path d="M30.6613 24.6988C28.2513 14.9488 18.1613 4.20875 7.43126 7.55875C5.68126 8.06875 4.15126 8.85875 2.82126 9.83875C2.87126 9.21875 2.92126 8.60875 2.98126 7.98875C3.23126 5.53875 5.53126 3.23875 7.98126 2.98875C15.5213 2.25875 23.0613 2.25875 30.6013 2.98875C33.0513 3.23875 35.3513 5.54875 35.6013 7.98875C36.3313 15.5288 36.3313 23.0688 35.6013 30.6088C35.3513 33.0588 33.0513 35.3588 30.6013 35.6088C30.2213 35.6488 29.8513 35.6788 29.4713 35.7088C31.3413 32.2988 31.4713 28.2788 30.6513 24.6988H30.6613Z" fill="url(#paint2_linear_2_195)"/>
</g>
<g style="mix-blend-mode:screen" opacity="0.47">
<path d="M11.8913 35.9188C10.5913 35.8388 9.29126 35.7288 7.99126 35.6088C5.54126 35.3588 3.24126 33.0488 2.99126 30.6088C2.80126 28.6588 2.66126 26.7188 2.57126 24.7688C4.48126 29.0588 7.88126 33.7188 11.8913 35.9188Z" fill="url(#paint3_linear_2_195)"/>
</g>
<g style="mix-blend-mode:multiply" opacity="0.67">
<path d="M0.801254 6.77877C1.37125 6.55877 2.49125 7.42877 2.83125 8.61877C2.99125 9.19877 2.66125 14.5288 2.74125 19.8288C2.74125 25.1188 3.14125 30.3788 2.91125 30.8088C2.44125 31.6788 1.31125 32.4788 0.811254 31.9688C-0.268746 23.5688 -0.268746 15.1788 0.801254 6.77877Z" fill="url(#paint4_linear_2_195)"/>
</g>
<g style="mix-blend-mode:screen" opacity="0.41">
<path d="M37.7113 32.5087C37.1513 32.7387 35.9613 31.8787 35.6413 30.6488C35.4913 30.0487 35.8713 24.5188 35.8013 19.0288C35.8213 13.5388 35.3913 8.08875 35.6113 7.64875C36.0713 6.74875 37.2613 5.92875 37.7613 6.45875C38.8913 15.1388 38.8813 23.8287 37.7113 32.5087Z" fill="url(#paint5_linear_2_195)"/>
</g>
<g style="mix-blend-mode:screen" opacity="0.41">
<path d="M6.51124 0.828753C5.77124 1.36875 7.76124 2.88875 8.90124 3.13875C9.46124 3.24875 14.3012 2.83875 19.1812 2.81875C24.0612 2.73875 28.9712 3.06875 29.6912 3.13875C31.1612 3.24875 32.7312 1.34875 32.4012 0.898753C23.7712 -0.251247 15.1412 -0.281247 6.51124 0.828753Z" fill="url(#paint6_linear_2_195)"/>
</g>
<path d="M7.99126 2.98875C15.5313 2.25875 23.0713 2.25875 30.6113 2.98875C33.0613 3.23875 35.3613 5.54875 35.6113 7.98875C36.2313 14.4688 36.3213 20.9588 35.8713 27.4388C35.8113 26.8488 35.9513 22.1688 35.7313 17.6188C35.5713 13.0688 35.0513 8.64875 35.0613 8.64875C34.8313 6.18875 32.5413 3.89875 30.0813 3.66875C30.0813 3.67875 24.9413 3.03875 19.5813 2.91875C14.2213 2.70875 8.66126 3.00875 7.73126 3.01875C7.81126 3.00875 7.90126 2.99875 7.99126 2.98875Z" fill="white"/>
<g style="mix-blend-mode:screen" opacity="0.6">
<path d="M22.1713 28.9088C22.0813 22.2288 19.8913 15.2188 16.7013 9.42877C15.2813 6.83877 13.5513 4.39877 11.4613 2.69877C14.8413 2.46877 18.2313 2.38877 21.6113 2.45877C21.6113 2.61877 21.6113 2.77877 21.6213 2.94877C21.8513 8.53877 25.0613 13.8588 28.6413 17.9288C30.8013 20.3988 33.3313 22.5688 36.0613 24.0788C35.9713 26.2488 35.8213 28.4288 35.6113 30.5988C35.3613 33.0488 33.0613 35.3488 30.6113 35.5988C27.3813 35.9088 24.1413 36.0888 20.9113 36.1288C21.8913 33.9188 22.2213 31.3388 22.1713 28.8988V28.9088Z" fill="url(#paint7_linear_2_195)"/>
</g>
<g style="mix-blend-mode:screen" opacity="0.47">
<path d="M31.0113 3.65875C31.0113 3.65875 32.9313 3.51875 33.3513 1.19875C33.3413 1.17875 36.2413 2.07875 37.5813 5.73875C37.5813 5.73875 35.6613 5.36875 34.9313 7.53875C34.4213 5.73875 32.8213 4.15875 31.0113 3.65875Z" fill="url(#paint8_linear_2_195)"/>
</g>
<g style="mix-blend-mode:screen" opacity="0.47">
<path d="M34.6012 1.82877C35.3012 2.29877 36.1813 3.07877 36.9113 4.29877C35.5913 4.22877 34.6113 4.71877 33.8613 5.53877C33.5113 5.10877 33.0913 4.73877 32.6413 4.41877C33.6513 3.74877 34.4113 2.91877 34.6113 1.82877H34.6012Z" fill="url(#paint9_linear_2_195)"/>
</g>
<g style="mix-blend-mode:screen" opacity="0.41">
<path d="M16.6512 2.49876C21.7312 1.24876 26.8312 1.34876 31.9412 1.97876C31.4112 2.58876 30.5212 3.19876 29.6812 3.12876C28.7512 2.99876 20.9712 2.60876 15.1712 2.89876C15.6612 2.74876 16.1512 2.61876 16.6512 2.48876V2.49876Z" fill="url(#paint10_linear_2_195)"/>
</g>
<g style="mix-blend-mode:screen" opacity="0.41">
<path d="M35.6113 7.63876C35.7313 7.39876 35.9113 7.15876 36.1213 6.94876C36.5613 8.09876 36.8213 9.37876 36.9613 10.4688C37.2613 12.6788 37.2713 14.8988 37.1013 17.0888C36.9213 19.5088 36.4313 21.9188 35.7513 24.3388C36.0213 17.7188 35.3713 8.23876 35.6113 7.64876V7.63876Z" fill="url(#paint11_linear_2_195)"/>
</g>
<g style="mix-blend-mode:multiply" opacity="0.67">
<path d="M0.111248 19.4887C0.371248 21.3087 1.04125 24.3887 2.87125 25.9187C2.96125 28.5887 3.05125 30.5587 2.91125 30.8187C2.44125 31.6887 1.31125 32.4887 0.811248 31.9787C0.251248 27.5487 -0.0187519 23.1187 0.00124811 18.6787C0.0412481 18.9487 0.0712481 19.2187 0.111248 19.4787V19.4887Z" fill="url(#paint12_linear_2_195)"/>
</g>
<g style="mix-blend-mode:multiply" opacity="0.67">
<path d="M7.90127 35.5988C9.81127 36.2788 11.7213 36.8288 13.6513 37.1988C16.8513 37.8188 20.0313 38.1288 23.2113 38.0588C24.7713 38.0288 26.3413 37.8488 27.9113 37.5188C28.9913 37.2888 30.3313 37.0788 31.4713 36.4988C32.0313 36.9788 32.3413 37.4988 31.9713 37.7788C23.3413 38.8788 14.7113 38.8488 6.08127 37.6788C5.83127 37.3188 6.75127 36.0588 7.90127 35.5988Z" fill="url(#paint13_linear_2_195)"/>
</g>
<path d="M2.75126 10.7588C2.29126 17.1488 2.34126 23.5388 2.92126 29.9288C3.04126 29.9788 3.15126 23.7988 2.75126 10.7588Z" fill="white"/>
<g style="mix-blend-mode:screen" opacity="0.41">
<path d="M6.25127 3.05877C6.25127 3.05877 3.03127 4.76877 2.82127 6.86877C2.78127 6.86877 1.64127 2.15877 6.25127 3.05877Z" fill="url(#paint14_linear_2_195)"/>
</g>
<g style="mix-blend-mode:multiply" opacity="0.67">
<path d="M7.91126 35.5988C7.91126 35.5988 7.96126 35.5988 7.99126 35.6088C15.3713 36.3188 22.7513 36.3388 30.1413 35.6488C31.2613 36.1488 32.6013 37.3088 31.9813 37.7788C23.3513 38.8788 14.7213 38.8488 6.09127 37.6788C5.84127 37.3188 6.76127 36.0488 7.92127 35.5988H7.91126Z" fill="url(#paint15_linear_2_195)"/>
</g>
<path d="M29.4413 0.548746C29.4713 0.228746 14.9713 0.448746 15.2113 1.74875C15.3613 2.25875 21.1013 2.71875 21.1013 2.75875C20.0113 2.73875 18.9213 2.73875 17.8313 2.75875C17.8313 2.72875 13.0913 2.63875 12.3313 1.89875C11.6013 0.978746 22.2313 -0.0912537 22.2013 0.0687463C24.6113 0.138746 27.0213 0.298746 29.4313 0.548746H29.4413Z" fill="white"/>
<path d="M29.4013 17.4688C27.1013 14.9488 23.1913 11.7488 20.0113 9.25876C19.7013 9.03876 19.4113 8.85876 18.8113 9.25876C15.6313 11.7388 11.7213 14.9488 9.42125 17.4688C8.13125 18.8788 11.7013 18.5488 11.7113 18.8888C11.7213 22.0488 11.9713 25.6988 12.4513 28.8588C12.5713 29.5988 17.0513 30.3888 19.3613 30.3888C21.6713 30.3888 26.2613 29.5988 26.3813 28.8588C26.8613 25.6988 27.1113 22.0588 27.1213 18.8888C27.1213 18.5488 30.7013 18.8888 29.4113 17.4688H29.4013Z" fill="url(#paint16_linear_2_195)"/>
<g style="mix-blend-mode:multiply">
<path d="M13.8113 25.0688C14.3813 22.7888 15.5313 20.7588 17.4313 19.1188C19.0313 17.7388 21.0713 16.7588 23.2413 16.5188C25.2913 16.2988 28.0213 16.6488 29.1613 18.4588C29.6613 18.2988 29.9213 18.0088 29.4013 17.4488C27.1013 14.9288 23.1913 11.7288 20.0113 9.23877C19.7013 9.01877 19.4113 8.83877 18.8113 9.23877C15.6313 11.7188 11.7213 14.9288 9.42125 17.4488C8.13125 18.8588 11.7013 18.5288 11.7113 18.8688C11.7213 22.0288 11.9713 25.6788 12.4513 28.8388C12.4913 29.0788 12.9913 29.3188 13.7113 29.5488C13.2013 29.3888 13.4813 26.8988 13.5413 26.4588C13.6113 25.9888 13.7013 25.5188 13.8113 25.0688Z" fill="url(#paint17_linear_2_195)"/>
</g>
<g style="mix-blend-mode:multiply">
<path d="M9.26125 18.2688C9.30125 18.2088 9.35125 18.1488 9.41125 18.0788C11.7112 15.5588 15.6212 12.3488 18.8012 9.86878C19.4012 9.46878 19.6912 9.64878 20.0012 9.86878C23.1812 12.3488 27.0912 15.5588 29.3912 18.0788C29.4512 18.1488 29.5012 18.2088 29.5412 18.2688C29.7312 18.0988 29.7412 17.8388 29.3912 17.4588C27.0912 14.9388 23.1812 11.7388 20.0012 9.24878C19.6912 9.02878 19.4012 8.84878 18.8012 9.24878C15.6212 11.7288 11.7112 14.9388 9.41125 17.4588C9.06125 17.8388 9.07125 18.0888 9.26125 18.2688Z" fill="url(#paint18_linear_2_195)"/>
</g>
<g style="mix-blend-mode:screen">
<path d="M27.1112 18.8788C27.0912 22.0388 26.8512 25.6888 26.3713 28.8488C26.2512 29.5888 21.6713 30.3788 19.3513 30.3788C17.0313 30.3788 12.5612 29.5888 12.4412 28.8488C11.9612 25.6888 11.7112 22.0488 11.7012 18.8788C11.7012 18.6188 9.63125 18.7588 9.21125 18.2088C8.63125 19.2988 11.7012 19.0288 11.7012 19.3488C11.7112 22.5088 11.9612 26.1588 12.4412 29.3188C12.5612 30.0588 17.0413 30.8488 19.3513 30.8488C21.6613 30.8488 26.2512 30.0588 26.3713 29.3188C26.8512 26.1588 27.1012 22.5088 27.1112 19.3488C27.1112 19.0388 30.1812 19.2988 29.6012 18.2088C29.1812 18.7488 27.1112 18.6188 27.1112 18.8788Z" fill="url(#paint19_linear_2_195)"/>
</g>
<defs>
<linearGradient id="paint0_linear_2_195" x1="11.2813" y1="7.04875" x2="30.3513" y2="36.1788" gradientUnits="userSpaceOnUse">
<stop stop-color="#FFC206"/>
<stop offset="1" stop-color="#EB7C00"/>
</linearGradient>
<linearGradient id="paint1_linear_2_195" x1="21.3713" y1="34.9988" x2="17.9413" y2="9.00875" gradientUnits="userSpaceOnUse">
<stop stop-color="#F19500"/>
<stop offset="0.18" stop-color="#F29B0A"/>
<stop offset="0.51" stop-color="#F6AB27"/>
<stop offset="0.93" stop-color="#FDC556"/>
<stop offset="1" stop-color="#FFCA5F"/>
</linearGradient>
<linearGradient id="paint2_linear_2_195" x1="25.6413" y1="5.27875" x2="11.0213" y2="37.6088" gradientUnits="userSpaceOnUse">
<stop stop-color="#FFC345"/>
<stop offset="1" stop-color="#F6DB61"/>
</linearGradient>
<linearGradient id="paint3_linear_2_195" x1="19.4413" y1="3.34877" x2="5.36127" y2="34.4788" gradientUnits="userSpaceOnUse">
<stop stop-color="#FFC345"/>
<stop offset="1" stop-color="#F6DB61"/>
</linearGradient>
<linearGradient id="paint4_linear_2_195" x1="5.23125" y1="11.3588" x2="-3.22874" y2="30.0588" gradientUnits="userSpaceOnUse">
<stop stop-color="#FFC345"/>
<stop offset="1" stop-color="#F6DB61"/>
</linearGradient>
<linearGradient id="paint5_linear_2_195" x1="33.1613" y1="27.7888" x2="41.9213" y2="8.42875" gradientUnits="userSpaceOnUse">
<stop stop-color="#FFC345"/>
<stop offset="1" stop-color="#F6DB61"/>
</linearGradient>
<linearGradient id="paint6_linear_2_195" x1="17.3612" y1="5.61875" x2="21.6612" y2="-3.89125" gradientUnits="userSpaceOnUse">
<stop stop-color="#FFC345"/>
<stop offset="1" stop-color="#F6DB61"/>
</linearGradient>
<linearGradient id="paint7_linear_2_195" x1="20.2213" y1="5.85877" x2="28.4013" y2="29.8688" gradientUnits="userSpaceOnUse">
<stop stop-color="#FFE431"/>
<stop offset="1" stop-color="#F7AB00"/>
</linearGradient>
<linearGradient id="paint8_linear_2_195" x1="35.4513" y1="2.14875" x2="32.9413" y2="7.70875" gradientUnits="userSpaceOnUse">
<stop stop-color="#FFC345"/>
<stop offset="1" stop-color="#F6DB61"/>
</linearGradient>
<linearGradient id="paint9_linear_2_195" x1="35.6913" y1="2.32877" x2="33.2613" y2="7.68877" gradientUnits="userSpaceOnUse">
<stop stop-color="#FFC345"/>
<stop offset="1" stop-color="#F6DB61"/>
</linearGradient>
<linearGradient id="paint10_linear_2_195" x1="21.5112" y1="6.96876" x2="25.6213" y2="-2.12124" gradientUnits="userSpaceOnUse">
<stop stop-color="#FFC345"/>
<stop offset="1" stop-color="#F6DB61"/>
</linearGradient>
<linearGradient id="paint11_linear_2_195" x1="30.9013" y1="26.5488" x2="39.6613" y2="7.17877" gradientUnits="userSpaceOnUse">
<stop stop-color="#FFC345"/>
<stop offset="1" stop-color="#F6DB61"/>
</linearGradient>
<linearGradient id="paint12_linear_2_195" x1="6.88125" y1="12.7787" x2="-1.32875" y2="30.9187" gradientUnits="userSpaceOnUse">
<stop stop-color="#FFC345"/>
<stop offset="1" stop-color="#F6DB61"/>
</linearGradient>
<linearGradient id="paint13_linear_2_195" x1="21.1413" y1="32.9388" x2="16.8313" y2="42.4788" gradientUnits="userSpaceOnUse">
<stop stop-color="#FFC345"/>
<stop offset="1" stop-color="#F6DB61"/>
</linearGradient>
<linearGradient id="paint14_linear_2_195" x1="4.46127" y1="2.94877" x2="4.46127" y2="7.50877" gradientUnits="userSpaceOnUse">
<stop stop-color="#FFC345"/>
<stop offset="1" stop-color="#F6DB61"/>
</linearGradient>
<linearGradient id="paint15_linear_2_195" x1="21.1213" y1="32.9888" x2="16.8313" y2="42.4788" gradientUnits="userSpaceOnUse">
<stop stop-color="#FFC345"/>
<stop offset="1" stop-color="#F6DB61"/>
</linearGradient>
<linearGradient id="paint16_linear_2_195" x1="19.4113" y1="39.5788" x2="19.4113" y2="14.5188" gradientUnits="userSpaceOnUse">
<stop stop-color="#DE9103"/>
<stop offset="1" stop-color="#B55100"/>
</linearGradient>
<linearGradient id="paint17_linear_2_195" x1="22.1213" y1="34.0888" x2="18.1413" y2="10.5088" gradientUnits="userSpaceOnUse">
<stop stop-color="#FFC345"/>
<stop offset="1" stop-color="#F6DB61"/>
</linearGradient>
<linearGradient id="paint18_linear_2_195" x1="20.0712" y1="21.9188" x2="18.0412" y2="9.89878" gradientUnits="userSpaceOnUse">
<stop stop-color="#FFC345"/>
<stop offset="1" stop-color="#F6DB61"/>
</linearGradient>
<linearGradient id="paint19_linear_2_195" x1="21.9312" y1="33.3888" x2="19.2212" y2="17.3888" gradientUnits="userSpaceOnUse">
<stop stop-color="#FFC345"/>
<stop offset="1" stop-color="#F6DB61"/>
</linearGradient>
</defs>
</svg>
