<svg width="39" height="39" viewBox="0 0 39 39" fill="none" xmlns="http://www.w3.org/2000/svg">
<path d="M6.62103 37.7775C15.071 38.8675 23.521 38.8675 31.981 37.7775C34.721 37.3975 37.411 34.7075 37.781 31.9775C38.871 23.5275 38.871 15.0775 37.781 6.6175C37.401 3.8775 34.711 1.1875 31.981 0.8175C23.531 -0.2725 15.071 -0.2725 6.62103 0.8175C3.89103 1.1975 1.19103 3.8775 0.821032 6.6175C-0.268968 15.0675 -0.268968 23.5275 0.821032 31.9775C1.20103 34.7175 3.89103 37.4075 6.62103 37.7775Z" fill="url(#paint0_linear_2_143)"/>
<g style="mix-blend-mode:screen" opacity="0.47">
<path d="M7.99103 35.6075C15.531 36.3275 23.071 36.3275 30.611 35.6075C33.061 35.3575 35.361 33.0475 35.611 30.6075C36.331 23.0675 36.331 15.5275 35.611 7.9875C35.361 5.5375 33.051 3.2375 30.611 2.9875C23.071 2.2575 15.531 2.2575 7.99103 2.9875C5.54103 3.2375 3.24103 5.5375 2.99103 7.9875C2.26103 15.5275 2.26103 23.0675 2.99103 30.6075C3.24103 33.0575 5.55103 35.3575 7.99103 35.6075Z" fill="url(#paint1_linear_2_143)"/>
</g>
<g style="mix-blend-mode:screen" opacity="0.29">
<path d="M30.661 24.6975C28.251 14.9475 18.161 4.2075 7.43104 7.5575C5.68104 8.0675 4.15104 8.8575 2.82104 9.8375C2.87104 9.2175 2.92104 8.6075 2.98104 7.9875C3.23104 5.5375 5.54104 3.2375 7.98104 2.9875C15.521 2.2575 23.061 2.2575 30.601 2.9875C33.051 3.2375 35.351 5.5375 35.601 7.9875C36.321 15.5275 36.321 23.0675 35.601 30.6075C35.351 33.0575 33.041 35.3575 30.601 35.6075C30.221 35.6475 29.851 35.6775 29.471 35.7075C31.341 32.2975 31.471 28.2775 30.651 24.6975H30.661Z" fill="url(#paint2_linear_2_143)"/>
</g>
<g style="mix-blend-mode:screen" opacity="0.47">
<path d="M11.891 35.9175C10.591 35.8375 9.29104 35.7275 7.99104 35.6075C5.54104 35.3575 3.24104 33.0475 2.99104 30.6075C2.80104 28.6575 2.66104 26.7175 2.57104 24.7675C4.48104 29.0575 7.88104 33.7175 11.891 35.9175Z" fill="url(#paint3_linear_2_143)"/>
</g>
<g style="mix-blend-mode:multiply" opacity="0.67">
<path d="M0.811035 6.77749C1.38104 6.55749 2.50104 7.42749 2.84104 8.61749C3.00104 9.19749 2.67104 14.5275 2.75104 19.8275C2.75104 25.1275 3.15104 30.3775 2.92104 30.8075C2.45104 31.6775 1.32104 32.4775 0.821035 31.9675C-0.258965 23.5675 -0.258965 15.1775 0.811035 6.77749Z" fill="url(#paint4_linear_2_143)"/>
</g>
<g style="mix-blend-mode:screen" opacity="0.41">
<path d="M37.711 32.5075C37.151 32.7375 35.961 31.8775 35.641 30.6475C35.491 30.0475 35.871 24.5175 35.801 19.0275C35.821 13.5375 35.391 8.0875 35.611 7.6475C36.071 6.7475 37.261 5.9275 37.761 6.4575C38.891 15.1375 38.881 23.8275 37.711 32.5075Z" fill="url(#paint5_linear_2_143)"/>
</g>
<g style="mix-blend-mode:screen" opacity="0.41">
<path d="M6.51103 0.827502C5.77103 1.3675 7.76103 2.8875 8.89103 3.1375C9.45103 3.2575 14.301 2.8375 19.171 2.8175C24.051 2.7375 28.961 3.0675 29.681 3.1375C31.151 3.2475 32.721 1.3475 32.401 0.897502C23.771 -0.252498 15.141 -0.282498 6.51103 0.827502Z" fill="url(#paint6_linear_2_143)"/>
</g>
<path d="M7.99103 2.9875C15.531 2.2575 23.071 2.2575 30.611 2.9875C33.061 3.2375 35.361 5.5375 35.611 7.9875C36.231 14.4675 36.321 20.9575 35.871 27.4375C35.811 26.8475 35.951 22.1675 35.731 17.6175C35.571 13.0675 35.051 8.6475 35.061 8.6475C34.831 6.1875 32.541 3.8975 30.081 3.6675C30.081 3.6875 24.941 3.0375 19.581 2.9175C14.221 2.7075 8.66103 3.0075 7.73103 3.0175C7.81103 3.0075 7.90103 2.9975 7.99103 2.9875Z" fill="white"/>
<g style="mix-blend-mode:screen" opacity="0.6">
<path d="M22.171 28.9075C22.081 22.2275 19.891 15.2175 16.701 9.42749C15.281 6.83749 13.551 4.39749 11.461 2.69749C14.841 2.46749 18.231 2.39749 21.611 2.45749C21.611 2.61749 21.611 2.78749 21.621 2.94749C21.851 8.53749 25.061 13.8575 28.641 17.9275C30.801 20.3975 33.321 22.5675 36.061 24.0775C35.971 26.2475 35.821 28.4275 35.611 30.5975C35.361 33.0475 33.051 35.3475 30.611 35.5975C27.381 35.9075 24.141 36.0875 20.911 36.1275C21.891 33.9175 22.221 31.3375 22.171 28.8875V28.9075Z" fill="url(#paint7_linear_2_143)"/>
</g>
<g style="mix-blend-mode:screen" opacity="0.47">
<path d="M31.021 3.6575C31.021 3.6575 32.941 3.5175 33.361 1.1975C33.351 1.1775 36.241 2.0775 37.591 5.7375C37.591 5.7375 35.671 5.3675 34.941 7.5375C34.431 5.7375 32.831 4.1475 31.031 3.6575H31.021Z" fill="url(#paint8_linear_2_143)"/>
</g>
<g style="mix-blend-mode:screen" opacity="0.47">
<path d="M34.601 1.82751C35.301 2.29751 36.181 3.07751 36.911 4.29751C35.591 4.22751 34.611 4.71751 33.861 5.53751C33.511 5.10751 33.091 4.73751 32.641 4.41751C33.651 3.74751 34.411 2.91751 34.611 1.82751H34.601Z" fill="url(#paint9_linear_2_143)"/>
</g>
<g style="mix-blend-mode:screen" opacity="0.41">
<path d="M16.661 2.4975C21.741 1.2475 26.841 1.3475 31.951 1.9775C31.421 2.5775 30.531 3.1975 29.691 3.1275C28.761 2.9975 20.981 2.6075 15.181 2.8975C15.671 2.7475 16.161 2.6175 16.661 2.4875V2.4975Z" fill="url(#paint10_linear_2_143)"/>
</g>
<g style="mix-blend-mode:screen" opacity="0.41">
<path d="M35.611 7.63749C35.731 7.39749 35.911 7.15749 36.111 6.95749C36.551 8.10749 36.811 9.37749 36.951 10.4775C37.241 12.6875 37.261 14.9075 37.091 17.0975C36.911 19.5175 36.421 21.9275 35.741 24.3475C36.011 17.7275 35.361 8.24749 35.601 7.65749L35.611 7.63749Z" fill="url(#paint11_linear_2_143)"/>
</g>
<g style="mix-blend-mode:multiply" opacity="0.67">
<path d="M0.111034 19.4875C0.371034 21.3075 1.04103 24.3875 2.86103 25.9175C2.95103 28.5875 3.05103 30.5575 2.91103 30.8175C2.44103 31.6875 1.31103 32.4875 0.811035 31.9775C0.251034 27.5475 -0.0189655 23.1175 0.00103448 18.6775C0.0310345 18.9475 0.0710345 19.2175 0.111034 19.4775V19.4875Z" fill="url(#paint12_linear_2_143)"/>
</g>
<g style="mix-blend-mode:multiply" opacity="0.67">
<path d="M7.90103 35.5975C9.82103 36.2775 11.731 36.8275 13.651 37.1975C16.851 37.8175 20.031 38.1275 23.211 38.0575C24.771 38.0275 26.341 37.8475 27.911 37.5175C28.991 37.2875 30.341 37.0775 31.471 36.4975C32.031 36.9775 32.341 37.4975 31.971 37.7775C23.341 38.8775 14.711 38.8475 6.08103 37.6775C5.83103 37.3175 6.75103 36.0575 7.89103 35.5975H7.90103Z" fill="url(#paint13_linear_2_143)"/>
</g>
<path d="M2.75103 10.7575C2.29103 17.1475 2.34103 23.5375 2.92103 29.9275C3.04103 29.9775 3.15103 23.7975 2.75103 10.7575Z" fill="white"/>
<g style="mix-blend-mode:screen" opacity="0.41">
<path d="M6.25103 3.05749C6.25103 3.05749 3.03103 4.76749 2.82103 6.86749C2.78103 6.86749 1.64103 2.15749 6.25103 3.05749Z" fill="url(#paint14_linear_2_143)"/>
</g>
<g style="mix-blend-mode:multiply" opacity="0.67">
<path d="M7.91104 35.5975C7.91104 35.5975 7.96104 35.5975 7.99104 35.6075C15.371 36.3175 22.761 36.3275 30.141 35.6475C31.271 36.1475 32.601 37.3075 31.981 37.7675C23.351 38.8675 14.721 38.8375 6.09104 37.6675C5.83104 37.3075 6.76104 36.0375 7.92104 35.5875L7.91104 35.5975Z" fill="url(#paint15_linear_2_143)"/>
</g>
<path d="M29.441 0.547495C29.471 0.227495 14.971 0.447495 15.221 1.7475C15.371 2.25749 21.111 2.71749 21.111 2.75749C20.021 2.73749 18.931 2.73749 17.841 2.75749C17.841 2.72749 13.101 2.6375 12.341 1.8975C11.601 0.977495 22.231 -0.0925049 22.211 0.067495C24.621 0.137495 27.031 0.297495 29.441 0.547495Z" fill="white"/>
<path d="M17.631 7.2475H20.681C21.131 7.2475 21.491 7.6075 21.491 8.0575V10.8675C21.491 11.3175 21.131 11.6775 20.681 11.6775H17.631C17.181 11.6775 16.821 11.3175 16.821 10.8675V8.0575C16.821 7.6075 17.181 7.2475 17.631 7.2475ZM17.801 14.3675H20.511C20.961 14.3675 21.321 14.7275 21.321 15.1775V30.1475C21.321 30.5975 20.961 30.9575 20.511 30.9575H17.801C17.351 30.9575 16.991 30.5975 16.991 30.1475V15.1775C16.991 14.7275 17.351 14.3675 17.801 14.3675Z" fill="url(#paint16_linear_2_143)"/>
<g style="mix-blend-mode:multiply">
<path d="M16.831 10.6875C17.471 9.96749 18.471 9.66749 19.401 9.57749C20.091 9.51749 20.851 9.59749 21.481 9.90749V8.04749C21.481 7.59749 21.121 7.23749 20.671 7.23749H17.621C17.171 7.23749 16.811 7.59749 16.811 8.04749V10.6975C16.811 10.6975 16.811 10.6975 16.821 10.6875H16.831Z" fill="url(#paint17_linear_2_143)"/>
</g>
<g style="mix-blend-mode:multiply">
<path d="M18.041 22.1675C19.091 21.2575 20.331 21.1175 21.321 21.5875V15.1675C21.321 14.7175 20.961 14.3575 20.511 14.3575H17.801C17.351 14.3575 16.991 14.7175 16.991 15.1675V23.4175C17.271 22.9475 17.621 22.5275 18.031 22.1575L18.041 22.1675Z" fill="url(#paint18_linear_2_143)"/>
</g>
<g style="mix-blend-mode:multiply">
<path d="M20.511 14.3675H17.801C17.351 14.3675 16.991 14.7275 16.991 15.1775V16.0675C16.991 15.6175 17.351 15.2575 17.801 15.2575H20.511C20.961 15.2575 21.321 15.6175 21.321 16.0675V15.1775C21.321 14.7275 20.961 14.3675 20.511 14.3675Z" fill="url(#paint19_linear_2_143)"/>
<path d="M20.681 7.2475H17.631C17.181 7.2475 16.821 7.6075 16.821 8.0575V8.9475C16.821 8.5075 17.181 8.1375 17.631 8.1375H20.681C21.131 8.1375 21.491 8.4975 21.491 8.9475V8.0575C21.491 7.6075 21.131 7.2475 20.681 7.2475Z" fill="url(#paint20_linear_2_143)"/>
</g>
<g style="mix-blend-mode:screen">
<path d="M20.511 30.9475H17.801C17.351 30.9475 16.991 30.5875 16.991 30.1375V30.8075C16.991 31.2575 17.351 31.6175 17.801 31.6175H20.511C20.961 31.6175 21.321 31.2575 21.321 30.8075V30.1375C21.321 30.5875 20.961 30.9475 20.511 30.9475Z" fill="url(#paint21_linear_2_143)"/>
<path d="M20.681 11.6675H17.631C17.181 11.6675 16.821 11.3075 16.821 10.8575V11.5275C16.821 11.9775 17.181 12.3275 17.631 12.3275H20.681C21.131 12.3275 21.491 11.9675 21.491 11.5275V10.8575C21.491 11.3075 21.131 11.6675 20.681 11.6675Z" fill="url(#paint22_linear_2_143)"/>
</g>
<defs>
<linearGradient id="paint0_linear_2_143" x1="11.281" y1="7.0475" x2="30.351" y2="36.1775" gradientUnits="userSpaceOnUse">
<stop stop-color="#FFC206"/>
<stop offset="1" stop-color="#EB7C00"/>
</linearGradient>
<linearGradient id="paint1_linear_2_143" x1="22.931" y1="32.1975" x2="15.221" y2="4.7775" gradientUnits="userSpaceOnUse">
<stop stop-color="#F19500"/>
<stop offset="0.18" stop-color="#F29B0A"/>
<stop offset="0.51" stop-color="#F6AB27"/>
<stop offset="0.93" stop-color="#FDC556"/>
<stop offset="1" stop-color="#FFCA5F"/>
</linearGradient>
<linearGradient id="paint2_linear_2_143" x1="25.641" y1="5.2775" x2="11.021" y2="37.6075" gradientUnits="userSpaceOnUse">
<stop stop-color="#FFC345"/>
<stop offset="1" stop-color="#F6DB61"/>
</linearGradient>
<linearGradient id="paint3_linear_2_143" x1="19.441" y1="3.34749" x2="5.35104" y2="34.4775" gradientUnits="userSpaceOnUse">
<stop stop-color="#FFC345"/>
<stop offset="1" stop-color="#F6DB61"/>
</linearGradient>
<linearGradient id="paint4_linear_2_143" x1="5.22104" y1="11.3575" x2="-3.23896" y2="30.0575" gradientUnits="userSpaceOnUse">
<stop stop-color="#FFC345"/>
<stop offset="1" stop-color="#F6DB61"/>
</linearGradient>
<linearGradient id="paint5_linear_2_143" x1="33.161" y1="27.7975" x2="41.921" y2="8.4275" gradientUnits="userSpaceOnUse">
<stop stop-color="#FFC345"/>
<stop offset="1" stop-color="#F6DB61"/>
</linearGradient>
<linearGradient id="paint6_linear_2_143" x1="17.361" y1="5.6175" x2="21.661" y2="-3.8925" gradientUnits="userSpaceOnUse">
<stop stop-color="#FFC345"/>
<stop offset="1" stop-color="#F6DB61"/>
</linearGradient>
<linearGradient id="paint7_linear_2_143" x1="20.221" y1="5.85749" x2="28.391" y2="29.8675" gradientUnits="userSpaceOnUse">
<stop stop-color="#FFE431"/>
<stop offset="1" stop-color="#F7AB00"/>
</linearGradient>
<linearGradient id="paint8_linear_2_143" x1="35.451" y1="2.1475" x2="32.931" y2="7.7075" gradientUnits="userSpaceOnUse">
<stop stop-color="#FFC345"/>
<stop offset="1" stop-color="#F6DB61"/>
</linearGradient>
<linearGradient id="paint9_linear_2_143" x1="35.681" y1="2.32751" x2="33.261" y2="7.68752" gradientUnits="userSpaceOnUse">
<stop stop-color="#FFC345"/>
<stop offset="1" stop-color="#F6DB61"/>
</linearGradient>
<linearGradient id="paint10_linear_2_143" x1="21.511" y1="6.9675" x2="25.621" y2="-2.1225" gradientUnits="userSpaceOnUse">
<stop stop-color="#FFC345"/>
<stop offset="1" stop-color="#F6DB61"/>
</linearGradient>
<linearGradient id="paint11_linear_2_143" x1="30.901" y1="26.5575" x2="39.661" y2="7.17748" gradientUnits="userSpaceOnUse">
<stop stop-color="#FFC345"/>
<stop offset="1" stop-color="#F6DB61"/>
</linearGradient>
<linearGradient id="paint12_linear_2_143" x1="6.87103" y1="12.7775" x2="-1.33897" y2="30.9175" gradientUnits="userSpaceOnUse">
<stop stop-color="#FFC345"/>
<stop offset="1" stop-color="#F6DB61"/>
</linearGradient>
<linearGradient id="paint13_linear_2_143" x1="21.131" y1="32.9375" x2="16.821" y2="42.4775" gradientUnits="userSpaceOnUse">
<stop stop-color="#FFC345"/>
<stop offset="1" stop-color="#F6DB61"/>
</linearGradient>
<linearGradient id="paint14_linear_2_143" x1="4.46103" y1="2.94749" x2="4.46103" y2="7.50749" gradientUnits="userSpaceOnUse">
<stop stop-color="#FFC345"/>
<stop offset="1" stop-color="#F6DB61"/>
</linearGradient>
<linearGradient id="paint15_linear_2_143" x1="21.111" y1="32.9875" x2="16.821" y2="42.4775" gradientUnits="userSpaceOnUse">
<stop stop-color="#FFC345"/>
<stop offset="1" stop-color="#F6DB61"/>
</linearGradient>
<linearGradient id="paint16_linear_2_143" x1="19.161" y1="39.5975" x2="19.161" y2="17.7375" gradientUnits="userSpaceOnUse">
<stop stop-color="#DE9103"/>
<stop offset="1" stop-color="#B55100"/>
</linearGradient>
<linearGradient id="paint17_linear_2_143" x1="24.181" y1="37.7775" x2="19.751" y2="12.7175" gradientUnits="userSpaceOnUse">
<stop stop-color="#FFC345"/>
<stop offset="1" stop-color="#F6DB61"/>
</linearGradient>
<linearGradient id="paint18_linear_2_143" x1="22.481" y1="38.0875" x2="18.051" y2="13.0175" gradientUnits="userSpaceOnUse">
<stop stop-color="#FFC345"/>
<stop offset="1" stop-color="#F6DB61"/>
</linearGradient>
<linearGradient id="paint19_linear_2_143" x1="19.431" y1="17.1175" x2="19.001" y2="14.7075" gradientUnits="userSpaceOnUse">
<stop stop-color="#FFC345"/>
<stop offset="1" stop-color="#F6DB61"/>
</linearGradient>
<linearGradient id="paint20_linear_2_143" x1="19.431" y1="10.0375" x2="19.001" y2="7.5675" gradientUnits="userSpaceOnUse">
<stop stop-color="#FFC345"/>
<stop offset="1" stop-color="#F6DB61"/>
</linearGradient>
<linearGradient id="paint21_linear_2_143" x1="19.501" y1="32.4575" x2="19.111" y2="30.2775" gradientUnits="userSpaceOnUse">
<stop stop-color="#FFC345"/>
<stop offset="1" stop-color="#F6DB61"/>
</linearGradient>
<linearGradient id="paint22_linear_2_143" x1="19.511" y1="13.2275" x2="19.111" y2="10.9875" gradientUnits="userSpaceOnUse">
<stop stop-color="#FFC345"/>
<stop offset="1" stop-color="#F6DB61"/>
</linearGradient>
</defs>
</svg>
