<svg width="71" height="71" viewBox="0 0 71 71" fill="none" xmlns="http://www.w3.org/2000/svg">
<path d="M58.819 69.4873C43.2762 71.4922 27.7335 71.4922 12.1723 69.4873C7.13236 68.7883 2.18442 63.8404 1.50385 58.8189C-0.501079 43.2761 -0.501079 27.7149 1.50385 12.1721C2.20281 7.13221 7.13236 2.20266 12.1723 1.5037C27.7151 -0.501232 43.2762 -0.501232 58.819 1.5037C63.8589 2.20266 68.8069 7.1506 69.4874 12.1721C71.4924 27.7149 71.4924 43.2577 69.4874 58.8189C68.7885 63.8588 63.8405 68.8067 58.819 69.4873Z" fill="url(#paint0_linear_2_852)"/>
<g style="mix-blend-mode:screen" opacity="0.47">
<path d="M56.2992 65.4958C42.4303 66.8202 28.5613 66.8202 14.6924 65.4958C10.1859 65.036 5.95528 60.787 5.49544 56.2989C4.15269 42.43 4.15269 28.561 5.49544 14.6921C5.95528 10.1856 10.1859 5.95501 14.6924 5.49516C28.5613 4.15241 42.4303 4.15241 56.2992 5.49516C60.8057 5.95501 65.0363 10.1856 65.4961 14.6921C66.8389 28.561 66.8389 42.43 65.4961 56.2989C65.0363 60.8054 60.7873 65.036 56.2992 65.4958Z" fill="url(#paint1_linear_2_852)"/>
</g>
<g style="mix-blend-mode:screen" opacity="0.29">
<path d="M14.5819 45.4282C19.0332 27.4942 37.5926 7.73921 57.3292 13.9011C60.5481 14.8392 63.3624 16.2923 65.8088 18.0949C65.7168 16.9545 65.6248 15.8325 65.5145 14.6921C65.0546 10.1856 60.8056 5.95501 56.3175 5.49516C42.4486 4.15241 28.5796 4.15241 14.7107 5.49516C10.2042 5.95501 5.97362 10.1856 5.51378 14.6921C4.17103 28.561 4.17103 42.43 5.51378 56.2989C5.97362 60.8054 10.2042 65.036 14.7107 65.4958C15.4097 65.5694 16.0902 65.6246 16.7892 65.6798C13.3495 59.4075 13.1104 52.0132 14.6187 45.4282H14.5819Z" fill="url(#paint2_linear_2_852)"/>
</g>
<g style="mix-blend-mode:screen" opacity="0.47">
<path d="M49.1256 66.0661C51.5168 65.9189 53.908 65.7166 56.2992 65.4959C60.8057 65.036 65.0363 60.787 65.4961 56.2989C65.8456 52.7121 66.1031 49.1437 66.2687 45.5569C62.737 53.4479 56.5015 62.0194 49.1256 66.0661Z" fill="url(#paint3_linear_2_852)"/>
</g>
<g style="mix-blend-mode:multiply" opacity="0.67">
<path d="M69.506 12.4664C68.4575 12.0617 66.3974 13.662 65.772 15.8509C65.4777 16.9177 66.0847 26.7216 65.9376 36.4703C65.9376 46.2191 65.2018 55.8758 65.6249 56.6668C66.4894 58.267 68.5679 59.7385 69.4876 58.8005C71.4741 43.3496 71.4741 27.9172 69.506 12.4664Z" fill="url(#paint4_linear_2_852)"/>
</g>
<g style="mix-blend-mode:screen" opacity="0.41">
<path d="M1.63272 59.7938C2.66278 60.2169 4.85164 58.635 5.44025 56.3726C5.71615 55.2689 5.01719 45.0971 5.14594 34.9989C5.10916 24.9007 5.90009 14.8761 5.49543 14.0667C4.64931 12.4113 2.46044 10.903 1.54075 11.8779C-0.53775 27.8437 -0.519356 43.828 1.63272 59.7938Z" fill="url(#paint5_linear_2_852)"/>
</g>
<g style="mix-blend-mode:screen" opacity="0.41">
<path d="M59.0215 1.52209C60.3827 2.51536 56.7223 5.31122 54.6254 5.77107C53.5953 5.99179 44.6927 5.21925 35.7165 5.18247C26.7403 5.03531 17.709 5.64231 16.3846 5.77107C13.6807 5.9734 10.7929 2.47857 11.3815 1.65085C27.2738 -0.482835 43.1476 -0.519623 59.0215 1.52209Z" fill="url(#paint6_linear_2_852)"/>
</g>
<path d="M56.2992 5.49516C42.4303 4.15241 28.5613 4.15241 14.6924 5.49516C10.1859 5.95501 5.95529 10.1856 5.49544 14.6921C4.35502 26.6113 4.18948 38.5489 5.0172 50.4681C5.12756 49.3828 4.87005 40.7745 5.27471 32.4053C5.56901 24.0361 6.52549 15.9061 6.52549 15.9061C6.94855 11.3812 11.1607 7.169 15.6856 6.74594C15.6856 6.78273 25.1401 5.58713 34.9991 5.3664C44.8582 4.98013 55.0852 5.53195 56.7958 5.55034C56.6303 5.53195 56.4831 5.51355 56.3176 5.49516H56.2992Z" fill="white"/>
<g style="mix-blend-mode:screen" opacity="0.6">
<path d="M30.2168 53.1719C30.3823 40.8849 34.4106 27.9908 40.2782 17.3407C42.8901 12.5767 46.0722 8.08865 49.9165 4.9617C43.6994 4.53864 37.4639 4.40988 31.2468 4.52025C31.2468 4.81455 31.2468 5.12724 31.2284 5.42154C30.8054 15.7037 24.9009 25.4892 18.3159 32.9755C14.3429 37.5188 9.68924 41.5102 4.66772 44.2877C4.83327 48.2792 5.10918 52.289 5.49545 56.2805C5.95529 60.787 10.1859 65.0176 14.6924 65.4774C20.6336 66.0476 26.5932 66.3787 32.5344 66.4523C30.7318 62.3872 30.1248 57.6416 30.2168 53.1351V53.1719Z" fill="url(#paint7_linear_2_852)"/>
</g>
<g style="mix-blend-mode:screen" opacity="0.47">
<path d="M13.9382 6.7276C13.9382 6.7276 10.4066 6.47008 9.63408 2.20271C9.65247 2.16593 4.33665 3.82137 1.85349 10.5535C1.85349 10.5535 5.3851 9.87294 6.72785 13.8644C7.66594 10.5535 10.609 7.62889 13.9198 6.7276H13.9382Z" fill="url(#paint8_linear_2_852)"/>
</g>
<g style="mix-blend-mode:screen" opacity="0.47">
<path d="M7.35322 3.36151C6.06565 4.22602 4.447 5.66074 3.10425 7.90479C5.53223 7.77603 7.33483 8.67733 8.71437 10.1856C9.37654 9.39469 10.1307 8.71412 10.9584 8.12551C9.10064 6.89313 7.70271 5.36644 7.33483 3.36151H7.35322Z" fill="url(#paint9_linear_2_852)"/>
</g>
<g style="mix-blend-mode:screen" opacity="0.41">
<path d="M40.3517 4.59389C31.0077 2.29466 21.6452 2.4786 12.2276 3.63741C13.2024 4.74104 14.8395 5.88146 16.3846 5.7527C18.0952 5.51358 32.4056 4.79622 43.074 5.32964C42.1727 5.05373 41.253 4.81461 40.3517 4.57549V4.59389Z" fill="url(#paint10_linear_2_852)"/>
</g>
<g style="mix-blend-mode:screen" opacity="0.41">
<path d="M5.49541 14.0483C5.27468 13.6069 4.9436 13.1654 4.55732 12.7975C3.748 14.9128 3.26976 17.2489 3.01224 19.2722C2.46043 23.3372 2.44203 27.4206 2.75473 31.4489C3.08582 35.9002 3.98712 40.3331 5.2379 44.7844C4.74126 32.6077 5.93686 15.1704 5.49541 14.0851V14.0483Z" fill="url(#paint11_linear_2_852)"/>
</g>
<g style="mix-blend-mode:multiply" opacity="0.67">
<path d="M70.7752 35.845C70.2969 39.1927 69.0645 44.858 65.7169 47.6722C65.5513 52.5834 65.3674 56.207 65.6433 56.6852C66.5078 58.2855 68.5863 59.757 69.506 58.8189C70.5544 50.6704 71.0511 42.5219 70.9959 34.3735C70.9407 34.8701 70.8671 35.3667 70.7936 35.845H70.7752Z" fill="url(#paint12_linear_2_852)"/>
</g>
<g style="mix-blend-mode:multiply" opacity="0.67">
<path d="M56.4647 65.4774C52.9331 66.7282 49.4199 67.7398 45.8883 68.4204C40.0023 69.5608 34.153 70.131 28.3038 70.0023C25.4343 69.9471 22.5465 69.616 19.6587 69.009C17.6721 68.5859 15.189 68.1997 13.1105 67.1328C12.0804 68.0157 11.5102 68.9722 12.1724 69.4872C28.0463 71.5106 43.9201 71.4554 59.8124 69.3033C60.2723 68.6411 58.58 66.3235 56.4831 65.4774H56.4647Z" fill="url(#paint13_linear_2_852)"/>
</g>
<path d="M65.9376 19.7872C66.7837 31.5408 66.6917 43.2945 65.6249 55.0481C65.4042 55.1401 65.2018 43.7727 65.9376 19.7872Z" fill="white"/>
<g style="mix-blend-mode:screen" opacity="0.41">
<path d="M59.4998 5.6239C59.4998 5.6239 65.4226 8.76924 65.8088 12.6319C65.8824 12.6319 67.9793 3.96845 59.4998 5.6239Z" fill="url(#paint14_linear_2_852)"/>
</g>
<g style="mix-blend-mode:multiply" opacity="0.67">
<path d="M56.4464 65.4775C56.4464 65.4775 56.3544 65.4775 56.2992 65.4959C42.7246 66.8018 29.1315 66.8202 15.5569 65.5694C13.4968 66.4891 11.032 68.6228 12.1724 69.4689C28.0463 71.4923 43.9202 71.4371 59.8124 69.285C60.2723 68.6228 58.5616 66.2868 56.4464 65.4591V65.4775Z" fill="url(#paint15_linear_2_852)"/>
</g>
<path d="M16.8444 1.00711C16.7892 0.41851 43.4603 0.823175 43.0188 3.21437C42.7429 4.15246 32.1849 4.99857 32.1849 5.07215C34.1898 5.03536 36.1947 5.03536 38.1997 5.07215C38.1997 5.01697 46.9183 4.85142 48.3163 3.49028C49.659 1.79805 30.1064 -0.170092 30.1432 0.124209C25.7102 0.252966 21.2773 0.547267 16.8444 1.00711Z" fill="white"/>
<path d="M36.2683 15.8694C32.1665 15.5935 28.3222 16.6235 25.1033 18.5733C21.9947 16.1821 20.4128 16.2924 20.045 17.8559C19.2172 21.4979 18.0216 30.7316 18.7942 31.5041C19.769 32.479 28.5613 30.8052 32.1849 29.9407C33.7668 29.5728 33.8771 27.9541 31.3572 24.772C32.9022 24.2202 34.5945 24.0178 36.3787 24.2386C41.2898 24.8824 45.1893 28.9106 45.6676 33.8218C46.293 40.2596 41.253 45.6674 34.944 45.6674C29.4074 45.6674 24.8274 41.4736 24.2387 36.0842C24.1652 35.4772 23.6685 34.999 23.0615 34.999H17.1019C16.4214 34.999 15.8696 35.5876 15.9063 36.2681C16.6053 46.164 24.8641 53.9814 34.944 53.9814C45.9435 53.9814 54.7541 44.6925 53.9816 33.5275C53.3194 24.0914 45.6676 16.4764 36.2499 15.8326L36.2683 15.8694Z" fill="url(#paint16_linear_2_852)"/>
<g style="mix-blend-mode:multiply">
<path d="M20.0633 18.9963C20.4128 17.4513 22.0131 17.3409 25.1216 19.7321C28.3406 17.7823 32.1849 16.7707 36.2867 17.0282C45.7227 17.6536 53.3746 25.287 54.0183 34.7231C54.0183 34.999 54.0551 35.2749 54.0551 35.5508C54.0735 34.907 54.0551 34.2448 54.0183 33.5826C53.3562 24.1466 45.7043 16.5316 36.2867 15.8878C32.1849 15.6119 28.3406 16.6419 25.1216 18.5917C22.0131 16.2005 20.4312 16.3108 20.0633 17.8743C19.3828 20.8541 18.4631 27.5863 18.5734 30.3637C18.6654 27.1816 19.4563 21.6451 20.0633 19.0331V18.9963Z" fill="url(#paint17_linear_2_852)"/>
<path d="M17.1203 36.1761H23.0799C23.7053 36.1761 24.202 36.6544 24.2571 37.2614C24.8457 42.6508 29.4074 46.8446 34.9624 46.8446C41.1059 46.8446 46.0354 41.7127 45.7228 35.4956C45.4285 41.1793 40.738 45.6858 34.9624 45.6858C29.1867 45.6858 24.8457 41.492 24.2571 36.1026C24.1836 35.4956 23.6869 35.0173 23.0799 35.0173H17.1203C16.4398 35.0173 15.888 35.6059 15.9247 36.2865C15.9247 36.5072 15.9615 36.7464 15.9983 36.9671C16.1639 36.5072 16.6053 36.1761 17.1203 36.1761Z" fill="url(#paint18_linear_2_852)"/>
<path d="M33.2517 29.1313C33.5276 28.4323 33.3437 27.2183 31.3755 24.7536V25.894C32.4424 27.2367 33.031 28.3036 33.2517 29.1129V29.1313Z" fill="url(#paint19_linear_2_852)"/>
</g>
<g style="mix-blend-mode:multiply">
<path d="M54.0183 33.5458C53.3562 24.1098 45.7043 16.4947 36.2867 15.8509C32.1848 15.575 28.3405 16.6051 25.1216 18.5548C22.0131 16.1636 20.4312 16.274 20.0633 17.8375C19.2356 21.4795 18.04 30.7132 18.8125 31.4857C19.2172 31.8904 20.983 31.8352 23.1719 31.5777C22.9328 30.7867 23.319 26.0963 29.7017 23.2637C34.7416 21.038 40.5724 22.1048 44.6559 26.1147C52.6204 33.9505 48.96 47.5987 46.3481 50.229C51.3512 46.4951 54.4782 40.3699 53.9999 33.5642L54.0183 33.5458Z" fill="url(#paint20_linear_2_852)"/>
</g>
<g style="mix-blend-mode:screen">
<path d="M34.9623 53.9997C25.2136 53.9997 17.1755 46.6973 16.0167 37.2613C15.9431 37.4268 15.9063 37.6108 15.9247 37.8131C16.6237 47.709 24.8825 55.5263 34.9623 55.5263C45.7411 55.5263 54.4414 46.5869 54.0367 35.7162C53.6137 45.888 45.2261 53.9813 34.9623 53.9813V53.9997Z" fill="url(#paint21_linear_2_852)"/>
<path d="M45.686 33.8401C45.2077 28.9105 41.3082 24.9007 36.3971 24.2569C34.6129 24.0178 32.9206 24.2385 31.3755 24.7903C31.7434 25.2502 32.0377 25.6548 32.2952 26.0411C33.5828 25.71 34.9623 25.5997 36.3971 25.802C41.3082 26.4458 45.2077 30.474 45.686 35.3852C45.686 35.4955 45.686 35.6059 45.7043 35.7163C45.7411 35.1093 45.7411 34.4839 45.686 33.8585V33.8401Z" fill="url(#paint22_linear_2_852)"/>
<path d="M32.2032 31.4673C33.1781 31.2465 33.8403 29.9222 33.3437 28.2667C33.3437 29.5911 32.6631 29.8302 32.2032 29.9406C28.5613 30.7867 19.7874 32.4789 18.8125 31.504C18.6838 31.3753 18.6102 31.0258 18.5734 30.4924C18.5182 31.8351 18.5734 32.81 18.8125 33.0307C19.7874 34.0056 28.5797 32.3318 32.2032 31.4673Z" fill="url(#paint23_linear_2_852)"/>
</g>
<defs>
<linearGradient id="paint0_linear_2_852" x1="22.2889" y1="6.30449" x2="52.2156" y2="72.4855" gradientUnits="userSpaceOnUse">
<stop stop-color="#FFC206"/>
<stop offset="1" stop-color="#EB7C00"/>
</linearGradient>
<linearGradient id="paint1_linear_2_852" x1="42.0256" y1="64.4106" x2="29.9408" y2="10.8294" gradientUnits="userSpaceOnUse">
<stop stop-color="#F19500"/>
<stop offset="0.18" stop-color="#F29B0A"/>
<stop offset="0.51" stop-color="#F6AB27"/>
<stop offset="0.93" stop-color="#FDC556"/>
<stop offset="1" stop-color="#FFCA5F"/>
</linearGradient>
<linearGradient id="paint2_linear_2_852" x1="23.834" y1="9.70735" x2="50.7258" y2="69.1746" gradientUnits="userSpaceOnUse">
<stop stop-color="#FFC345"/>
<stop offset="1" stop-color="#F6DB61"/>
</linearGradient>
<linearGradient id="paint3_linear_2_852" x1="35.2383" y1="6.15736" x2="61.1368" y2="63.4174" gradientUnits="userSpaceOnUse">
<stop stop-color="#FFC345"/>
<stop offset="1" stop-color="#F6DB61"/>
</linearGradient>
<linearGradient id="paint4_linear_2_852" x1="61.3759" y1="20.8908" x2="76.9371" y2="55.2872" gradientUnits="userSpaceOnUse">
<stop stop-color="#FFC345"/>
<stop offset="1" stop-color="#F6DB61"/>
</linearGradient>
<linearGradient id="paint5_linear_2_852" x1="9.98352" y1="51.1303" x2="-6.12947" y2="15.5015" gradientUnits="userSpaceOnUse">
<stop stop-color="#FFC345"/>
<stop offset="1" stop-color="#F6DB61"/>
</linearGradient>
<linearGradient id="paint6_linear_2_852" x1="39.0458" y1="10.3327" x2="31.1549" y2="-7.1598" gradientUnits="userSpaceOnUse">
<stop stop-color="#FFC345"/>
<stop offset="1" stop-color="#F6DB61"/>
</linearGradient>
<linearGradient id="paint7_linear_2_852" x1="33.8036" y1="10.7741" x2="18.7574" y2="54.9377" gradientUnits="userSpaceOnUse">
<stop stop-color="#FFE431"/>
<stop offset="1" stop-color="#F7AB00"/>
</linearGradient>
<linearGradient id="paint8_linear_2_852" x1="5.78976" y1="3.95013" x2="10.4066" y2="14.1771" gradientUnits="userSpaceOnUse">
<stop stop-color="#FFC345"/>
<stop offset="1" stop-color="#F6DB61"/>
</linearGradient>
<linearGradient id="paint9_linear_2_852" x1="5.3483" y1="4.2812" x2="9.818" y2="14.1403" gradientUnits="userSpaceOnUse">
<stop stop-color="#FFC345"/>
<stop offset="1" stop-color="#F6DB61"/>
</linearGradient>
<linearGradient id="paint10_linear_2_852" x1="31.4123" y1="12.8159" x2="23.8525" y2="-3.90406" gradientUnits="userSpaceOnUse">
<stop stop-color="#FFC345"/>
<stop offset="1" stop-color="#F6DB61"/>
</linearGradient>
<linearGradient id="paint11_linear_2_852" x1="14.1589" y1="48.8495" x2="-1.95409" y2="13.2022" gradientUnits="userSpaceOnUse">
<stop stop-color="#FFC345"/>
<stop offset="1" stop-color="#F6DB61"/>
</linearGradient>
<linearGradient id="paint12_linear_2_852" x1="58.3593" y1="23.5027" x2="73.4423" y2="56.8691" gradientUnits="userSpaceOnUse">
<stop stop-color="#FFC345"/>
<stop offset="1" stop-color="#F6DB61"/>
</linearGradient>
<linearGradient id="paint13_linear_2_852" x1="32.1113" y1="60.5846" x2="40.0391" y2="78.1323" gradientUnits="userSpaceOnUse">
<stop stop-color="#FFC345"/>
<stop offset="1" stop-color="#F6DB61"/>
</linearGradient>
<linearGradient id="paint14_linear_2_852" x1="62.7923" y1="5.42156" x2="62.7923" y2="13.8092" gradientUnits="userSpaceOnUse">
<stop stop-color="#FFC345"/>
<stop offset="1" stop-color="#F6DB61"/>
</linearGradient>
<linearGradient id="paint15_linear_2_852" x1="32.1481" y1="60.6767" x2="40.0391" y2="78.1324" gradientUnits="userSpaceOnUse">
<stop stop-color="#FFC345"/>
<stop offset="1" stop-color="#F6DB61"/>
</linearGradient>
<linearGradient id="paint16_linear_2_852" x1="34.9991" y1="72.0074" x2="34.9991" y2="31.7984" gradientUnits="userSpaceOnUse">
<stop stop-color="#DE9103"/>
<stop offset="1" stop-color="#B55100"/>
</linearGradient>
<linearGradient id="paint17_linear_2_852" x1="36.3051" y1="37.5925" x2="36.3051" y2="22.2153" gradientUnits="userSpaceOnUse">
<stop stop-color="#FFC345"/>
<stop offset="1" stop-color="#F6DB61"/>
</linearGradient>
<linearGradient id="paint18_linear_2_852" x1="30.8237" y1="48.077" x2="30.8237" y2="38.8433" gradientUnits="userSpaceOnUse">
<stop stop-color="#FFC345"/>
<stop offset="1" stop-color="#F6DB61"/>
</linearGradient>
<linearGradient id="paint19_linear_2_852" x1="32.3688" y1="29.5911" x2="32.3688" y2="26.1883" gradientUnits="userSpaceOnUse">
<stop stop-color="#FFC345"/>
<stop offset="1" stop-color="#F6DB61"/>
</linearGradient>
<linearGradient id="paint20_linear_2_852" x1="36.3051" y1="57.9912" x2="36.3051" y2="28.1932" gradientUnits="userSpaceOnUse">
<stop stop-color="#FFC345"/>
<stop offset="1" stop-color="#F6DB61"/>
</linearGradient>
<linearGradient id="paint21_linear_2_852" x1="34.9991" y1="57.6048" x2="34.9991" y2="42.154" gradientUnits="userSpaceOnUse">
<stop stop-color="#FFC345"/>
<stop offset="1" stop-color="#F6DB61"/>
</linearGradient>
<linearGradient id="paint22_linear_2_852" x1="38.5675" y1="36.9119" x2="38.5675" y2="27.8989" gradientUnits="userSpaceOnUse">
<stop stop-color="#FFC345"/>
<stop offset="1" stop-color="#F6DB61"/>
</linearGradient>
<linearGradient id="paint23_linear_2_852" x1="26.0413" y1="33.8401" x2="26.0413" y2="29.9038" gradientUnits="userSpaceOnUse">
<stop stop-color="#FFC345"/>
<stop offset="1" stop-color="#F6DB61"/>
</linearGradient>
</defs>
</svg>
