<svg width="22" height="20" viewBox="0 0 22 20" fill="none" xmlns="http://www.w3.org/2000/svg">
<g style="mix-blend-mode:multiply" opacity="0.47">
<path d="M3.01622 0.0222569C1.38011 0.0222569 0.0445198 1.24655 0 2.7491L0 16.9175C0 17.1735 0.0445202 17.4295 0.1113 17.6632C0.1113 17.6632 0.16695 18.0083 0.445199 18.4089C0.456329 18.4312 0.467458 18.4423 0.478588 18.4646C0.500848 18.498 0.523109 18.5202 0.545368 18.5536C0.556498 18.5759 0.578757 18.5981 0.601017 18.6204C0.623277 18.6538 0.656668 18.6761 0.678928 18.7094C0.701188 18.7317 0.723447 18.754 0.745707 18.7762C0.779097 18.8096 0.801356 18.8319 0.834746 18.8653C0.857006 18.8875 0.890397 18.9098 0.912657 18.932C0.946047 18.9654 0.979437 18.9877 1.01283 19.0211C1.04622 19.0433 1.07961 19.0767 1.12413 19.099C1.19091 19.1435 1.25769 19.188 1.32446 19.2214C1.36898 19.2437 1.40237 19.2659 1.44689 19.2882C1.46915 19.2882 1.48028 19.3105 1.50254 19.3216C1.80305 19.4774 2.12582 19.5998 2.47085 19.6555C2.47085 19.6555 2.47085 19.6555 2.49311 19.6555C2.62667 19.6778 2.77136 19.6889 2.91605 19.7H2.9717C2.9717 19.7 3.00509 19.7 3.01622 19.7L18.242 19.7C18.242 19.7 18.2754 19.7 18.2865 19.7H18.5536C18.5536 19.7 18.5536 19.7 18.5536 19.6889C20.0673 19.5442 21.2582 18.3422 21.2582 16.9064L21.2582 2.81588C21.2582 2.71571 21.2582 2.61554 21.2359 2.51537C21.2137 2.35955 21.1803 2.21486 21.1358 2.07017C21.1358 2.07017 21.1358 2.04791 21.1135 1.99226C21.1135 1.99226 21.1135 1.97 21.1135 1.95887C21.1024 1.91435 21.0801 1.86983 21.0467 1.80305C20.8798 1.40237 20.6127 1.04621 20.2788 0.756834C20.2565 0.734575 20.2231 0.712315 20.2009 0.690056C20.1675 0.667795 20.1341 0.634405 20.1007 0.612146C20.0562 0.578756 20.0117 0.545366 19.9671 0.511976C19.9337 0.489716 19.9115 0.478586 19.8781 0.456327C19.8336 0.422937 19.7779 0.400677 19.7223 0.367289C19.6889 0.345028 19.6444 0.322767 19.611 0.311636C19.5665 0.289377 19.5219 0.278248 19.4774 0.255987C19.4218 0.233728 19.355 0.211466 19.2882 0.189207C19.2548 0.189207 19.2326 0.166948 19.1992 0.155819C19.1213 0.133558 19.0433 0.1113 18.9543 0.0890388C18.932 0.0890388 18.9209 0.0890388 18.8987 0.0779095C18.6761 0.0333881 18.4535 0 18.2309 0L3.00509 0L3.01622 0.0222569Z" fill="#9D3800"/>
</g>
<path d="M1.11298 16.5169L1.11298 3.66182C1.11298 2.25945 2.25936 1.11306 3.66173 1.11306L16.5168 1.11306C17.9192 1.11306 19.0656 2.25945 19.0656 3.66182L19.0656 16.5169C19.0656 17.9193 17.9192 19.0657 16.5168 19.0657L3.66173 19.0657C2.25936 19.0657 1.11298 17.9193 1.11298 16.5169Z" fill="url(#paint0_linear_2_2655)"/>
<g style="mix-blend-mode:screen" opacity="0.47">
<path d="M2.24829 15.7044L2.24829 4.47425C2.24829 3.24995 3.24999 2.24826 4.47428 2.24826L15.7044 2.24826C16.9287 2.24826 17.9304 3.24995 17.9304 4.47425L17.9304 15.7044C17.9304 16.9287 16.9287 17.9304 15.7044 17.9304L4.47428 17.9304C3.24999 17.9304 2.24829 16.9287 2.24829 15.7044Z" fill="url(#paint1_linear_2_2655)"/>
</g>
<g style="mix-blend-mode:screen" opacity="0.29">
<path d="M12.677 15.415C7.90229 14.2463 3.2611 9.63855 4.44087 4.38521C4.63008 3.56159 4.95285 2.84928 5.39805 2.24826H4.48539C3.2611 2.24826 2.2594 3.24995 2.2594 4.47425L2.2594 15.7044C2.2594 16.9287 3.2611 17.9304 4.48539 17.9304L15.7155 17.9304C16.9398 17.9304 17.9415 16.9287 17.9415 15.7044V15.1479C16.3833 15.9381 14.4133 15.8379 12.6882 15.415H12.677Z" fill="url(#paint2_linear_2_2655)"/>
</g>
<g style="mix-blend-mode:screen" opacity="0.47">
<path d="M17.9304 6.41089V4.47428C17.9304 3.24998 16.9287 2.24829 15.7044 2.24829L12.8106 2.24829C14.9142 3.04964 17.0289 4.46315 17.9304 6.41089Z" fill="url(#paint3_linear_2_2655)"/>
</g>
<g style="mix-blend-mode:multiply" opacity="0.67">
<path d="M3.75078 1.11304C3.67287 1.38016 4.18485 1.98118 4.797 2.20378C5.39802 2.41525 15.3593 2.4709 15.8157 2.20378C16.272 1.93666 16.7506 1.32451 16.528 1.11304L3.76191 1.11304H3.75078Z" fill="url(#paint4_linear_2_2655)"/>
</g>
<g style="mix-blend-mode:screen" opacity="0.41">
<path d="M16.784 19.0657C16.8619 18.7986 16.3499 18.153 15.7267 17.9415C15.1034 17.7301 4.77478 17.6744 4.30732 17.9415C3.83986 18.2087 3.35014 18.8542 3.58387 19.0657L16.7951 19.0657H16.784Z" fill="url(#paint5_linear_2_2655)"/>
</g>
<g style="mix-blend-mode:screen" opacity="0.41">
<path d="M1.11298 3.60615C1.33558 3.27226 2.20371 4.36299 2.35953 4.93062C2.51535 5.49825 2.35953 14.5135 2.35953 15.237C2.35953 15.9604 1.32445 16.8619 1.12411 16.7284L1.12411 3.60615H1.11298Z" fill="url(#paint6_linear_2_2655)"/>
</g>
<path d="M2.24829 4.47425L2.24829 15.7044C2.24829 16.9287 3.24999 17.9304 4.47428 17.9304L14.1239 17.9304C13.5341 17.8191 4.81931 17.641 4.81931 17.641C3.59502 17.641 2.59332 16.6393 2.59332 15.415C2.59332 15.415 2.34846 5.28674 2.24829 4.35182C2.24829 4.39634 2.24829 4.44086 2.24829 4.47425Z" fill="white"/>
<g style="mix-blend-mode:screen" opacity="0.6">
<path d="M14.5691 11.4527C11.4527 11.3526 8.20279 10.3954 5.49822 8.85945C4.28505 8.16939 3.12754 7.30126 2.2594 6.19939L2.2594 11.2413C2.33731 11.2413 2.41522 11.2413 2.482 11.2413C5.08641 11.3192 7.535 12.7995 9.44935 14.4356C10.618 15.4372 11.6642 16.617 12.4767 17.9304H15.7155C16.9398 17.9304 17.9415 16.9287 17.9415 15.7044V10.8851C16.9175 11.3526 15.7155 11.4861 14.5803 11.4527H14.5691Z" fill="url(#paint7_linear_2_2655)"/>
</g>
<g style="mix-blend-mode:screen" opacity="0.47">
<path d="M2.55992 15.8714C2.55992 15.8714 2.4041 16.8174 1.2132 17.1959C1.2132 17.1959 1.42466 18.6205 3.22772 19.0212C3.22772 19.0212 3.17207 18.0751 4.28506 17.6188C3.4058 17.4519 2.71574 16.7507 2.55992 15.8714Z" fill="url(#paint8_linear_2_2655)"/>
</g>
<g style="mix-blend-mode:screen" opacity="0.47">
<path d="M1.43573 17.7968C1.62494 18.1196 1.94771 18.5092 2.52646 18.7874C2.59324 18.1307 2.89375 17.6076 3.33895 17.1847C3.14974 17.0289 2.98279 16.8508 2.84923 16.6393C2.47081 17.1736 2.00336 17.6076 1.43573 17.7968Z" fill="url(#paint9_linear_2_2655)"/>
</g>
<g style="mix-blend-mode:screen" opacity="0.41">
<path d="M2.27051 8.78162C1.74741 11.297 1.68063 13.8791 1.69176 16.439C2.02565 16.1385 2.35955 15.6599 2.35955 15.2481C2.35955 14.7918 2.42633 10.9297 2.42633 8.05817C2.37068 8.30303 2.3039 8.53676 2.25938 8.78162H2.27051Z" fill="url(#paint10_linear_2_2655)"/>
</g>
<g style="mix-blend-mode:screen" opacity="0.41">
<path d="M4.30729 17.9415C4.18486 18.0083 4.0513 18.1085 3.94 18.2198C4.4965 18.3756 5.13091 18.4313 5.67627 18.4647C6.77814 18.5203 7.89113 18.4647 8.993 18.3756C10.2062 18.2643 11.4082 18.0528 12.588 17.7857C9.30464 17.7301 4.61893 17.7635 4.30729 17.9415Z" fill="url(#paint11_linear_2_2655)"/>
</g>
<g style="mix-blend-mode:multiply" opacity="0.67">
<path d="M10.1839 1.16871C11.1077 1.29114 12.6547 1.54713 13.367 2.35962C14.6915 2.33736 15.6709 2.28171 15.8045 2.2038C16.2608 1.93668 16.7394 1.32453 16.5168 1.11307L9.7832 1.11307C9.91676 1.13533 10.0503 1.14645 10.195 1.16871H10.1839Z" fill="url(#paint12_linear_2_2655)"/>
</g>
<g style="mix-blend-mode:multiply" opacity="0.67">
<path d="M17.9304 4.4298C18.1641 5.35358 18.3644 6.29963 18.4869 7.25681C18.6983 8.84839 18.8319 10.4622 18.8541 12.0649C18.8653 12.8552 18.8319 13.6454 18.7317 14.4245C18.6649 14.9699 18.6204 15.6377 18.4089 16.183C18.6761 16.4947 18.9543 16.6839 19.0656 16.5169L19.0656 3.39471C18.8875 3.29454 18.2086 3.83991 17.9304 4.4298Z" fill="url(#paint13_linear_2_2655)"/>
</g>
<g style="mix-blend-mode:multiply" opacity="0.67">
<path d="M16.3165 2.33732C17.0622 2.54878 17.6409 3.1498 17.8413 3.89551C18.0194 3.60613 18.42 3.07189 18.9654 2.98285C18.9654 2.98285 18.6204 1.54709 17.0733 1.1798C17.0733 1.1798 17.1401 1.91438 16.3165 2.33732Z" fill="url(#paint14_linear_2_2655)"/>
</g>
<path d="M5.85437 2.24827L15.3705 2.24827C15.3705 2.24827 12.332 2.8159 5.85437 2.24827Z" fill="white"/>
<g style="mix-blend-mode:screen" opacity="0.41">
<path d="M2.19258 3.60614C2.19258 3.60614 2.84924 2.09247 3.89546 2.11473C3.89546 2.11473 1.44687 1.22433 2.19258 3.60614Z" fill="url(#paint15_linear_2_2655)"/>
</g>
<g style="mix-blend-mode:multiply" opacity="0.67">
<path d="M17.7634 1.76967C17.641 2.18147 17.3961 2.50424 17.0845 2.73797C17.3516 2.94944 17.5631 3.21656 17.7077 3.5282C18.0305 3.17204 18.4089 2.87153 18.843 2.64893C18.6983 2.32616 18.3867 1.82532 17.8302 1.49142C17.819 1.59159 17.7968 1.69176 17.7634 1.7808V1.76967Z" fill="url(#paint16_linear_2_2655)"/>
</g>
<g style="mix-blend-mode:multiply" opacity="0.67">
<path d="M17.9304 4.44089C17.9304 4.44089 17.9304 4.46315 17.9304 4.48541L17.9304 15.4707C18.2197 16.0494 18.8764 16.8063 19.0656 16.5169L19.0656 3.39467C18.8875 3.2945 18.1975 3.851 17.9304 4.44089Z" fill="url(#paint17_linear_2_2655)"/>
</g>
<path d="M1.12415 15.2258C1.12415 15.2258 1.41352 7.88006 1.89211 8.04701C2.1481 8.13605 2.39296 10.9853 2.39296 10.9853L2.39296 9.36035C2.39296 9.36035 2.28166 7.01193 1.89211 6.60012C1.50256 6.18831 1.12415 11.5529 1.12415 11.5529L1.12415 15.2147V15.2258Z" fill="white"/>
<path d="M4.94171 13.7678L4.94171 6.39978C4.94171 5.59842 5.59838 4.94176 6.39973 4.94176L13.7678 4.94176C14.5691 4.94176 15.2258 5.59842 15.2258 6.39978L15.2258 13.7678C15.2258 14.5692 14.5691 15.2258 13.7678 15.2258L6.39973 15.2258C5.59838 15.2258 4.94171 14.5692 4.94171 13.7678Z" fill="url(#paint18_linear_2_2655)"/>
<g style="mix-blend-mode:multiply">
<path d="M5.68738 13.2447L5.68738 6.94516C5.68738 6.25511 6.24388 5.69861 6.93393 5.69861L13.2335 5.69861C13.9235 5.69861 14.48 6.25511 14.48 6.94516L14.48 13.2447C14.48 13.9348 13.9235 14.4913 13.2335 14.4913L6.93393 14.4913C6.24388 14.4913 5.68738 13.9348 5.68738 13.2447Z" fill="url(#paint19_linear_2_2655)"/>
</g>
<g style="mix-blend-mode:multiply">
<path d="M7.33461 10.9408C6.7002 9.51618 6.22161 7.55731 6.39969 5.82104C5.97676 6.02138 5.68738 6.44432 5.68738 6.94516L5.68738 13.2447C5.68738 13.9348 6.25501 14.4913 6.93393 14.4913L10.6736 14.4913C9.23783 13.6788 8.0358 12.5101 7.33461 10.9408Z" fill="url(#paint20_linear_2_2655)"/>
</g>
<g style="mix-blend-mode:multiply">
<path d="M10.5623 14.4022C8.90398 13.2224 7.56838 11.898 6.85606 9.92797C6.37747 8.62577 6.18827 7.17887 6.43313 5.82102C6.27731 5.5539 6.16601 5.27565 6.09923 4.97514C5.44256 5.11983 4.94171 5.69859 4.94171 6.39978L4.94171 13.7678C4.94171 14.5692 5.59838 15.2258 6.39973 15.2258L10.4956 15.2258C10.4956 15.2258 10.4956 15.1924 10.4956 15.1813C10.4622 14.9365 10.5178 14.6805 10.6069 14.4356C10.5957 14.4245 10.5846 14.4133 10.5623 14.4022Z" fill="url(#paint21_linear_2_2655)"/>
</g>
<defs>
<linearGradient id="paint0_linear_2_2655" x1="2.22597" y1="13.6454" x2="20.0562" y2="5.57617" gradientUnits="userSpaceOnUse">
<stop stop-color="#FFC206"/>
<stop offset="1" stop-color="#EB7C00"/>
</linearGradient>
<linearGradient id="paint1_linear_2_2655" x1="3.2166" y1="13.2001" x2="18.7985" y2="6.15487" gradientUnits="userSpaceOnUse">
<stop stop-color="#FFC345"/>
<stop offset="1" stop-color="#F6DB61"/>
</linearGradient>
<linearGradient id="paint2_linear_2_2655" x1="3.21658" y1="13.2001" x2="18.7985" y2="6.15487" gradientUnits="userSpaceOnUse">
<stop stop-color="#FFC345"/>
<stop offset="1" stop-color="#F6DB61"/>
</linearGradient>
<linearGradient id="paint3_linear_2_2655" x1="1.94777" y1="10.3954" x2="17.5297" y2="3.35015" gradientUnits="userSpaceOnUse">
<stop stop-color="#FFC345"/>
<stop offset="1" stop-color="#F6DB61"/>
</linearGradient>
<linearGradient id="paint4_linear_2_2655" x1="6.08807" y1="3.3279" x2="15.5374" y2="-0.946" gradientUnits="userSpaceOnUse">
<stop stop-color="#FFC345"/>
<stop offset="1" stop-color="#F6DB61"/>
</linearGradient>
<linearGradient id="paint5_linear_2_2655" x1="14.3688" y1="16.7729" x2="4.5967" y2="21.1915" gradientUnits="userSpaceOnUse">
<stop stop-color="#FFC345"/>
<stop offset="1" stop-color="#F6DB61"/>
</linearGradient>
<linearGradient id="paint6_linear_2_2655" x1="3.5393" y1="9.09322" x2="-1.30222" y2="11.2747" gradientUnits="userSpaceOnUse">
<stop stop-color="#FFC345"/>
<stop offset="1" stop-color="#F6DB61"/>
</linearGradient>
<linearGradient id="paint7_linear_2_2655" x1="3.73968" y1="10.5067" x2="15.2926" y2="14.4467" gradientUnits="userSpaceOnUse">
<stop stop-color="#FFE431"/>
<stop offset="1" stop-color="#F7AB00"/>
</linearGradient>
<linearGradient id="paint8_linear_2_2655" x1="1.55822" y1="18.0529" x2="4.44088" y2="16.7507" gradientUnits="userSpaceOnUse">
<stop stop-color="#FFC345"/>
<stop offset="1" stop-color="#F6DB61"/>
</linearGradient>
<linearGradient id="paint9_linear_2_2655" x1="1.62494" y1="18.1975" x2="4.5076" y2="16.8953" gradientUnits="userSpaceOnUse">
<stop stop-color="#FFC345"/>
<stop offset="1" stop-color="#F6DB61"/>
</linearGradient>
<linearGradient id="paint10_linear_2_2655" x1="4.47424" y1="11.1523" x2="-0.367285" y2="13.3449" gradientUnits="userSpaceOnUse">
<stop stop-color="#FFC345"/>
<stop offset="1" stop-color="#F6DB61"/>
</linearGradient>
<linearGradient id="paint11_linear_2_2655" x1="13.7566" y1="15.4596" x2="3.98452" y2="19.8782" gradientUnits="userSpaceOnUse">
<stop stop-color="#FFC345"/>
<stop offset="1" stop-color="#F6DB61"/>
</linearGradient>
<linearGradient id="paint12_linear_2_2655" x1="6.60004" y1="4.46318" x2="16.0494" y2="0.189274" gradientUnits="userSpaceOnUse">
<stop stop-color="#FFC345"/>
<stop offset="1" stop-color="#F6DB61"/>
</linearGradient>
<linearGradient id="paint13_linear_2_2655" x1="16.6393" y1="11.0299" x2="21.4808" y2="8.83726" gradientUnits="userSpaceOnUse">
<stop stop-color="#FFC345"/>
<stop offset="1" stop-color="#F6DB61"/>
</linearGradient>
<linearGradient id="paint14_linear_2_2655" x1="17.6521" y1="3.89551" x2="17.6521" y2="1.1798" gradientUnits="userSpaceOnUse">
<stop stop-color="#FFC345"/>
<stop offset="1" stop-color="#F6DB61"/>
</linearGradient>
<linearGradient id="paint15_linear_2_2655" x1="2.05902" y1="2.78252" x2="4.2071" y2="2.78252" gradientUnits="userSpaceOnUse">
<stop stop-color="#FFC345"/>
<stop offset="1" stop-color="#F6DB61"/>
</linearGradient>
<linearGradient id="paint16_linear_2_2655" x1="17.9637" y1="3.99566" x2="17.9637" y2="1.19091" gradientUnits="userSpaceOnUse">
<stop stop-color="#FFC345"/>
<stop offset="1" stop-color="#F6DB61"/>
</linearGradient>
<linearGradient id="paint17_linear_2_2655" x1="16.6393" y1="11.0298" x2="21.4808" y2="8.83722" gradientUnits="userSpaceOnUse">
<stop stop-color="#FFC345"/>
<stop offset="1" stop-color="#F6DB61"/>
</linearGradient>
<linearGradient id="paint18_linear_2_2655" x1="22.8721" y1="9.09323" x2="11.3192" y2="9.99475" gradientUnits="userSpaceOnUse">
<stop stop-color="#DE9103"/>
<stop offset="1" stop-color="#B55100"/>
</linearGradient>
<linearGradient id="paint19_linear_2_2655" x1="21.0244" y1="9.23793" x2="11.1411" y2="10.0059" gradientUnits="userSpaceOnUse">
<stop stop-color="#FFC205"/>
<stop offset="1" stop-color="#C68F00"/>
</linearGradient>
<linearGradient id="paint20_linear_2_2655" x1="21.0244" y1="9.18228" x2="11.1411" y2="9.95025" gradientUnits="userSpaceOnUse">
<stop stop-color="#FFC205"/>
<stop offset="1" stop-color="#C68F00"/>
</linearGradient>
<linearGradient id="paint21_linear_2_2655" x1="22.8609" y1="8.9708" x2="11.308" y2="9.87232" gradientUnits="userSpaceOnUse">
<stop stop-color="#FFC205"/>
<stop offset="1" stop-color="#C68F00"/>
</linearGradient>
</defs>
</svg>
