<svg width="39" height="39" viewBox="0 0 39 39" fill="none" xmlns="http://www.w3.org/2000/svg">
<path d="M31.9776 37.7775C23.5276 38.8675 15.0776 38.8675 6.61764 37.7775C3.87764 37.3975 1.18764 34.7075 0.817645 31.9675C-0.272355 23.5275 -0.272355 15.0675 0.817645 6.6175C1.19764 3.8775 3.88764 1.1875 6.61764 0.8175C15.0676 -0.2725 23.5276 -0.2725 31.9776 0.8175C34.7176 1.1975 37.4076 3.8875 37.7776 6.6175C38.8676 15.0675 38.8676 23.5175 37.7776 31.9775C37.3976 34.7175 34.7076 37.4075 31.9776 37.7875V37.7775Z" fill="url(#paint0_linear_2_81)"/>
<g style="mix-blend-mode:screen" opacity="0.47">
<path d="M30.6076 35.6075C23.0676 36.3375 15.5276 36.3375 7.98765 35.6075C5.53765 35.3575 3.23765 33.0475 2.98765 30.6075C2.25765 23.0675 2.25765 15.5275 2.98765 7.9875C3.23765 5.5375 5.54765 3.2375 7.98765 2.9875C15.5276 2.2575 23.0676 2.2575 30.6076 2.9875C33.0576 3.2375 35.3576 5.5475 35.6076 7.9875C36.3376 15.5275 36.3376 23.0675 35.6076 30.6075C35.3576 33.0575 33.0576 35.3575 30.6076 35.6075Z" fill="url(#paint1_linear_2_81)"/>
</g>
<g style="mix-blend-mode:screen" opacity="0.29">
<path d="M7.93765 24.6975C10.3476 14.9475 20.4377 4.2075 31.1677 7.5575C32.9177 8.0675 34.4476 8.8575 35.7776 9.8375C35.7276 9.2175 35.6777 8.6075 35.6176 7.9875C35.3676 5.5375 33.0677 3.2375 30.6177 2.9875C23.0777 2.2575 15.5376 2.2575 7.99765 2.9875C5.54765 3.2375 3.24765 5.5475 2.99765 7.9875C2.26765 15.5275 2.26765 23.0675 2.99765 30.6075C3.24765 33.0575 5.55765 35.3575 7.99765 35.6075C8.37765 35.6475 8.74765 35.6775 9.12765 35.7075C7.25765 32.2975 7.12765 28.2775 7.94765 24.6975H7.93765Z" fill="url(#paint2_linear_2_81)"/>
</g>
<g style="mix-blend-mode:screen" opacity="0.47">
<path d="M26.7076 35.9175C28.0076 35.8375 29.3076 35.7275 30.6076 35.6075C33.0576 35.3575 35.3576 33.0475 35.6076 30.6075C35.7976 28.6575 35.9376 26.7175 36.0276 24.7675C34.1176 29.0575 30.7176 33.7175 26.7076 35.9175Z" fill="url(#paint3_linear_2_81)"/>
</g>
<g style="mix-blend-mode:multiply" opacity="0.67">
<path d="M37.7976 6.77749C37.2276 6.55749 36.1076 7.42749 35.7676 8.61749C35.6076 9.19749 35.9376 14.5275 35.8576 19.8275C35.8576 25.1175 35.4576 30.3775 35.6876 30.8075C36.1576 31.6775 37.2876 32.4775 37.7876 31.9675C38.8676 23.5675 38.8676 15.1775 37.7976 6.77749Z" fill="url(#paint4_linear_2_81)"/>
</g>
<g style="mix-blend-mode:screen" opacity="0.41">
<path d="M0.887647 32.5075C1.44765 32.7375 2.63765 31.8775 2.95765 30.6475C3.10765 30.0475 2.72765 24.5175 2.79765 19.0275C2.77765 13.5375 3.20765 8.0875 2.98765 7.6475C2.52765 6.7475 1.33765 5.9275 0.837647 6.4575C-0.292353 15.1375 -0.282353 23.8275 0.887647 32.5075Z" fill="url(#paint5_linear_2_81)"/>
</g>
<g style="mix-blend-mode:screen" opacity="0.41">
<path d="M32.0877 0.82751C32.8277 1.36751 30.8376 2.88751 29.7076 3.13751C29.1476 3.24751 24.2976 2.83751 19.4276 2.81751C14.5476 2.73751 9.63765 3.06751 8.91765 3.13751C7.44765 3.24751 5.87765 1.34751 6.20765 0.89751C14.8376 -0.26249 23.4776 -0.28249 32.0976 0.82751H32.0877Z" fill="url(#paint6_linear_2_81)"/>
</g>
<path d="M30.6076 2.9875C23.0676 2.2575 15.5276 2.2575 7.98765 2.9875C5.53765 3.2375 3.23765 5.5475 2.98765 7.9875C2.36765 14.4675 2.27765 20.9575 2.72765 27.4375C2.78765 26.8475 2.64765 22.1675 2.86765 17.6175C3.02765 13.0675 3.54765 8.6475 3.53765 8.6475C3.76765 6.1875 6.05765 3.8975 8.51765 3.6675C8.51765 3.6775 13.6576 3.0375 19.0176 2.9175C24.3776 2.7075 29.9376 3.0075 30.8676 3.0175C30.7776 3.0075 30.6976 2.9975 30.6076 2.9875Z" fill="white"/>
<g style="mix-blend-mode:screen" opacity="0.6">
<path d="M16.4276 28.9075C16.5176 22.2275 18.7076 15.2175 21.8976 9.42751C23.3176 6.83751 25.0476 4.39751 27.1376 2.69751C23.7576 2.46751 20.3776 2.38751 16.9876 2.45751C16.9876 2.61751 16.9876 2.77751 16.9776 2.94751C16.7476 8.53751 13.5376 13.8575 9.95764 17.9275C7.79764 20.3975 5.26764 22.5675 2.53764 24.0775C2.62764 26.2475 2.77764 28.4275 2.98764 30.5975C3.23764 33.0475 5.54764 35.3475 7.98764 35.5975C11.2176 35.9075 14.4576 36.0875 17.6876 36.1275C16.7076 33.9175 16.3776 31.3375 16.4276 28.8975V28.9075Z" fill="url(#paint7_linear_2_81)"/>
</g>
<g style="mix-blend-mode:screen" opacity="0.47">
<path d="M7.57764 3.6575C7.57764 3.6575 5.65764 3.5175 5.23764 1.1975C5.23764 1.1775 2.34764 2.0775 1.00764 5.7375C1.00764 5.7375 2.92764 5.3675 3.65764 7.5375C4.16764 5.7375 5.76764 4.1575 7.56765 3.6575H7.57764Z" fill="url(#paint8_linear_2_81)"/>
</g>
<g style="mix-blend-mode:screen" opacity="0.47">
<path d="M3.99764 1.82751C3.29764 2.29751 2.41764 3.07751 1.68764 4.29751C3.00765 4.22751 3.98764 4.71751 4.73764 5.53751C5.08764 5.10751 5.50764 4.73751 5.95764 4.41751C4.94764 3.74751 4.18764 2.91751 3.98764 1.82751H3.99764Z" fill="url(#paint9_linear_2_81)"/>
</g>
<g style="mix-blend-mode:screen" opacity="0.41">
<path d="M21.9476 2.4975C16.8676 1.2475 11.7676 1.3475 6.64764 1.9775C7.17764 2.5875 8.06764 3.1975 8.90764 3.1275C9.83764 2.9975 17.6176 2.6075 23.4176 2.8975C22.9276 2.7475 22.4376 2.6175 21.9376 2.4875L21.9476 2.4975Z" fill="url(#paint10_linear_2_81)"/>
</g>
<g style="mix-blend-mode:screen" opacity="0.41">
<path d="M2.98764 7.63751C2.86764 7.39751 2.68764 7.15751 2.47764 6.94751C2.03764 8.09751 1.77764 9.37751 1.63764 10.4675C1.33764 12.6775 1.32764 14.8975 1.49764 17.0875C1.67764 19.5075 2.16764 21.9175 2.84764 24.3375C2.57764 17.7175 3.21764 8.23751 2.98764 7.64751V7.63751Z" fill="url(#paint11_linear_2_81)"/>
</g>
<g style="mix-blend-mode:multiply" opacity="0.67">
<path d="M38.4876 19.4875C38.2276 21.3075 37.5576 24.3875 35.7376 25.9175C35.6476 28.5875 35.5476 30.5575 35.6976 30.8175C36.1676 31.6875 37.2976 32.4875 37.7976 31.9775C38.3676 27.5475 38.6376 23.1175 38.6076 18.6875C38.5776 18.9575 38.5376 19.2275 38.4976 19.4875H38.4876Z" fill="url(#paint12_linear_2_81)"/>
</g>
<g style="mix-blend-mode:multiply" opacity="0.67">
<path d="M30.6976 35.5975C28.7776 36.2775 26.8676 36.8275 24.9476 37.1975C21.7476 37.8175 18.5676 38.1275 15.3876 38.0575C13.8276 38.0275 12.2576 37.8475 10.6876 37.5175C9.60764 37.2875 8.25765 37.0775 7.12765 36.4975C6.56765 36.9775 6.25764 37.4975 6.61764 37.7775C15.2476 38.8775 23.8776 38.8475 32.5176 37.6775C32.7676 37.3175 31.8476 36.0575 30.7076 35.5975H30.6976Z" fill="url(#paint13_linear_2_81)"/>
</g>
<path d="M35.8476 10.7575C36.3076 17.1475 36.2576 23.5375 35.6776 29.9275C35.5576 29.9775 35.4476 23.7975 35.8476 10.7575Z" fill="white"/>
<g style="mix-blend-mode:screen" opacity="0.41">
<path d="M32.3476 3.05749C32.3476 3.05749 35.5676 4.76749 35.7776 6.86749C35.8176 6.86749 36.9576 2.15749 32.3476 3.05749Z" fill="url(#paint14_linear_2_81)"/>
</g>
<g style="mix-blend-mode:multiply" opacity="0.67">
<path d="M30.6877 35.5975C30.6877 35.5975 30.6377 35.5975 30.6077 35.6075C23.2276 36.3175 15.8377 36.3375 8.45765 35.6475C7.32765 36.1475 5.99765 37.3075 6.61765 37.7775C15.2477 38.8775 23.8777 38.8475 32.5177 37.6775C32.7677 37.3175 31.8377 36.0475 30.6877 35.5975Z" fill="url(#paint15_linear_2_81)"/>
</g>
<path d="M9.15765 0.547495C9.12765 0.227495 23.6276 0.447495 23.3876 1.7475C23.2376 2.25749 17.4976 2.71749 17.4876 2.75749C18.5776 2.73749 19.6676 2.73749 20.7576 2.75749C20.7576 2.72749 25.4976 2.6375 26.2576 1.8975C26.9976 0.977495 16.3676 -0.0925049 16.3876 0.067495C13.9776 0.137495 11.5676 0.297495 9.15765 0.547495Z" fill="white"/>
<path d="M29.1376 17.1275H28.0776C27.8476 16.2675 27.4976 15.4575 27.0476 14.7175L27.8176 13.9475C28.3476 13.4275 28.3476 12.5675 27.8176 12.0375L26.5876 10.8075C26.0676 10.2875 25.2076 10.2875 24.6776 10.8075L23.8776 11.6075C23.1476 11.1775 22.3476 10.8475 21.4976 10.6275V9.4775C21.4976 8.7375 20.8876 8.1275 20.1476 8.1275H18.3976C17.6576 8.1275 17.0476 8.7375 17.0476 9.4775V10.6275C16.1976 10.8375 15.3976 11.1775 14.6676 11.6075L13.8676 10.8075C13.3476 10.2875 12.4876 10.2875 11.9576 10.8075L10.7276 12.0375C10.1976 12.5575 10.1976 13.4175 10.7276 13.9475L11.4976 14.7175C11.0476 15.4575 10.6976 16.2675 10.4676 17.1275H9.40765C8.66765 17.1275 8.05765 17.7375 8.05765 18.4775V20.2275C8.05765 20.9675 8.66765 21.5775 9.40765 21.5775H10.4176C10.6276 22.4675 10.9676 23.3075 11.4176 24.0675L10.7276 24.7575C10.1976 25.2775 10.1976 26.1375 10.7276 26.6675L11.9576 27.8975C12.4776 28.4175 13.3376 28.4175 13.8676 27.8975L14.5276 27.2375C15.2976 27.7075 16.1476 28.0675 17.0476 28.2975V29.2175C17.0476 29.9575 17.6576 30.5675 18.3976 30.5675H20.1476C20.8876 30.5675 21.4976 29.9575 21.4976 29.2175V28.2975C22.3976 28.0675 23.2476 27.7075 24.0176 27.2375L24.6776 27.8975C25.1976 28.4175 26.0576 28.4175 26.5876 27.8975L27.8176 26.6675C28.3476 26.1475 28.3476 25.2875 27.8176 24.7575L27.1276 24.0675C27.5776 23.2975 27.9176 22.4575 28.1276 21.5775H29.1376C29.8776 21.5775 30.4876 20.9675 30.4876 20.2275V18.4775C30.4876 17.7375 29.8776 17.1275 29.1376 17.1275ZM19.2676 21.9075C17.9176 21.9075 16.8276 20.8175 16.8276 19.4675C16.8276 18.1175 17.9176 17.0275 19.2676 17.0275C20.6176 17.0275 21.7076 18.1175 21.7076 19.4675C21.7076 20.8175 20.6176 21.9075 19.2676 21.9075Z" fill="url(#paint16_linear_2_81)"/>
<g style="mix-blend-mode:multiply">
<path d="M29.1376 17.1275H28.0776C27.8476 16.2675 27.4976 15.4575 27.0476 14.7175L27.8176 13.9475C28.3476 13.4275 28.3476 12.5675 27.8176 12.0375L26.5876 10.8075C26.0676 10.2875 25.2076 10.2875 24.6776 10.8075L23.8776 11.6075C23.1476 11.1775 22.3476 10.8475 21.4976 10.6275V9.4775C21.4976 8.7375 20.8876 8.1275 20.1476 8.1275H18.3976C17.6576 8.1275 17.0476 8.7375 17.0476 9.4775V10.6275C16.1976 10.8375 15.3976 11.1775 14.6676 11.6075L13.8676 10.8075C13.3476 10.2875 12.4876 10.2875 11.9576 10.8075L10.7276 12.0375C10.1976 12.5575 10.1976 13.4175 10.7276 13.9475L11.4976 14.7175C11.0476 15.4575 10.6976 16.2675 10.4676 17.1275H9.40765C8.66765 17.1275 8.05765 17.7375 8.05765 18.4775V20.2275C8.05765 20.9675 8.66765 21.5775 9.40765 21.5775H10.4176C10.6276 22.4675 10.9676 23.3075 11.4176 24.0675L10.7276 24.7575C10.1976 25.2775 10.1976 26.1375 10.7276 26.6675L11.9576 27.8975C12.4776 28.4175 13.3376 28.4175 13.8676 27.8975L13.8876 27.8775C12.3976 25.9875 12.0176 23.2175 12.6376 20.9275C13.3576 18.2475 15.4376 16.1075 17.9976 15.1075C20.2676 14.2175 22.6676 14.5375 24.8476 15.5375C26.9176 16.4875 28.8376 18.1375 29.7176 20.2775C29.8476 20.5975 29.9476 20.9275 30.0176 21.2475C30.3176 20.9975 30.5076 20.6275 30.5076 20.2075V18.4575C30.5076 17.7175 29.8976 17.1075 29.1576 17.1075L29.1376 17.1275Z" fill="url(#paint17_linear_2_81)"/>
</g>
<g style="mix-blend-mode:multiply">
<path d="M18.3976 8.7975H20.1476C20.8876 8.7975 21.4976 9.4075 21.4976 10.1475V9.4775C21.4976 8.7375 20.8876 8.1275 20.1476 8.1275H18.3976C17.6576 8.1275 17.0476 8.7375 17.0476 9.4775V10.1475C17.0476 9.4075 17.6576 8.7975 18.3976 8.7975Z" fill="url(#paint18_linear_2_81)"/>
<path d="M21.6876 19.7975C21.5276 20.9875 20.5076 21.9075 19.2676 21.9075C18.0276 21.9075 17.0176 20.9875 16.8476 19.7975C16.8276 19.9075 16.8176 20.0175 16.8176 20.1275C16.8176 21.4775 17.9076 22.5675 19.2576 22.5675C20.6076 22.5675 21.6976 21.4775 21.6976 20.1275C21.6976 20.0175 21.6976 19.9075 21.6676 19.7975H21.6876Z" fill="url(#paint19_linear_2_81)"/>
<path d="M21.4976 11.2975C22.3476 11.5075 23.1476 11.8375 23.8776 12.2775L24.6776 11.4775C25.1976 10.9575 26.0576 10.9575 26.5876 11.4775L27.8176 12.7075C27.9976 12.8875 28.1076 13.0975 28.1676 13.3275C28.2776 12.8775 28.1676 12.3875 27.8176 12.0375L26.5876 10.8075C26.0676 10.2875 25.2076 10.2875 24.6776 10.8075L23.8776 11.6075C23.1476 11.1775 22.3476 10.8475 21.4976 10.6275V11.2975Z" fill="url(#paint20_linear_2_81)"/>
<path d="M11.4176 24.7275V24.0575L10.7276 24.7475C10.3776 25.0975 10.2676 25.5875 10.3776 26.0375C10.4376 25.8075 10.5476 25.5975 10.7276 25.4175L11.4176 24.7275Z" fill="url(#paint21_linear_2_81)"/>
<path d="M29.1376 17.1275H28.0776C27.8976 16.4275 27.6276 15.7675 27.2876 15.1375L27.0476 14.7075V15.3775C27.4976 16.1175 27.8476 16.9275 28.0776 17.7875H29.1376C29.8776 17.7875 30.4876 18.3975 30.4876 19.1375V18.4675C30.4876 17.7275 29.8776 17.1175 29.1376 17.1175V17.1275Z" fill="url(#paint22_linear_2_81)"/>
<path d="M27.1276 24.0675V24.7375L27.8176 25.4275C27.9976 25.6075 28.1076 25.8175 28.1676 26.0475C28.2776 25.5975 28.1676 25.1075 27.8176 24.7575L27.1276 24.0675Z" fill="url(#paint23_linear_2_81)"/>
<path d="M9.39764 17.7975H10.4576C10.6876 16.9375 11.0376 16.1275 11.4876 15.3875V14.7175C10.9676 15.5375 10.6376 16.4275 10.4576 17.1275H9.39764C8.65764 17.1275 8.04765 17.7375 8.04765 18.4775V19.1475C8.04765 18.4075 8.65764 17.7975 9.39764 17.7975Z" fill="url(#paint24_linear_2_81)"/>
<path d="M10.7176 12.6975L11.9476 11.4675C12.4676 10.9475 13.3276 10.9475 13.8576 11.4675L14.6576 12.2675C15.3976 11.8375 16.1976 11.5075 17.0376 11.2875V10.6175C16.1876 10.8275 15.3876 11.1675 14.6576 11.5975L13.8576 10.7975C13.3376 10.2775 12.4776 10.2775 11.9476 10.7975L10.7176 12.0275C10.3676 12.3775 10.2576 12.8675 10.3676 13.3175C10.4276 13.0875 10.5376 12.8775 10.7176 12.6975Z" fill="url(#paint25_linear_2_81)"/>
</g>
<g style="mix-blend-mode:screen">
<path d="M19.2676 17.0175C17.9176 17.0175 16.8276 18.1075 16.8276 19.4575C16.8276 19.5675 16.8276 19.6775 16.8576 19.7875C17.0176 18.5975 18.0376 17.6775 19.2776 17.6775C20.5176 17.6775 21.5276 18.5975 21.6976 19.7875C21.7176 19.6775 21.7276 19.5675 21.7276 19.4575C21.7276 18.1075 20.6376 17.0175 19.2876 17.0175H19.2676Z" fill="url(#paint26_linear_2_81)"/>
<path d="M27.0476 14.7175C27.1276 14.8575 27.2076 14.9975 27.2876 15.1475L27.8176 14.6175C28.1676 14.2675 28.2776 13.7775 28.1676 13.3275C28.1076 13.5575 27.9976 13.7675 27.8176 13.9475L27.0476 14.7175Z" fill="url(#paint27_linear_2_81)"/>
<path d="M11.2576 15.1375C11.3376 14.9975 11.4076 14.8475 11.4976 14.7075L10.7276 13.9375C10.5476 13.7575 10.4376 13.5475 10.3776 13.3175C10.2676 13.7675 10.3776 14.2575 10.7276 14.6075L11.2676 15.1375H11.2576Z" fill="url(#paint28_linear_2_81)"/>
<path d="M11.1776 24.2975L11.4076 24.0675C10.9576 23.2975 10.6176 22.4575 10.4076 21.5775H9.39764C8.65764 21.5775 8.04765 20.9675 8.04765 20.2275V20.8975C8.04765 21.6375 8.65764 22.2475 9.39764 22.2475H10.4076C10.5776 22.9775 10.8376 23.6575 11.1776 24.3075V24.2975Z" fill="url(#paint29_linear_2_81)"/>
<path d="M27.8176 26.6675L26.5876 27.8975C26.0676 28.4175 25.2076 28.4175 24.6776 27.8975L24.0176 27.2375C23.2476 27.7075 22.3976 28.0675 21.4976 28.2975V28.9675C22.3976 28.7375 23.2476 28.3775 24.0176 27.9075L24.6776 28.5675C25.1976 29.0875 26.0576 29.0875 26.5876 28.5675L27.8176 27.3375C28.1676 26.9875 28.2776 26.4975 28.1676 26.0475C28.1076 26.2775 27.9976 26.4875 27.8176 26.6675Z" fill="url(#paint30_linear_2_81)"/>
<path d="M17.0476 28.2975C16.1476 28.0675 15.2976 27.7075 14.5276 27.2375L13.8676 27.8975C13.3476 28.4175 12.4876 28.4175 11.9576 27.8975L10.7276 26.6675C10.5476 26.4875 10.4376 26.2775 10.3776 26.0475C10.2676 26.4975 10.3776 26.9875 10.7276 27.3375L11.9576 28.5675C12.4776 29.0875 13.3376 29.0875 13.8676 28.5675L14.5276 27.9075C15.2976 28.3775 16.1476 28.7375 17.0476 28.9675V28.2975Z" fill="url(#paint31_linear_2_81)"/>
<path d="M29.1376 21.5675H28.1276C27.9176 22.4575 27.5776 23.2975 27.1276 24.0575L27.3576 24.2875C27.6876 23.6375 27.9576 22.9475 28.1276 22.2275H29.1376C29.8776 22.2275 30.4876 21.6175 30.4876 20.8775V20.2075C30.4876 20.9475 29.8776 21.5575 29.1376 21.5575V21.5675Z" fill="url(#paint32_linear_2_81)"/>
<path d="M20.1476 30.5675H18.3976C17.6576 30.5675 17.0476 29.9575 17.0476 29.2175V29.8875C17.0476 30.6275 17.6576 31.2375 18.3976 31.2375H20.1476C20.8876 31.2375 21.4976 30.6275 21.4976 29.8875V29.2175C21.4976 29.9575 20.8876 30.5675 20.1476 30.5675Z" fill="url(#paint33_linear_2_81)"/>
</g>
<defs>
<linearGradient id="paint0_linear_2_81" x1="12.1176" y1="3.4275" x2="28.3876" y2="39.4075" gradientUnits="userSpaceOnUse">
<stop stop-color="#FFC206"/>
<stop offset="1" stop-color="#EB7C00"/>
</linearGradient>
<linearGradient id="paint1_linear_2_81" x1="20.7576" y1="33.8575" x2="18.1776" y2="8.1475" gradientUnits="userSpaceOnUse">
<stop stop-color="#F19500"/>
<stop offset="0.18" stop-color="#F29B0A"/>
<stop offset="0.51" stop-color="#F6AB27"/>
<stop offset="0.93" stop-color="#FDC556"/>
<stop offset="1" stop-color="#FFCA5F"/>
</linearGradient>
<linearGradient id="paint2_linear_2_81" x1="12.9576" y1="5.2775" x2="27.5776" y2="37.6075" gradientUnits="userSpaceOnUse">
<stop stop-color="#FFC345"/>
<stop offset="1" stop-color="#F6DB61"/>
</linearGradient>
<linearGradient id="paint3_linear_2_81" x1="19.1576" y1="3.34749" x2="33.2376" y2="34.4775" gradientUnits="userSpaceOnUse">
<stop stop-color="#FFC345"/>
<stop offset="1" stop-color="#F6DB61"/>
</linearGradient>
<linearGradient id="paint4_linear_2_81" x1="33.3776" y1="11.3575" x2="41.8276" y2="30.0575" gradientUnits="userSpaceOnUse">
<stop stop-color="#FFC345"/>
<stop offset="1" stop-color="#F6DB61"/>
</linearGradient>
<linearGradient id="paint5_linear_2_81" x1="5.42765" y1="27.7875" x2="-3.33235" y2="8.4275" gradientUnits="userSpaceOnUse">
<stop stop-color="#FFC345"/>
<stop offset="1" stop-color="#F6DB61"/>
</linearGradient>
<linearGradient id="paint6_linear_2_81" x1="21.2376" y1="5.61751" x2="16.9376" y2="-3.89249" gradientUnits="userSpaceOnUse">
<stop stop-color="#FFC345"/>
<stop offset="1" stop-color="#F6DB61"/>
</linearGradient>
<linearGradient id="paint7_linear_2_81" x1="18.3776" y1="5.85751" x2="10.1976" y2="29.8675" gradientUnits="userSpaceOnUse">
<stop stop-color="#FFE431"/>
<stop offset="1" stop-color="#F7AB00"/>
</linearGradient>
<linearGradient id="paint8_linear_2_81" x1="3.14764" y1="2.1475" x2="5.65764" y2="7.7075" gradientUnits="userSpaceOnUse">
<stop stop-color="#FFC345"/>
<stop offset="1" stop-color="#F6DB61"/>
</linearGradient>
<linearGradient id="paint9_linear_2_81" x1="2.90764" y1="2.32751" x2="5.33765" y2="7.68751" gradientUnits="userSpaceOnUse">
<stop stop-color="#FFC345"/>
<stop offset="1" stop-color="#F6DB61"/>
</linearGradient>
<linearGradient id="paint10_linear_2_81" x1="17.0776" y1="6.96751" x2="12.9676" y2="-2.1225" gradientUnits="userSpaceOnUse">
<stop stop-color="#FFC345"/>
<stop offset="1" stop-color="#F6DB61"/>
</linearGradient>
<linearGradient id="paint11_linear_2_81" x1="7.69764" y1="26.5475" x2="-1.06236" y2="7.17751" gradientUnits="userSpaceOnUse">
<stop stop-color="#FFC345"/>
<stop offset="1" stop-color="#F6DB61"/>
</linearGradient>
<linearGradient id="paint12_linear_2_81" x1="31.7176" y1="12.7775" x2="39.9276" y2="30.9175" gradientUnits="userSpaceOnUse">
<stop stop-color="#FFC345"/>
<stop offset="1" stop-color="#F6DB61"/>
</linearGradient>
<linearGradient id="paint13_linear_2_81" x1="17.4576" y1="32.9375" x2="21.7676" y2="42.4775" gradientUnits="userSpaceOnUse">
<stop stop-color="#FFC345"/>
<stop offset="1" stop-color="#F6DB61"/>
</linearGradient>
<linearGradient id="paint14_linear_2_81" x1="34.1376" y1="2.94749" x2="34.1376" y2="7.50749" gradientUnits="userSpaceOnUse">
<stop stop-color="#FFC345"/>
<stop offset="1" stop-color="#F6DB61"/>
</linearGradient>
<linearGradient id="paint15_linear_2_81" x1="17.4777" y1="32.9875" x2="21.7677" y2="42.4775" gradientUnits="userSpaceOnUse">
<stop stop-color="#FFC345"/>
<stop offset="1" stop-color="#F6DB61"/>
</linearGradient>
<linearGradient id="paint16_linear_2_81" x1="19.2676" y1="39.5775" x2="19.2676" y2="14.5175" gradientUnits="userSpaceOnUse">
<stop stop-color="#DE9103"/>
<stop offset="1" stop-color="#B55100"/>
</linearGradient>
<linearGradient id="paint17_linear_2_81" x1="22.3076" y1="38.6375" x2="18.3876" y2="13.7175" gradientUnits="userSpaceOnUse">
<stop stop-color="#FFC345"/>
<stop offset="1" stop-color="#F6DB61"/>
</linearGradient>
<linearGradient id="paint18_linear_2_81" x1="19.5276" y1="11.3875" x2="19.0976" y2="8.6275" gradientUnits="userSpaceOnUse">
<stop stop-color="#FFC345"/>
<stop offset="1" stop-color="#F6DB61"/>
</linearGradient>
<linearGradient id="paint19_linear_2_81" x1="19.8276" y1="23.6875" x2="19.2776" y2="20.1975" gradientUnits="userSpaceOnUse">
<stop stop-color="#FFC345"/>
<stop offset="1" stop-color="#F6DB61"/>
</linearGradient>
<linearGradient id="paint20_linear_2_81" x1="25.3376" y1="15.1475" x2="24.6876" y2="11.0475" gradientUnits="userSpaceOnUse">
<stop stop-color="#FFC345"/>
<stop offset="1" stop-color="#F6DB61"/>
</linearGradient>
<linearGradient id="paint21_linear_2_81" x1="11.1376" y1="26.5975" x2="10.8176" y2="24.6075" gradientUnits="userSpaceOnUse">
<stop stop-color="#FFC345"/>
<stop offset="1" stop-color="#F6DB61"/>
</linearGradient>
<linearGradient id="paint22_linear_2_81" x1="29.4376" y1="21.1375" x2="28.5776" y2="15.6975" gradientUnits="userSpaceOnUse">
<stop stop-color="#FFC345"/>
<stop offset="1" stop-color="#F6DB61"/>
</linearGradient>
<linearGradient id="paint23_linear_2_81" x1="27.9376" y1="26.8675" x2="27.5676" y2="24.5175" gradientUnits="userSpaceOnUse">
<stop stop-color="#FFC345"/>
<stop offset="1" stop-color="#F6DB61"/>
</linearGradient>
<linearGradient id="paint24_linear_2_81" x1="10.2976" y1="20.2175" x2="9.62765" y2="15.9675" gradientUnits="userSpaceOnUse">
<stop stop-color="#FFC345"/>
<stop offset="1" stop-color="#F6DB61"/>
</linearGradient>
<linearGradient id="paint25_linear_2_81" x1="13.9776" y1="13.6875" x2="13.5476" y2="10.9075" gradientUnits="userSpaceOnUse">
<stop stop-color="#FFC345"/>
<stop offset="1" stop-color="#F6DB61"/>
</linearGradient>
<linearGradient id="paint26_linear_2_81" x1="19.5676" y1="21.3075" x2="19.0176" y2="17.8075" gradientUnits="userSpaceOnUse">
<stop stop-color="#FFC345"/>
<stop offset="1" stop-color="#F6DB61"/>
</linearGradient>
<linearGradient id="paint27_linear_2_81" x1="27.8676" y1="15.6675" x2="27.5776" y2="13.8275" gradientUnits="userSpaceOnUse">
<stop stop-color="#FFC345"/>
<stop offset="1" stop-color="#F6DB61"/>
</linearGradient>
<linearGradient id="paint28_linear_2_81" x1="11.1776" y1="15.8775" x2="10.8376" y2="13.7275" gradientUnits="userSpaceOnUse">
<stop stop-color="#FFC345"/>
<stop offset="1" stop-color="#F6DB61"/>
</linearGradient>
<linearGradient id="paint29_linear_2_81" x1="10.2976" y1="26.1175" x2="9.50765" y2="21.1175" gradientUnits="userSpaceOnUse">
<stop stop-color="#FFC345"/>
<stop offset="1" stop-color="#F6DB61"/>
</linearGradient>
<linearGradient id="paint30_linear_2_81" x1="25.2276" y1="29.9775" x2="24.7876" y2="27.1975" gradientUnits="userSpaceOnUse">
<stop stop-color="#FFC345"/>
<stop offset="1" stop-color="#F6DB61"/>
</linearGradient>
<linearGradient id="paint31_linear_2_81" x1="14.2376" y1="30.8675" x2="13.5576" y2="26.5175" gradientUnits="userSpaceOnUse">
<stop stop-color="#FFC345"/>
<stop offset="1" stop-color="#F6DB61"/>
</linearGradient>
<linearGradient id="paint32_linear_2_81" x1="29.3076" y1="25.3175" x2="28.6876" y2="21.3875" gradientUnits="userSpaceOnUse">
<stop stop-color="#FFC345"/>
<stop offset="1" stop-color="#F6DB61"/>
</linearGradient>
<linearGradient id="paint33_linear_2_81" x1="19.6876" y1="32.2475" x2="19.2576" y2="29.4875" gradientUnits="userSpaceOnUse">
<stop stop-color="#FFC345"/>
<stop offset="1" stop-color="#F6DB61"/>
</linearGradient>
</defs>
</svg>
